  0
SECTION
  2
HEADER
  9
$ACADVER
  1
AC1009
  9
$DWGCODEPAGE
  3
dos932
  9
$INSBASE
 10
0.0
 20
0.0
 30
0.0
  9
$EXTMIN
 10
0.0
 20
0.0
 30
0.0
  9
$EXTMAX
 10
210.0
 20
297.0
 30
0.0
  9
$LIMMIN
 10
0.0
 20
0.0
  9
$LIMMAX
 10
210.0
 20
297.0
  9
$ORTHOMODE
 70
     0
  9
$REGENMODE
 70
     1
  9
$FILLMODE
 70
     1
  9
$QTEXTMODE
 70
     0
  9
$MIRRTEXT
 70
     1
  9
$DRAGMODE
 70
     2
  9
$LTSCALE
 40
1.0
  9
$OSMODE
 70
    37
  9
$ATTMODE
 70
     1
  9
$TEXTSIZE
 40
3.5
  9
$TRACEWID
 40
1.0
  9
$TEXTSTYLE
  7
STANDARD
  9
$CLAYER
  8
0
  9
$CELTYPE
  6
BYLAYER
  9
$CECOLOR
 62
   256
  9
$DIMSCALE
 40
1.0
  9
$DIMASZ
 40
6.0
  9
$DIMEXO
 40
1.0
  9
$DIMDLI
 40
3.75
  9
$DIMRND
 40
0.0
  9
$DIMDLE
 40
0.0
  9
$DIMEXE
 40
1.0
  9
$DIMTP
 40
0.0
  9
$DIMTM
 40
0.0
  9
$DIMTXT
 40
3.5
  9
$DIMCEN
 40
2.5
  9
$DIMTSZ
 40
0.0
  9
$DIMTOL
 70
     0
  9
$DIMLIM
 70
     0
  9
$DIMTIH
 70
     1
  9
$DIMTOH
 70
     1
  9
$DIMSE1
 70
     0
  9
$DIMSE2
 70
     0
  9
$DIMTAD
 70
     1
  9
$DIMZIN
 70
     0
  9
$DIMBLK
  1

  9
$DIMASO
 70
     1
  9
$DIMSHO
 70
     1
  9
$DIMPOST
  1

  9
$DIMAPOST
  1

  9
$DIMALT
 70
     0
  9
$DIMALTD
 70
     3
  9
$DIMALTF
 40
0.0393700787
  9
$DIMLFAC
 40
1.0
  9
$DIMTOFL
 70
     1
  9
$DIMTVP
 40
0.0
  9
$DIMTIX
 70
     0
  9
$DIMSOXD
 70
     0
  9
$DIMSAH
 70
     0
  9
$DIMBLK1
  1

  9
$DIMBLK2
  1

  9
$DIMSTYLE
  2
ISO-25
  9
$DIMCLRD
 70
     0
  9
$DIMCLRE
 70
     0
  9
$DIMCLRT
 70
     0
  9
$DIMTFAC
 40
1.0
  9
$DIMGAP
 40
1.524
  9
$LUNITS
 70
     2
  9
$LUPREC
 70
     2
  9
$SKETCHINC
 40
1.0
  9
$FILLETRAD
 40
10.0
  9
$AUNITS
 70
     0
  9
$AUPREC
 70
     2
  9
$MENU
  1
.
  9
$ELEVATION
 40
0.0
  9
$PELEVATION
 40
0.0
  9
$THICKNESS
 40
0.0
  9
$LIMCHECK
 70
     0
  9
$CHAMFERA
 40
10.0
  9
$CHAMFERB
 40
10.0
  9
$SKPOLY
 70
     0
  9
$TDCREATE
 40
2456925.375797952
  9
$TDUPDATE
 40
2456925.375799028
  9
$TDINDWG
 40
0.0000000116
  9
$TDUSRTIMER
 40
0.0000000116
  9
$USRTIMER
 70
     1
  9
$ANGBASE
 50
0.0
  9
$ANGDIR
 70
     0
  9
$PDMODE
 70
     0
  9
$PDSIZE
 40
-1.0
  9
$PLINEWID
 40
0.0
  9
$COORDS
 70
     1
  9
$SPLFRAME
 70
     0
  9
$SPLINETYPE
 70
     6
  9
$SPLINESEGS
 70
     8
  9
$ATTDIA
 70
     0
  9
$ATTREQ
 70
     1
  9
$HANDLING
 70
     1
  9
$HANDSEED
  5
308
  9
$SURFTAB1
 70
     6
  9
$SURFTAB2
 70
     6
  9
$SURFTYPE
 70
     6
  9
$SURFU
 70
     6
  9
$SURFV
 70
     6
  9
$UCSNAME
  2

  9
$UCSORG
 10
0.0
 20
0.0
 30
0.0
  9
$UCSXDIR
 10
1.0
 20
0.0
 30
0.0
  9
$UCSYDIR
 10
0.0
 20
1.0
 30
0.0
  9
$PUCSNAME
  2

  9
$PUCSORG
 10
0.0
 20
0.0
 30
0.0
  9
$PUCSXDIR
 10
1.0
 20
0.0
 30
0.0
  9
$PUCSYDIR
 10
0.0
 20
1.0
 30
0.0
  9
$USERI1
 70
     0
  9
$USERI2
 70
     0
  9
$USERI3
 70
     0
  9
$USERI4
 70
     0
  9
$USERI5
 70
     0
  9
$USERR1
 40
0.0
  9
$USERR2
 40
0.0
  9
$USERR3
 40
0.0
  9
$USERR4
 40
0.0
  9
$USERR5
 40
0.0
  9
$WORLDVIEW
 70
     1
  9
$SHADEDGE
 70
     3
  9
$SHADEDIF
 70
    70
  9
$TILEMODE
 70
     1
  9
$MAXACTVP
 70
    64
  9
$PLIMCHECK
 70
     0
  9
$PEXTMIN
 10
1.0000000000E+20
 20
1.0000000000E+20
 30
1.0000000000E+20
  9
$PEXTMAX
 10
-1.0000000000E+20
 20
-1.0000000000E+20
 30
-1.0000000000E+20
  9
$PLIMMIN
 10
0.0
 20
0.0
  9
$PLIMMAX
 10
420.0
 20
297.0
  9
$UNITMODE
 70
     0
  9
$VISRETAIN
 70
     1
  9
$PLINEGEN
 70
     0
  9
$PSLTSCALE
 70
     1
  0
ENDSEC
  0
SECTION
  2
TABLES
  0
TABLE
  2
VPORT
 70
     1
  0
VPORT
  2
*ACTIVE
 70
     0
 10
0.0
 20
0.0
 11
1.0
 21
1.0
 12
105.0
 22
148.5
 13
0.0
 23
0.0
 14
10.0
 24
10.0
 15
10.0
 25
10.0
 16
0.0
 26
0.0
 36
1.0
 17
0.0
 27
0.0
 37
0.0
 40
297.0
 41
0.7070707071
 42
50.0
 43
0.0
 44
0.0
 50
0.0
 51
0.0
 71
     0
 72
  2000
 73
     1
 74
     3
 75
     0
 76
     0
 77
     0
 78
     0
  0
ENDTAB
  0
TABLE
  2
LTYPE
 70
     8
  0
LTYPE
  2
CONTINUOUS
 70
     0
  3
Solid line
 72
    65
 73
     0
 40
0.0
  0
LTYPE
  2
SLD-実線
 70
     0
  3
SolidWorks Line Style
 72
    65
 73
     0
 40
0.0
  0
LTYPE
  2
SLD-破線
 70
     0
  3
SolidWorks Line Style
 72
    65
 73
     2
 40
1.905
 49
1.27
 49
-0.635
  0
LTYPE
  2
SLD-2点鎖線
 70
     0
  3
SolidWorks Line Style
 72
    65
 73
     6
 40
12.7
 49
6.35
 49
-1.27
 49
1.27
 49
-1.27
 49
1.27
 49
-1.27
  0
LTYPE
  2
SLD-鎖線
 70
     0
  3
SolidWorks Line Style
 72
    65
 73
     4
 40
10.16
 49
6.35
 49
-1.27
 49
1.27
 49
-1.27
  0
LTYPE
  2
SLD-1点鎖線_中心線_
 70
     0
  3
SolidWorks Line Style
 72
    65
 73
     4
 40
34.29
 49
30.48
 49
-1.27
 49
1.27
 49
-1.27
  0
LTYPE
  2
SLD-点線
 70
     0
  3
SolidWorks Line Style
 72
    65
 73
     2
 40
0.635
 49
0.0
 49
-0.635
  0
LTYPE
  2
SLD-細-太鎖線_切断面_
 70
     0
  3
SolidWorks Line Style
 72
    65
 73
     4
 40
10.16
 49
6.35
 49
-1.27
 49
1.27
 49
-1.27
  0
ENDTAB
  0
TABLE
  2
LAYER
 70
     1
  0
LAYER
  2
0
 70
     0
 62
     7
  6
CONTINUOUS
  0
ENDTAB
  0
TABLE
  2
STYLE
 70
     1
  0
STYLE
  2
STANDARD
 70
     0
 40
0.0
 41
1.0
 50
0.0
 71
     0
 42
3.5
  3
MSGOTHIC.TTC
  4

  0
ENDTAB
  0
TABLE
  2
VIEW
 70
     0
  0
ENDTAB
  0
TABLE
  2
UCS
 70
     0
  0
ENDTAB
  0
TABLE
  2
APPID
 70
     1
  0
APPID
  2
ACAD
 70
     0
  0
ENDTAB
  0
TABLE
  2
DIMSTYLE
 70
     1
  0
DIMSTYLE
  2
ISO-25
 70
     0
  3

  4

  5

  6

  7

 40
1.0
 41
2.5
 42
0.625
 43
3.75
 44
1.25
 45
0.0
 46
0.0
 47
0.0
 48
0.0
140
2.5
141
2.5
142
0.0
143
0.0393700787
144
1.0
145
0.0
146
1.0
147
0.625
 71
     0
 72
     0
 73
     0
 74
     0
 75
     0
 76
     0
 77
     1
 78
     8
170
     0
171
     3
172
     1
173
     0
174
     0
175
     0
176
     0
177
     0
178
     0
  0
ENDTAB
  0
ENDSEC
  0
SECTION
  2
BLOCKS
  0
BLOCK
  8
0
  2
$MODEL_SPACE
 70
     0
 10
0.0
 20
0.0
 30
0.0
  3
$MODEL_SPACE
  1

  0
ENDBLK
  5
21
  8
0
  0
BLOCK
 67
     1
  8
0
  2
$PAPER_SPACE
 70
     0
 10
0.0
 20
0.0
 30
0.0
  3
$PAPER_SPACE
  1

  0
ENDBLK
  5
1D
 67
     1
  8
0
  0
ENDSEC
  0
SECTION
  2
ENTITIES
  0
LINE
  5
46
  8
0
  6
SLD-実線
 62
     7
 10
79.28
 20
150.5
 30
0.0
 11
79.12
 21
150.5
 31
0.0
  0
LINE
  5
47
  8
0
  6
SLD-実線
 62
     7
 10
79.12
 20
149.5
 30
0.0
 11
79.28
 21
149.5
 31
0.0
  0
LINE
  5
48
  8
0
  6
SLD-実線
 62
     7
 10
79.68
 20
150.5
 30
0.0
 11
79.52
 21
150.5
 31
0.0
  0
LINE
  5
49
  8
0
  6
SLD-実線
 62
     7
 10
79.52
 20
149.5
 30
0.0
 11
79.68
 21
149.5
 31
0.0
  0
LINE
  5
4A
  8
0
  6
SLD-実線
 62
     7
 10
79.92
 20
149.5
 30
0.0
 11
80.08
 21
149.5
 31
0.0
  0
LINE
  5
4B
  8
0
  6
SLD-実線
 62
     7
 10
80.08
 20
150.5
 30
0.0
 11
79.92
 21
150.5
 31
0.0
  0
LINE
  5
4C
  8
0
  6
SLD-実線
 62
     7
 10
80.32
 20
149.5
 30
0.0
 11
80.48
 21
149.5
 31
0.0
  0
LINE
  5
4D
  8
0
  6
SLD-実線
 62
     7
 10
80.48
 20
150.5
 30
0.0
 11
80.32
 21
150.5
 31
0.0
  0
LINE
  5
4E
  8
0
  6
SLD-実線
 62
     7
 10
80.72
 20
149.5
 30
0.0
 11
80.88
 21
149.5
 31
0.0
  0
LINE
  5
4F
  8
0
  6
SLD-実線
 62
     7
 10
80.88
 20
150.5
 30
0.0
 11
80.72
 21
150.5
 31
0.0
  0
LINE
  5
50
  8
0
  6
SLD-実線
 62
     7
 10
81.9
 20
149.27
 30
0.0
 11
81.9
 21
149.63
 31
0.0
  0
LINE
  5
51
  8
0
  6
SLD-実線
 62
     7
 10
81.93
 20
149.63
 30
0.0
 11
82.04
 21
149.63
 31
0.0
  0
LINE
  5
52
  8
0
  6
SLD-実線
 62
     7
 10
82.04
 20
149.13
 30
0.0
 11
82.04
 21
149.63
 31
0.0
  0
LINE
  5
53
  8
0
  6
SLD-実線
 62
     7
 10
82.04
 20
149.13
 30
0.0
 11
81.9
 21
149.27
 31
0.0
  0
LINE
  5
54
  8
0
  6
SLD-実線
 62
     7
 10
81.8
 20
149.29
 30
0.0
 11
81.27
 21
149.29
 31
0.0
  0
ARC
  5
55
  8
0
  6
SLD-実線
 62
     7
 10
81.8
 20
149.39
 30
0.0
 40
0.1000000000000369
 50
270.0
 51
360.0
  0
LINE
  5
56
  8
0
  6
SLD-実線
 62
     7
 10
81.27
 20
149.13
 30
0.0
 11
82.04
 21
149.13
 31
0.0
  0
LINE
  5
57
  8
0
  6
SLD-実線
 62
     7
 10
81.27
 20
149.24
 30
0.0
 11
81.27
 21
149.13
 31
0.0
  0
LINE
  5
58
  8
0
  6
SLD-実線
 62
     7
 10
78.73
 20
149.13
 30
0.0
 11
78.73
 21
148.96
 31
0.0
  0
LINE
  5
59
  8
0
  6
SLD-実線
 62
     7
 10
78.73
 20
148.96
 30
0.0
 11
77.8
 21
148.96
 31
0.0
  0
ARC
  5
5A
  8
0
  6
SLD-実線
 62
     7
 10
77.8
 20
149.01
 30
0.0
 40
0.0500000000000114
 50
180.0
 51
270.0
  0
LINE
  5
5B
  8
0
  6
SLD-実線
 62
     7
 10
77.96
 20
149.13
 30
0.0
 11
77.96
 21
149.63
 31
0.0
  0
LINE
  5
5C
  8
0
  6
SLD-実線
 62
     7
 10
78.73
 20
149.13
 30
0.0
 11
77.96
 21
149.13
 31
0.0
  0
LINE
  5
5D
  8
0
  6
SLD-実線
 62
     7
 10
77.96
 20
149.63
 30
0.0
 11
77.75
 21
149.63
 31
0.0
  0
LINE
  5
5E
  8
0
  6
SLD-実線
 62
     7
 10
77.75
 20
149.63
 30
0.0
 11
77.75
 21
149.01
 31
0.0
  0
LINE
  5
5F
  8
0
  6
SLD-実線
 62
     7
 10
77.96
 20
149.13
 30
0.0
 11
78.1
 21
149.27
 31
0.0
  0
ARC
  5
60
  8
0
  6
SLD-実線
 62
     7
 10
78.2
 20
149.39
 30
0.0
 40
0.1000000000000227
 50
180.0
 51
270.0
  0
LINE
  5
61
  8
0
  6
SLD-実線
 62
     7
 10
78.2
 20
149.29
 30
0.0
 11
78.73
 21
149.29
 31
0.0
  0
LINE
  5
62
  8
0
  6
SLD-実線
 62
     7
 10
78.73
 20
149.24
 30
0.0
 11
78.73
 21
149.13
 31
0.0
  0
LINE
  5
63
  8
0
  6
SLD-実線
 62
     7
 10
82.04
 20
149.63
 30
0.0
 11
82.25
 21
149.63
 31
0.0
  0
ARC
  5
64
  8
0
  6
SLD-実線
 62
     7
 10
82.2
 20
149.01
 30
0.0
 40
0.0500000000000114
 50
270.0
 51
0.0
  0
LINE
  5
65
  8
0
  6
SLD-実線
 62
     7
 10
81.27
 20
148.96
 30
0.0
 11
82.2
 21
148.96
 31
0.0
  0
LINE
  5
66
  8
0
  6
SLD-実線
 62
     7
 10
81.27
 20
149.13
 30
0.0
 11
81.27
 21
148.96
 31
0.0
  0
LINE
  5
67
  8
0
  6
SLD-実線
 62
     7
 10
82.25
 20
149.63
 30
0.0
 11
82.25
 21
149.01
 31
0.0
  0
LINE
  5
68
  8
0
  6
SLD-実線
 62
     7
 10
81.27
 20
150.87
 30
0.0
 11
82.04
 21
150.87
 31
0.0
  0
LINE
  5
69
  8
0
  6
SLD-実線
 62
     7
 10
82.04
 20
150.87
 30
0.0
 11
81.9
 21
150.73
 31
0.0
  0
ARC
  5
6A
  8
0
  6
SLD-実線
 62
     7
 10
81.8
 20
150.61
 30
0.0
 40
0.1000000000000227
 50
0.0
 51
90.0
  0
LINE
  5
6B
  8
0
  6
SLD-実線
 62
     7
 10
81.8
 20
150.71
 30
0.0
 11
81.27
 21
150.71
 31
0.0
  0
LINE
  5
6C
  8
0
  6
SLD-実線
 62
     7
 10
81.27
 20
150.76
 30
0.0
 11
81.27
 21
150.87
 31
0.0
  0
LINE
  5
6D
  8
0
  6
SLD-実線
 62
     7
 10
78.2
 20
150.71
 30
0.0
 11
78.73
 21
150.71
 31
0.0
  0
ARC
  5
6E
  8
0
  6
SLD-実線
 62
     7
 10
78.2
 20
150.61
 30
0.0
 40
0.0999999999999659
 50
90.0
 51
180.0
  0
LINE
  5
6F
  8
0
  6
SLD-実線
 62
     7
 10
77.96
 20
150.87
 30
0.0
 11
78.1
 21
150.73
 31
0.0
  0
LINE
  5
70
  8
0
  6
SLD-実線
 62
     7
 10
78.73
 20
150.87
 30
0.0
 11
77.96
 21
150.87
 31
0.0
  0
LINE
  5
71
  8
0
  6
SLD-実線
 62
     7
 10
78.73
 20
150.76
 30
0.0
 11
78.73
 21
150.87
 31
0.0
  0
LINE
  5
72
  8
0
  6
SLD-実線
 62
     7
 10
82.04
 20
150.87
 30
0.0
 11
82.04
 21
150.37
 31
0.0
  0
LINE
  5
73
  8
0
  6
SLD-実線
 62
     7
 10
81.9
 20
150.73
 30
0.0
 11
81.9
 21
150.37
 31
0.0
  0
LINE
  5
74
  8
0
  6
SLD-実線
 62
     7
 10
81.93
 20
150.37
 30
0.0
 11
82.04
 21
150.37
 31
0.0
  0
LINE
  5
75
  8
0
  6
SLD-実線
 62
     7
 10
78.1
 20
149.27
 30
0.0
 11
78.1
 21
149.63
 31
0.0
  0
LINE
  5
76
  8
0
  6
SLD-実線
 62
     7
 10
78.07
 20
149.63
 30
0.0
 11
77.96
 21
149.63
 31
0.0
  0
ARC
  5
77
  8
0
  6
SLD-実線
 62
     7
 10
82.2
 20
150.99
 30
0.0
 40
0.0500000000000398
 50
0.0
 51
90.0
  0
LINE
  5
78
  8
0
  6
SLD-実線
 62
     7
 10
81.27
 20
151.04
 30
0.0
 11
82.2
 21
151.04
 31
0.0
  0
LINE
  5
79
  8
0
  6
SLD-実線
 62
     7
 10
82.04
 20
150.37
 30
0.0
 11
82.25
 21
150.37
 31
0.0
  0
LINE
  5
7A
  8
0
  6
SLD-実線
 62
     7
 10
81.27
 20
150.87
 30
0.0
 11
81.27
 21
151.04
 31
0.0
  0
LINE
  5
7B
  8
0
  6
SLD-実線
 62
     7
 10
82.25
 20
150.37
 30
0.0
 11
82.25
 21
150.99
 31
0.0
  0
LINE
  5
7C
  8
0
  6
SLD-実線
 62
     7
 10
77.96
 20
150.87
 30
0.0
 11
77.96
 21
150.37
 31
0.0
  0
ARC
  5
7D
  8
0
  6
SLD-実線
 62
     7
 10
77.8
 20
150.99
 30
0.0
 40
0.0500000000000398
 50
90.0
 51
180.0
  0
LINE
  5
7E
  8
0
  6
SLD-実線
 62
     7
 10
77.96
 20
150.37
 30
0.0
 11
77.75
 21
150.37
 31
0.0
  0
LINE
  5
7F
  8
0
  6
SLD-実線
 62
     7
 10
78.73
 20
151.04
 30
0.0
 11
77.8
 21
151.04
 31
0.0
  0
LINE
  5
80
  8
0
  6
SLD-実線
 62
     7
 10
78.73
 20
150.87
 30
0.0
 11
78.73
 21
151.04
 31
0.0
  0
LINE
  5
81
  8
0
  6
SLD-実線
 62
     7
 10
77.75
 20
150.37
 30
0.0
 11
77.75
 21
150.99
 31
0.0
  0
LINE
  5
82
  8
0
  6
SLD-実線
 62
     7
 10
78.1
 20
150.73
 30
0.0
 11
78.1
 21
150.37
 31
0.0
  0
LINE
  5
83
  8
0
  6
SLD-実線
 62
     7
 10
78.07
 20
150.37
 30
0.0
 11
77.96
 21
150.37
 31
0.0
  0
LINE
  5
84
  8
0
  6
SLD-実線
 62
     7
 10
77.83
 20
150.37
 30
0.0
 11
77.83
 21
149.63
 31
0.0
  0
LINE
  5
85
  8
0
  6
SLD-実線
 62
     7
 10
77.75
 20
150.37
 30
0.0
 11
77.75
 21
149.63
 31
0.0
  0
LINE
  5
86
  8
0
  6
SLD-実線
 62
     7
 10
82.17
 20
149.63
 30
0.0
 11
82.17
 21
150.37
 31
0.0
  0
LINE
  5
87
  8
0
  6
SLD-実線
 62
     7
 10
82.25
 20
149.63
 30
0.0
 11
82.25
 21
150.37
 31
0.0
  0
LINE
  5
88
  8
0
  6
SLD-実線
 62
     7
 10
78.1
 20
149.63
 30
0.0
 11
78.2
 21
149.82
 31
0.0
  0
LINE
  5
89
  8
0
  6
SLD-実線
 62
     7
 10
78.1
 20
149.63
 30
0.0
 11
78.07
 21
149.63
 31
0.0
  0
LINE
  5
8A
  8
0
  6
SLD-実線
 62
     7
 10
78.1
 20
150.37
 30
0.0
 11
78.07
 21
150.37
 31
0.0
  0
LINE
  5
8B
  8
0
  6
SLD-実線
 62
     7
 10
78.1
 20
150.37
 30
0.0
 11
78.2
 21
150.18
 31
0.0
  0
LINE
  5
8C
  8
0
  6
SLD-実線
 62
     7
 10
78.2
 20
149.82
 30
0.0
 11
78.2
 21
150.18
 31
0.0
  0
POLYLINE
  5
8D
  8
0
  6
SLD-実線
 62
     7
 66
     1
 10
0.0
 20
0.0
 30
0.0
  0
VERTEX
  5
2A7
  8
0
  6
SLD-実線
 62
     7
 10
78.85
 20
149.6194175312
 30
0.0
  0
VERTEX
  5
2A8
  8
0
  6
SLD-実線
 62
     7
 10
78.8488819501
 20
149.6185515262
 30
0.0
  0
VERTEX
  5
2A9
  8
0
  6
SLD-実線
 62
     7
 10
78.8388743445
 20
149.6108361789
 30
0.0
  0
SEQEND
  5
307
  8
0
  6
SLD-実線
 62
     7
  0
LINE
  5
8E
  8
0
  6
SLD-実線
 62
     7
 10
79.1
 20
149.6194175312
 30
0.0
 11
79.1
 21
149.5970568514
 31
0.0
  0
LINE
  5
8F
  8
0
  6
SLD-実線
 62
     7
 10
79.1
 20
149.5970568514
 30
0.0
 11
79.3
 21
149.5970568514
 31
0.0
  0
LINE
  5
90
  8
0
  6
SLD-実線
 62
     7
 10
79.3
 20
149.6194175312
 30
0.0
 11
79.3
 21
149.5970568514
 31
0.0
  0
LINE
  5
91
  8
0
  6
SLD-実線
 62
     7
 10
79.5
 20
149.6194175312
 30
0.0
 11
79.5
 21
149.5970568514
 31
0.0
  0
LINE
  5
92
  8
0
  6
SLD-実線
 62
     7
 10
79.5
 20
149.5970568514
 30
0.0
 11
79.7
 21
149.5970568514
 31
0.0
  0
LINE
  5
93
  8
0
  6
SLD-実線
 62
     7
 10
79.7
 20
149.6194175312
 30
0.0
 11
79.7
 21
149.5970568514
 31
0.0
  0
LINE
  5
94
  8
0
  6
SLD-実線
 62
     7
 10
79.9
 20
149.6194175312
 30
0.0
 11
79.9
 21
149.5970568514
 31
0.0
  0
LINE
  5
95
  8
0
  6
SLD-実線
 62
     7
 10
79.9
 20
149.5970568514
 30
0.0
 11
80.1
 21
149.5970568514
 31
0.0
  0
LINE
  5
96
  8
0
  6
SLD-実線
 62
     7
 10
80.1
 20
149.6194175312
 30
0.0
 11
80.1
 21
149.5970568514
 31
0.0
  0
LINE
  5
97
  8
0
  6
SLD-実線
 62
     7
 10
80.3
 20
149.6194175312
 30
0.0
 11
80.3
 21
149.5970568514
 31
0.0
  0
LINE
  5
98
  8
0
  6
SLD-実線
 62
     7
 10
80.3
 20
149.5970568514
 30
0.0
 11
80.5
 21
149.5970568514
 31
0.0
  0
LINE
  5
99
  8
0
  6
SLD-実線
 62
     7
 10
80.5
 20
149.6194175312
 30
0.0
 11
80.5
 21
149.5970568514
 31
0.0
  0
LINE
  5
9A
  8
0
  6
SLD-実線
 62
     7
 10
80.7
 20
149.6194175312
 30
0.0
 11
80.7
 21
149.5970568514
 31
0.0
  0
LINE
  5
9B
  8
0
  6
SLD-実線
 62
     7
 10
80.7
 20
149.5970568514
 30
0.0
 11
80.9
 21
149.5970568514
 31
0.0
  0
LINE
  5
9C
  8
0
  6
SLD-実線
 62
     7
 10
80.9
 20
149.6194175312
 30
0.0
 11
80.9
 21
149.5970568514
 31
0.0
  0
POLYLINE
  5
9D
  8
0
  6
SLD-実線
 62
     7
 66
     1
 10
0.0
 20
0.0
 30
0.0
  0
VERTEX
  5
2AA
  8
0
  6
SLD-実線
 62
     7
 10
81.15
 20
149.6194175312
 30
0.0
  0
VERTEX
  5
2AB
  8
0
  6
SLD-実線
 62
     7
 10
81.1511180499
 20
149.6185515262
 30
0.0
  0
VERTEX
  5
2AC
  8
0
  6
SLD-実線
 62
     7
 10
81.1611256555
 20
149.6108361789
 30
0.0
  0
SEQEND
  5
306
  8
0
  6
SLD-実線
 62
     7
  0
ARC
  5
9E
  8
0
  6
SLD-実線
 62
     7
 10
81.0987792929
 20
149.6908596716
 30
0.0
 40
0.101443719934045
 50
270.6894764121
 51
307.9221828183
  0
LINE
  5
9F
  8
0
  6
SLD-実線
 62
     7
 10
78.9
 20
149.5894232965
 30
0.0
 11
81.1
 21
149.5894232965
 31
0.0
  0
ARC
  5
A0
  8
0
  6
SLD-実線
 62
     7
 10
78.9012207071
 20
149.6908596716
 30
0.0
 40
0.1014437199362426
 50
232.0778171822
 51
269.3105235875
  0
ARC
  5
A1
  8
0
  6
SLD-実線
 62
     7
 10
81.1014713618
 20
149.6892536766
 30
0.0
 40
0.0985288724706867
 50
307.2612216697
 51
359.8750635312
  0
LINE
  5
A2
  8
0
  6
SLD-実線
 62
     7
 10
81.2
 20
149.6833525549
 30
0.0
 11
81.2
 21
149.6890388294
 31
0.0
  0
ARC
  5
A3
  8
0
  6
SLD-実線
 62
     7
 10
81.0998971874
 20
149.6833511744
 30
0.0
 40
0.1001028125908308
 50
331.1174883335
 51
0.0007901357
  0
ARC
  5
A4
  8
0
  6
SLD-実線
 62
     7
 10
78.8985286382
 20
150.3107463234
 30
0.0
 40
0.09852887247063
 50
127.2612216696
 51
179.8750635311
  0
LINE
  5
A5
  8
0
  6
SLD-実線
 62
     7
 10
78.8
 20
150.3166474451
 30
0.0
 11
78.8
 21
150.3109611706
 31
0.0
  0
ARC
  5
A6
  8
0
  6
SLD-実線
 62
     7
 10
78.9001028126
 20
150.3166488256
 30
0.0
 40
0.1001028125911718
 50
151.1174883335
 51
180.0007901357
  0
ARC
  5
A7
  8
0
  6
SLD-実線
 62
     7
 10
78.9012207071
 20
150.3091403284
 30
0.0
 40
0.1014437199324176
 50
90.6894764118
 51
127.9221828185
  0
LINE
  5
A8
  8
0
  6
SLD-実線
 62
     7
 10
81.27
 20
150.76
 30
0.0
 11
81.27
 21
150.7108078424
 31
0.0
  0
LINE
  5
A9
  8
0
  6
SLD-実線
 62
     7
 10
78.73
 20
150.7108078424
 30
0.0
 11
81.27
 21
150.7108078424
 31
0.0
  0
LINE
  5
AA
  8
0
  6
SLD-実線
 62
     7
 10
78.73
 20
151.04
 30
0.0
 11
78.79
 21
151.1
 31
0.0
  0
LINE
  5
AB
  8
0
  6
SLD-実線
 62
     7
 10
78.79
 20
151.1
 30
0.0
 11
81.21
 21
151.1
 31
0.0
  0
LINE
  5
AC
  8
0
  6
SLD-実線
 62
     7
 10
78.73
 20
150.76
 30
0.0
 11
78.73
 21
150.7108078424
 31
0.0
  0
LINE
  5
AD
  8
0
  6
SLD-実線
 62
     7
 10
81.27
 20
151.04
 30
0.0
 11
81.21
 21
151.1
 31
0.0
  0
ARC
  5
AE
  8
0
  6
SLD-実線
 62
     7
 10
81.0987792929
 20
150.3091403284
 30
0.0
 40
0.1014437199345085
 50
52.0778171819
 51
89.3105235878
  0
POLYLINE
  5
AF
  8
0
  6
SLD-実線
 62
     7
 66
     1
 10
0.0
 20
0.0
 30
0.0
  0
VERTEX
  5
2AD
  8
0
  6
SLD-実線
 62
     7
 10
81.15
 20
150.3805824688
 30
0.0
  0
VERTEX
  5
2AE
  8
0
  6
SLD-実線
 62
     7
 10
81.1511180499
 20
150.3814484738
 30
0.0
  0
VERTEX
  5
2AF
  8
0
  6
SLD-実線
 62
     7
 10
81.1611256555
 20
150.3891638211
 30
0.0
  0
SEQEND
  5
305
  8
0
  6
SLD-実線
 62
     7
  0
LINE
  5
B0
  8
0
  6
SLD-実線
 62
     7
 10
80.9
 20
150.3805824688
 30
0.0
 11
80.9
 21
150.4029431486
 31
0.0
  0
LINE
  5
B1
  8
0
  6
SLD-実線
 62
     7
 10
80.7
 20
150.4029431486
 30
0.0
 11
80.9
 21
150.4029431486
 31
0.0
  0
LINE
  5
B2
  8
0
  6
SLD-実線
 62
     7
 10
80.7
 20
150.3805824688
 30
0.0
 11
80.7
 21
150.4029431486
 31
0.0
  0
LINE
  5
B3
  8
0
  6
SLD-実線
 62
     7
 10
80.3
 20
150.4029431486
 30
0.0
 11
80.5
 21
150.4029431486
 31
0.0
  0
LINE
  5
B4
  8
0
  6
SLD-実線
 62
     7
 10
79.9
 20
150.4029431486
 30
0.0
 11
80.1
 21
150.4029431486
 31
0.0
  0
LINE
  5
B5
  8
0
  6
SLD-実線
 62
     7
 10
79.9
 20
150.3805824688
 30
0.0
 11
79.9
 21
150.4029431486
 31
0.0
  0
LINE
  5
B6
  8
0
  6
SLD-実線
 62
     7
 10
79.7
 20
150.3805824688
 30
0.0
 11
79.7
 21
150.4029431486
 31
0.0
  0
LINE
  5
B7
  8
0
  6
SLD-実線
 62
     7
 10
79.5
 20
150.4029431486
 30
0.0
 11
79.7
 21
150.4029431486
 31
0.0
  0
LINE
  5
B8
  8
0
  6
SLD-実線
 62
     7
 10
79.5
 20
150.3805824688
 30
0.0
 11
79.5
 21
150.4029431486
 31
0.0
  0
LINE
  5
B9
  8
0
  6
SLD-実線
 62
     7
 10
79.3
 20
150.3805824688
 30
0.0
 11
79.3
 21
150.4029431486
 31
0.0
  0
LINE
  5
BA
  8
0
  6
SLD-実線
 62
     7
 10
79.1
 20
150.4029431486
 30
0.0
 11
79.3
 21
150.4029431486
 31
0.0
  0
POLYLINE
  5
BB
  8
0
  6
SLD-実線
 62
     7
 66
     1
 10
0.0
 20
0.0
 30
0.0
  0
VERTEX
  5
2B0
  8
0
  6
SLD-実線
 62
     7
 10
78.85
 20
150.3805824688
 30
0.0
  0
VERTEX
  5
2B1
  8
0
  6
SLD-実線
 62
     7
 10
78.8488819501
 20
150.3814484738
 30
0.0
  0
VERTEX
  5
2B2
  8
0
  6
SLD-実線
 62
     7
 10
78.8388743445
 20
150.3891638211
 30
0.0
  0
SEQEND
  5
304
  8
0
  6
SLD-実線
 62
     7
  0
LINE
  5
BC
  8
0
  6
SLD-実線
 62
     7
 10
78.9
 20
150.4105767035
 30
0.0
 11
81.1
 21
150.4105767035
 31
0.0
  0
LINE
  5
BD
  8
0
  6
SLD-実線
 62
     7
 10
80.5
 20
150.3805824688
 30
0.0
 11
80.5
 21
150.4029431486
 31
0.0
  0
LINE
  5
BE
  8
0
  6
SLD-実線
 62
     7
 10
80.1
 20
150.3805824688
 30
0.0
 11
80.1
 21
150.4029431486
 31
0.0
  0
LINE
  5
BF
  8
0
  6
SLD-実線
 62
     7
 10
79.1
 20
150.3805824688
 30
0.0
 11
79.1
 21
150.4029431486
 31
0.0
  0
LINE
  5
C0
  8
0
  6
SLD-実線
 62
     7
 10
80.3
 20
150.3805824688
 30
0.0
 11
80.3
 21
150.4029431486
 31
0.0
  0
ARC
  5
C1
  8
0
  6
SLD-実線
 62
     7
 10
78.9001028126
 20
149.6833511744
 30
0.0
 40
0.1001028125910581
 50
179.9992098643
 51
208.8825116665
  0
LINE
  5
C2
  8
0
  6
SLD-実線
 62
     7
 10
78.8
 20
149.6833525549
 30
0.0
 11
78.8
 21
149.6890388294
 31
0.0
  0
ARC
  5
C3
  8
0
  6
SLD-実線
 62
     7
 10
78.8985286382
 20
149.6892536766
 30
0.0
 40
0.0985288724712132
 50
180.124936469
 51
232.7387783302
  0
LINE
  5
C4
  8
0
  6
SLD-実線
 62
     7
 10
78.73
 20
149.2891921576
 30
0.0
 11
81.27
 21
149.2891921576
 31
0.0
  0
LINE
  5
C5
  8
0
  6
SLD-実線
 62
     7
 10
81.27
 20
148.96
 30
0.0
 11
81.21
 21
148.9
 31
0.0
  0
LINE
  5
C6
  8
0
  6
SLD-実線
 62
     7
 10
78.73
 20
148.96
 30
0.0
 11
78.79
 21
148.9
 31
0.0
  0
LINE
  5
C7
  8
0
  6
SLD-実線
 62
     7
 10
78.79
 20
148.9
 30
0.0
 11
81.21
 21
148.9
 31
0.0
  0
LINE
  5
C8
  8
0
  6
SLD-実線
 62
     7
 10
81.27
 20
149.24
 30
0.0
 11
81.27
 21
149.2891921576
 31
0.0
  0
LINE
  5
C9
  8
0
  6
SLD-実線
 62
     7
 10
78.73
 20
149.24
 30
0.0
 11
78.73
 21
149.2891921576
 31
0.0
  0
ARC
  5
CA
  8
0
  6
SLD-実線
 62
     7
 10
81.0998971874
 20
150.3166488256
 30
0.0
 40
0.1001028125909287
 50
359.9992098643
 51
28.8825116666
  0
LINE
  5
CB
  8
0
  6
SLD-実線
 62
     7
 10
81.2
 20
150.3166474451
 30
0.0
 11
81.2
 21
150.3109611706
 31
0.0
  0
ARC
  5
CC
  8
0
  6
SLD-実線
 62
     7
 10
81.1014713618
 20
150.3107463234
 30
0.0
 40
0.0985288724706507
 50
0.1249364689
 51
52.7387783304
  0
LINE
  5
CD
  8
0
  6
SLD-実線
 62
     7
 10
81.2
 20
149.6890388294
 30
0.0
 11
81.2
 21
150.3109611706
 31
0.0
  0
LINE
  5
CE
  8
0
  6
SLD-実線
 62
     7
 10
78.77
 20
150.669215837
 30
0.0
 11
78.73
 21
150.7099923129
 31
0.0
  0
LINE
  5
CF
  8
0
  6
SLD-実線
 62
     7
 10
81.23
 20
150.669215837
 30
0.0
 11
81.27
 21
150.7099923129
 31
0.0
  0
LINE
  5
D0
  8
0
  6
SLD-実線
 62
     7
 10
78.77
 20
150.669215837
 30
0.0
 11
81.23
 21
150.669215837
 31
0.0
  0
LINE
  5
D1
  8
0
  6
SLD-実線
 62
     7
 10
81.27
 20
150.7108078424
 30
0.0
 11
81.27
 21
150.7099923129
 31
0.0
  0
LINE
  5
D2
  8
0
  6
SLD-実線
 62
     7
 10
78.73
 20
150.7108078424
 30
0.0
 11
78.73
 21
150.7099923129
 31
0.0
  0
LINE
  5
D3
  8
0
  6
SLD-実線
 62
     7
 10
79.9
 20
150.3805824688
 30
0.0
 11
79.9
 21
150.35
 31
0.0
  0
LINE
  5
D4
  8
0
  6
SLD-実線
 62
     7
 10
79.9
 20
150.35
 30
0.0
 11
80.1
 21
150.35
 31
0.0
  0
LINE
  5
D5
  8
0
  6
SLD-実線
 62
     7
 10
80.7
 20
150.3805824688
 30
0.0
 11
80.7
 21
150.35
 31
0.0
  0
LINE
  5
D6
  8
0
  6
SLD-実線
 62
     7
 10
80.9
 20
150.3805824688
 30
0.0
 11
80.9
 21
150.35
 31
0.0
  0
LINE
  5
D7
  8
0
  6
SLD-実線
 62
     7
 10
80.9
 20
149.6194175312
 30
0.0
 11
80.9
 21
149.65
 31
0.0
  0
LINE
  5
D8
  8
0
  6
SLD-実線
 62
     7
 10
80.7
 20
149.6194175312
 30
0.0
 11
80.7
 21
149.65
 31
0.0
  0
LINE
  5
D9
  8
0
  6
SLD-実線
 62
     7
 10
80.5
 20
149.6194175312
 30
0.0
 11
80.5
 21
149.65
 31
0.0
  0
LINE
  5
DA
  8
0
  6
SLD-実線
 62
     7
 10
80.1
 20
149.6194175312
 30
0.0
 11
80.1
 21
149.65
 31
0.0
  0
LINE
  5
DB
  8
0
  6
SLD-実線
 62
     7
 10
79.9
 20
149.65
 30
0.0
 11
80.1
 21
149.65
 31
0.0
  0
LINE
  5
DC
  8
0
  6
SLD-実線
 62
     7
 10
79.9
 20
149.6194175312
 30
0.0
 11
79.9
 21
149.65
 31
0.0
  0
LINE
  5
DD
  8
0
  6
SLD-実線
 62
     7
 10
79.1
 20
149.65
 30
0.0
 11
79.3
 21
149.65
 31
0.0
  0
LINE
  5
DE
  8
0
  6
SLD-実線
 62
     7
 10
79.1
 20
149.6194175312
 30
0.0
 11
79.1
 21
149.65
 31
0.0
  0
LINE
  5
DF
  8
0
  6
SLD-実線
 62
     7
 10
80.9
 20
150.35
 30
0.0
 11
80.7
 21
150.35
 31
0.0
  0
LINE
  5
E0
  8
0
  6
SLD-実線
 62
     7
 10
79.7
 20
150.3805824688
 30
0.0
 11
79.7
 21
150.35
 31
0.0
  0
LINE
  5
E1
  8
0
  6
SLD-実線
 62
     7
 10
80.9
 20
149.65
 30
0.0
 11
80.7
 21
149.65
 31
0.0
  0
LINE
  5
E2
  8
0
  6
SLD-実線
 62
     7
 10
79.5
 20
150.3805824688
 30
0.0
 11
79.5
 21
150.35
 31
0.0
  0
LINE
  5
E3
  8
0
  6
SLD-実線
 62
     7
 10
79.3
 20
150.3805824688
 30
0.0
 11
79.3
 21
150.35
 31
0.0
  0
LINE
  5
E4
  8
0
  6
SLD-実線
 62
     7
 10
79.1
 20
150.35
 30
0.0
 11
79.3
 21
150.35
 31
0.0
  0
LINE
  5
E5
  8
0
  6
SLD-実線
 62
     7
 10
80.5
 20
150.3805824688
 30
0.0
 11
80.5
 21
150.35
 31
0.0
  0
LINE
  5
E6
  8
0
  6
SLD-実線
 62
     7
 10
79.3
 20
149.6194175312
 30
0.0
 11
79.3
 21
149.65
 31
0.0
  0
LINE
  5
E7
  8
0
  6
SLD-実線
 62
     7
 10
80.1
 20
150.3805824688
 30
0.0
 11
80.1
 21
150.35
 31
0.0
  0
LINE
  5
E8
  8
0
  6
SLD-実線
 62
     7
 10
80.5
 20
149.65
 30
0.0
 11
80.3
 21
149.65
 31
0.0
  0
LINE
  5
E9
  8
0
  6
SLD-実線
 62
     7
 10
80.3
 20
149.6194175312
 30
0.0
 11
80.3
 21
149.65
 31
0.0
  0
LINE
  5
EA
  8
0
  6
SLD-実線
 62
     7
 10
79.1
 20
150.3805824688
 30
0.0
 11
79.1
 21
150.35
 31
0.0
  0
LINE
  5
EB
  8
0
  6
SLD-実線
 62
     7
 10
79.5
 20
150.35
 30
0.0
 11
79.7
 21
150.35
 31
0.0
  0
LINE
  5
EC
  8
0
  6
SLD-実線
 62
     7
 10
79.7
 20
149.6194175312
 30
0.0
 11
79.7
 21
149.65
 31
0.0
  0
LINE
  5
ED
  8
0
  6
SLD-実線
 62
     7
 10
79.5
 20
149.6194175312
 30
0.0
 11
79.5
 21
149.65
 31
0.0
  0
LINE
  5
EE
  8
0
  6
SLD-実線
 62
     7
 10
80.5
 20
150.35
 30
0.0
 11
80.3
 21
150.35
 31
0.0
  0
LINE
  5
EF
  8
0
  6
SLD-実線
 62
     7
 10
79.5
 20
149.65
 30
0.0
 11
79.7
 21
149.65
 31
0.0
  0
LINE
  5
F0
  8
0
  6
SLD-実線
 62
     7
 10
80.3
 20
150.3805824688
 30
0.0
 11
80.3
 21
150.35
 31
0.0
  0
LINE
  5
F1
  8
0
  6
SLD-実線
 62
     7
 10
81.9
 20
150.37
 30
0.0
 11
81.8
 21
150.18
 31
0.0
  0
LINE
  5
F2
  8
0
  6
SLD-実線
 62
     7
 10
81.9
 20
150.37
 30
0.0
 11
81.93
 21
150.37
 31
0.0
  0
LINE
  5
F3
  8
0
  6
SLD-実線
 62
     7
 10
81.9
 20
149.63
 30
0.0
 11
81.8
 21
149.82
 31
0.0
  0
LINE
  5
F4
  8
0
  6
SLD-実線
 62
     7
 10
81.8
 20
149.82
 30
0.0
 11
81.8
 21
150.18
 31
0.0
  0
LINE
  5
F5
  8
0
  6
SLD-実線
 62
     7
 10
81.9
 20
149.63
 30
0.0
 11
81.93
 21
149.63
 31
0.0
  0
LINE
  5
F6
  8
0
  6
SLD-実線
 62
     7
 10
78.8
 20
149.6890388294
 30
0.0
 11
78.8
 21
150.3109611706
 31
0.0
  0
LINE
  5
F7
  8
0
  6
SLD-実線
 62
     7
 10
78.77
 20
149.330784163
 30
0.0
 11
78.73
 21
149.2900076871
 31
0.0
  0
LINE
  5
F8
  8
0
  6
SLD-実線
 62
     7
 10
78.77
 20
149.330784163
 30
0.0
 11
81.23
 21
149.330784163
 31
0.0
  0
LINE
  5
F9
  8
0
  6
SLD-実線
 62
     7
 10
81.23
 20
149.330784163
 30
0.0
 11
81.27
 21
149.2900076871
 31
0.0
  0
LINE
  5
FA
  8
0
  6
SLD-実線
 62
     7
 10
81.27
 20
149.2891921576
 30
0.0
 11
81.27
 21
149.2900076871
 31
0.0
  0
LINE
  5
FB
  8
0
  6
SLD-実線
 62
     7
 10
78.73
 20
149.2891921576
 30
0.0
 11
78.73
 21
149.2900076871
 31
0.0
  0
LINE
  5
FC
  8
0
  6
SLD-実線
 62
     7
 10
78.77
 20
149.338077655
 30
0.0
 11
78.77
 21
149.330784163
 31
0.0
  0
LINE
  5
FD
  8
0
  6
SLD-実線
 62
     7
 10
78.73
 20
149.2900076871
 30
0.0
 11
78.73
 21
149.2980853422
 31
0.0
  0
LINE
  5
FE
  8
0
  6
SLD-実線
 62
     7
 10
78.77
 20
150.661922345
 30
0.0
 11
78.77
 21
150.669215837
 31
0.0
  0
LINE
  5
FF
  8
0
  6
SLD-実線
 62
     7
 10
78.73
 20
150.7099923129
 30
0.0
 11
78.73
 21
150.7019146578
 31
0.0
  0
LINE
  5
100
  8
0
  6
SLD-実線
 62
     7
 10
81.23
 20
149.338077655
 30
0.0
 11
81.23
 21
149.330784163
 31
0.0
  0
LINE
  5
101
  8
0
  6
SLD-実線
 62
     7
 10
81.27
 20
149.2900076871
 30
0.0
 11
81.27
 21
149.2980853422
 31
0.0
  0
LINE
  5
102
  8
0
  6
SLD-実線
 62
     7
 10
81.23
 20
150.661922345
 30
0.0
 11
81.23
 21
150.669215837
 31
0.0
  0
LINE
  5
103
  8
0
  6
SLD-実線
 62
     7
 10
81.27
 20
150.7099923129
 30
0.0
 11
81.27
 21
150.7019146578
 31
0.0
  0
LINE
  5
104
  8
0
  6
SLD-実線
 62
     7
 10
80.88
 20
149.5886914182
 30
0.0
 11
80.72
 21
149.5886914182
 31
0.0
  0
LINE
  5
105
  8
0
  6
SLD-実線
 62
     7
 10
80.08
 20
149.5886914182
 30
0.0
 11
79.92
 21
149.5886914182
 31
0.0
  0
LINE
  5
106
  8
0
  6
SLD-実線
 62
     7
 10
79.28
 20
149.5886914182
 30
0.0
 11
79.12
 21
149.5886914182
 31
0.0
  0
LINE
  5
107
  8
0
  6
SLD-実線
 62
     7
 10
79.68
 20
149.5886914182
 30
0.0
 11
79.52
 21
149.5886914182
 31
0.0
  0
LINE
  5
108
  8
0
  6
SLD-実線
 62
     7
 10
80.48
 20
149.5886914182
 30
0.0
 11
80.32
 21
149.5886914182
 31
0.0
  0
LINE
  5
109
  8
0
  6
SLD-実線
 62
     7
 10
80.72
 20
150.4113085818
 30
0.0
 11
80.88
 21
150.4113085818
 31
0.0
  0
LINE
  5
10A
  8
0
  6
SLD-実線
 62
     7
 10
79.92
 20
150.4113085818
 30
0.0
 11
80.08
 21
150.4113085818
 31
0.0
  0
LINE
  5
10B
  8
0
  6
SLD-実線
 62
     7
 10
79.12
 20
150.4113085818
 30
0.0
 11
79.28
 21
150.4113085818
 31
0.0
  0
LINE
  5
10C
  8
0
  6
SLD-実線
 62
     7
 10
79.52
 20
150.4113085818
 30
0.0
 11
79.68
 21
150.4113085818
 31
0.0
  0
LINE
  5
10D
  8
0
  6
SLD-実線
 62
     7
 10
80.32
 20
150.4113085818
 30
0.0
 11
80.48
 21
150.4113085818
 31
0.0
  0
LINE
  5
10E
  8
0
  6
SLD-実線
 62
     7
 10
80.34
 20
150.6687914842
 30
0.0
 11
80.46
 21
150.6687914842
 31
0.0
  0
LINE
  5
10F
  8
0
  6
SLD-実線
 62
     7
 10
79.94
 20
150.6687914842
 30
0.0
 11
80.06
 21
150.6687914842
 31
0.0
  0
LINE
  5
110
  8
0
  6
SLD-実線
 62
     7
 10
79.54
 20
150.6687914842
 30
0.0
 11
79.66
 21
150.6687914842
 31
0.0
  0
LINE
  5
111
  8
0
  6
SLD-実線
 62
     7
 10
79.14
 20
150.6687914842
 30
0.0
 11
79.26
 21
150.6687914842
 31
0.0
  0
LINE
  5
112
  8
0
  6
SLD-実線
 62
     7
 10
80.74
 20
150.6687914842
 30
0.0
 11
80.86
 21
150.6687914842
 31
0.0
  0
LINE
  5
113
  8
0
  6
SLD-実線
 62
     7
 10
79.26
 20
149.3312085158
 30
0.0
 11
79.14
 21
149.3312085158
 31
0.0
  0
LINE
  5
114
  8
0
  6
SLD-実線
 62
     7
 10
79.66
 20
149.3312085158
 30
0.0
 11
79.54
 21
149.3312085158
 31
0.0
  0
LINE
  5
115
  8
0
  6
SLD-実線
 62
     7
 10
80.06
 20
149.3312085158
 30
0.0
 11
79.94
 21
149.3312085158
 31
0.0
  0
LINE
  5
116
  8
0
  6
SLD-実線
 62
     7
 10
80.46
 20
149.3312085158
 30
0.0
 11
80.34
 21
149.3312085158
 31
0.0
  0
LINE
  5
117
  8
0
  6
SLD-実線
 62
     7
 10
80.86
 20
149.3312085158
 30
0.0
 11
80.74
 21
149.3312085158
 31
0.0
  0
LINE
  5
118
  8
0
  6
SLD-実線
 62
     7
 10
79.14
 20
149.36
 30
0.0
 11
79.14
 21
149.3312085158
 31
0.0
  0
LINE
  5
119
  8
0
  6
SLD-実線
 62
     7
 10
79.26
 20
149.36
 30
0.0
 11
79.14
 21
149.36
 31
0.0
  0
LINE
  5
11A
  8
0
  6
SLD-実線
 62
     7
 10
79.26
 20
149.36
 30
0.0
 11
79.26
 21
149.3312085158
 31
0.0
  0
LINE
  5
11B
  8
0
  6
SLD-実線
 62
     7
 10
79.14
 20
150.64
 30
0.0
 11
79.26
 21
150.64
 31
0.0
  0
LINE
  5
11C
  8
0
  6
SLD-実線
 62
     7
 10
79.14
 20
150.64
 30
0.0
 11
79.14
 21
150.6687914842
 31
0.0
  0
LINE
  5
11D
  8
0
  6
SLD-実線
 62
     7
 10
79.26
 20
150.64
 30
0.0
 11
79.26
 21
150.6687914842
 31
0.0
  0
LINE
  5
11E
  8
0
  6
SLD-実線
 62
     7
 10
79.66
 20
150.64
 30
0.0
 11
79.66
 21
150.6687914842
 31
0.0
  0
LINE
  5
11F
  8
0
  6
SLD-実線
 62
     7
 10
79.54
 20
150.64
 30
0.0
 11
79.66
 21
150.64
 31
0.0
  0
LINE
  5
120
  8
0
  6
SLD-実線
 62
     7
 10
79.54
 20
150.64
 30
0.0
 11
79.54
 21
150.6687914842
 31
0.0
  0
LINE
  5
121
  8
0
  6
SLD-実線
 62
     7
 10
79.54
 20
149.36
 30
0.0
 11
79.54
 21
149.3312085158
 31
0.0
  0
LINE
  5
122
  8
0
  6
SLD-実線
 62
     7
 10
79.66
 20
149.36
 30
0.0
 11
79.54
 21
149.36
 31
0.0
  0
LINE
  5
123
  8
0
  6
SLD-実線
 62
     7
 10
79.66
 20
149.36
 30
0.0
 11
79.66
 21
149.3312085158
 31
0.0
  0
LINE
  5
124
  8
0
  6
SLD-実線
 62
     7
 10
79.94
 20
149.36
 30
0.0
 11
79.94
 21
149.3312085158
 31
0.0
  0
LINE
  5
125
  8
0
  6
SLD-実線
 62
     7
 10
80.06
 20
149.36
 30
0.0
 11
79.94
 21
149.36
 31
0.0
  0
LINE
  5
126
  8
0
  6
SLD-実線
 62
     7
 10
80.06
 20
149.36
 30
0.0
 11
80.06
 21
149.3312085158
 31
0.0
  0
LINE
  5
127
  8
0
  6
SLD-実線
 62
     7
 10
79.94
 20
150.64
 30
0.0
 11
80.06
 21
150.64
 31
0.0
  0
LINE
  5
128
  8
0
  6
SLD-実線
 62
     7
 10
79.94
 20
150.64
 30
0.0
 11
79.94
 21
150.6687914842
 31
0.0
  0
LINE
  5
129
  8
0
  6
SLD-実線
 62
     7
 10
80.06
 20
150.64
 30
0.0
 11
80.06
 21
150.6687914842
 31
0.0
  0
LINE
  5
12A
  8
0
  6
SLD-実線
 62
     7
 10
80.46
 20
150.64
 30
0.0
 11
80.46
 21
150.6687914842
 31
0.0
  0
LINE
  5
12B
  8
0
  6
SLD-実線
 62
     7
 10
80.34
 20
150.64
 30
0.0
 11
80.46
 21
150.64
 31
0.0
  0
LINE
  5
12C
  8
0
  6
SLD-実線
 62
     7
 10
80.34
 20
150.64
 30
0.0
 11
80.34
 21
150.6687914842
 31
0.0
  0
LINE
  5
12D
  8
0
  6
SLD-実線
 62
     7
 10
80.46
 20
149.36
 30
0.0
 11
80.34
 21
149.36
 31
0.0
  0
LINE
  5
12E
  8
0
  6
SLD-実線
 62
     7
 10
80.46
 20
149.36
 30
0.0
 11
80.46
 21
149.3312085158
 31
0.0
  0
LINE
  5
12F
  8
0
  6
SLD-実線
 62
     7
 10
80.34
 20
149.36
 30
0.0
 11
80.34
 21
149.3312085158
 31
0.0
  0
LINE
  5
130
  8
0
  6
SLD-実線
 62
     7
 10
80.86
 20
149.36
 30
0.0
 11
80.74
 21
149.36
 31
0.0
  0
LINE
  5
131
  8
0
  6
SLD-実線
 62
     7
 10
80.86
 20
149.36
 30
0.0
 11
80.86
 21
149.3312085158
 31
0.0
  0
LINE
  5
132
  8
0
  6
SLD-実線
 62
     7
 10
80.74
 20
149.36
 30
0.0
 11
80.74
 21
149.3312085158
 31
0.0
  0
LINE
  5
133
  8
0
  6
SLD-実線
 62
     7
 10
80.86
 20
150.64
 30
0.0
 11
80.86
 21
150.6687914842
 31
0.0
  0
LINE
  5
134
  8
0
  6
SLD-実線
 62
     7
 10
80.74
 20
150.64
 30
0.0
 11
80.86
 21
150.64
 31
0.0
  0
LINE
  5
135
  8
0
  6
SLD-実線
 62
     7
 10
80.74
 20
150.64
 30
0.0
 11
80.74
 21
150.6687914842
 31
0.0
  0
LINE
  5
136
  8
0
  6
SLD-実線
 62
     7
 10
79.28
 20
150.4113085818
 30
0.0
 11
79.28
 21
150.5
 31
0.0
  0
LINE
  5
137
  8
0
  6
SLD-実線
 62
     7
 10
79.12
 20
150.4113085818
 30
0.0
 11
79.12
 21
150.5
 31
0.0
  0
LINE
  5
138
  8
0
  6
SLD-実線
 62
     7
 10
79.12
 20
149.5886914182
 30
0.0
 11
79.12
 21
149.5
 31
0.0
  0
LINE
  5
139
  8
0
  6
SLD-実線
 62
     7
 10
79.28
 20
149.5886914182
 30
0.0
 11
79.28
 21
149.5
 31
0.0
  0
LINE
  5
13A
  8
0
  6
SLD-実線
 62
     7
 10
79.68
 20
150.4113085818
 30
0.0
 11
79.68
 21
150.5
 31
0.0
  0
LINE
  5
13B
  8
0
  6
SLD-実線
 62
     7
 10
79.52
 20
150.4113085818
 30
0.0
 11
79.52
 21
150.5
 31
0.0
  0
LINE
  5
13C
  8
0
  6
SLD-実線
 62
     7
 10
79.68
 20
149.5886914182
 30
0.0
 11
79.68
 21
149.5
 31
0.0
  0
LINE
  5
13D
  8
0
  6
SLD-実線
 62
     7
 10
79.52
 20
149.5886914182
 30
0.0
 11
79.52
 21
149.5
 31
0.0
  0
LINE
  5
13E
  8
0
  6
SLD-実線
 62
     7
 10
79.92
 20
149.5886914182
 30
0.0
 11
79.92
 21
149.5
 31
0.0
  0
LINE
  5
13F
  8
0
  6
SLD-実線
 62
     7
 10
80.08
 20
149.5886914182
 30
0.0
 11
80.08
 21
149.5
 31
0.0
  0
LINE
  5
140
  8
0
  6
SLD-実線
 62
     7
 10
80.08
 20
150.4113085818
 30
0.0
 11
80.08
 21
150.5
 31
0.0
  0
LINE
  5
141
  8
0
  6
SLD-実線
 62
     7
 10
79.92
 20
150.4113085818
 30
0.0
 11
79.92
 21
150.5
 31
0.0
  0
LINE
  5
142
  8
0
  6
SLD-実線
 62
     7
 10
80.48
 20
149.5886914182
 30
0.0
 11
80.48
 21
149.5
 31
0.0
  0
LINE
  5
143
  8
0
  6
SLD-実線
 62
     7
 10
80.32
 20
149.5886914182
 30
0.0
 11
80.32
 21
149.5
 31
0.0
  0
LINE
  5
144
  8
0
  6
SLD-実線
 62
     7
 10
80.32
 20
150.4113085818
 30
0.0
 11
80.32
 21
150.5
 31
0.0
  0
LINE
  5
145
  8
0
  6
SLD-実線
 62
     7
 10
80.48
 20
150.4113085818
 30
0.0
 11
80.48
 21
150.5
 31
0.0
  0
LINE
  5
146
  8
0
  6
SLD-実線
 62
     7
 10
80.72
 20
149.5886914182
 30
0.0
 11
80.72
 21
149.5
 31
0.0
  0
LINE
  5
147
  8
0
  6
SLD-実線
 62
     7
 10
80.88
 20
149.5886914182
 30
0.0
 11
80.88
 21
149.5
 31
0.0
  0
LINE
  5
148
  8
0
  6
SLD-実線
 62
     7
 10
80.88
 20
150.4113085818
 30
0.0
 11
80.88
 21
150.5
 31
0.0
  0
LINE
  5
149
  8
0
  6
SLD-実線
 62
     7
 10
80.72
 20
150.4113085818
 30
0.0
 11
80.72
 21
150.5
 31
0.0
  0
LINE
  5
14A
  8
0
  6
SLD-実線
 62
     7
 10
80.06
 20
149.3522222222
 30
0.0
 11
80.0737488058
 21
149.3541317786
 31
0.0
  0
LINE
  5
14B
  8
0
  6
SLD-実線
 62
     7
 10
79.94
 20
149.3522222222
 30
0.0
 11
79.9262511942
 21
149.3541317786
 31
0.0
  0
LINE
  5
14C
  8
0
  6
SLD-実線
 62
     7
 10
79.9262511942
 20
149.3541317786
 30
0.0
 11
79.94
 21
149.3541317786
 31
0.0
  0
LINE
  5
14D
  8
0
  6
SLD-実線
 62
     7
 10
80.06
 20
149.3541317786
 30
0.0
 11
80.0737488058
 21
149.3541317786
 31
0.0
  0
LINE
  5
14E
  8
0
  6
SLD-実線
 62
     7
 10
80.86
 20
149.3522222222
 30
0.0
 11
80.8737488058
 21
149.3541317786
 31
0.0
  0
LINE
  5
14F
  8
0
  6
SLD-実線
 62
     7
 10
80.74
 20
149.3522222222
 30
0.0
 11
80.7262511942
 21
149.3541317786
 31
0.0
  0
LINE
  5
150
  8
0
  6
SLD-実線
 62
     7
 10
80.7262511942
 20
149.3541317786
 30
0.0
 11
80.74
 21
149.3541317786
 31
0.0
  0
LINE
  5
151
  8
0
  6
SLD-実線
 62
     7
 10
80.86
 20
149.3541317786
 30
0.0
 11
80.8737488058
 21
149.3541317786
 31
0.0
  0
LINE
  5
152
  8
0
  6
SLD-実線
 62
     7
 10
80.46
 20
149.3522222222
 30
0.0
 11
80.4737488058
 21
149.3541317786
 31
0.0
  0
LINE
  5
153
  8
0
  6
SLD-実線
 62
     7
 10
80.34
 20
149.3522222222
 30
0.0
 11
80.3262511942
 21
149.3541317786
 31
0.0
  0
LINE
  5
154
  8
0
  6
SLD-実線
 62
     7
 10
80.3262511942
 20
149.3541317786
 30
0.0
 11
80.34
 21
149.3541317786
 31
0.0
  0
LINE
  5
155
  8
0
  6
SLD-実線
 62
     7
 10
80.46
 20
149.3541317786
 30
0.0
 11
80.4737488058
 21
149.3541317786
 31
0.0
  0
LINE
  5
156
  8
0
  6
SLD-実線
 62
     7
 10
79.54
 20
150.6477777778
 30
0.0
 11
79.5262511942
 21
150.6458682214
 31
0.0
  0
LINE
  5
157
  8
0
  6
SLD-実線
 62
     7
 10
79.66
 20
150.6477777778
 30
0.0
 11
79.6737488058
 21
150.6458682214
 31
0.0
  0
LINE
  5
158
  8
0
  6
SLD-実線
 62
     7
 10
79.6737488058
 20
150.6458682214
 30
0.0
 11
79.66
 21
150.6458682214
 31
0.0
  0
LINE
  5
159
  8
0
  6
SLD-実線
 62
     7
 10
79.54
 20
150.6458682214
 30
0.0
 11
79.5262511942
 21
150.6458682214
 31
0.0
  0
LINE
  5
15A
  8
0
  6
SLD-実線
 62
     7
 10
79.14
 20
150.6477777778
 30
0.0
 11
79.1262511942
 21
150.6458682214
 31
0.0
  0
LINE
  5
15B
  8
0
  6
SLD-実線
 62
     7
 10
79.26
 20
150.6477777778
 30
0.0
 11
79.2737488058
 21
150.6458682214
 31
0.0
  0
LINE
  5
15C
  8
0
  6
SLD-実線
 62
     7
 10
79.2737488058
 20
150.6458682214
 30
0.0
 11
79.26
 21
150.6458682214
 31
0.0
  0
LINE
  5
15D
  8
0
  6
SLD-実線
 62
     7
 10
79.14
 20
150.6458682214
 30
0.0
 11
79.1262511942
 21
150.6458682214
 31
0.0
  0
LINE
  5
15E
  8
0
  6
SLD-実線
 62
     7
 10
79.26
 20
149.3522222222
 30
0.0
 11
79.2737488058
 21
149.3541317786
 31
0.0
  0
LINE
  5
15F
  8
0
  6
SLD-実線
 62
     7
 10
79.14
 20
149.3522222222
 30
0.0
 11
79.1262511942
 21
149.3541317786
 31
0.0
  0
LINE
  5
160
  8
0
  6
SLD-実線
 62
     7
 10
79.1262511942
 20
149.3541317786
 30
0.0
 11
79.14
 21
149.3541317786
 31
0.0
  0
LINE
  5
161
  8
0
  6
SLD-実線
 62
     7
 10
79.26
 20
149.3541317786
 30
0.0
 11
79.2737488058
 21
149.3541317786
 31
0.0
  0
LINE
  5
162
  8
0
  6
SLD-実線
 62
     7
 10
79.94
 20
150.6477777778
 30
0.0
 11
79.9262511942
 21
150.6458682214
 31
0.0
  0
LINE
  5
163
  8
0
  6
SLD-実線
 62
     7
 10
80.06
 20
150.6477777778
 30
0.0
 11
80.0737488058
 21
150.6458682214
 31
0.0
  0
LINE
  5
164
  8
0
  6
SLD-実線
 62
     7
 10
80.0737488058
 20
150.6458682214
 30
0.0
 11
80.06
 21
150.6458682214
 31
0.0
  0
LINE
  5
165
  8
0
  6
SLD-実線
 62
     7
 10
79.94
 20
150.6458682214
 30
0.0
 11
79.9262511942
 21
150.6458682214
 31
0.0
  0
LINE
  5
166
  8
0
  6
SLD-実線
 62
     7
 10
79.66
 20
149.3522222222
 30
0.0
 11
79.6737488058
 21
149.3541317786
 31
0.0
  0
LINE
  5
167
  8
0
  6
SLD-実線
 62
     7
 10
79.54
 20
149.3522222222
 30
0.0
 11
79.5262511942
 21
149.3541317786
 31
0.0
  0
LINE
  5
168
  8
0
  6
SLD-実線
 62
     7
 10
79.5262511942
 20
149.3541317786
 30
0.0
 11
79.54
 21
149.3541317786
 31
0.0
  0
LINE
  5
169
  8
0
  6
SLD-実線
 62
     7
 10
79.66
 20
149.3541317786
 30
0.0
 11
79.6737488058
 21
149.3541317786
 31
0.0
  0
LINE
  5
16A
  8
0
  6
SLD-実線
 62
     7
 10
80.34
 20
150.6477777778
 30
0.0
 11
80.3262511942
 21
150.6458682214
 31
0.0
  0
LINE
  5
16B
  8
0
  6
SLD-実線
 62
     7
 10
80.46
 20
150.6477777778
 30
0.0
 11
80.4737488058
 21
150.6458682214
 31
0.0
  0
LINE
  5
16C
  8
0
  6
SLD-実線
 62
     7
 10
80.4737488058
 20
150.6458682214
 30
0.0
 11
80.46
 21
150.6458682214
 31
0.0
  0
LINE
  5
16D
  8
0
  6
SLD-実線
 62
     7
 10
80.34
 20
150.6458682214
 30
0.0
 11
80.3262511942
 21
150.6458682214
 31
0.0
  0
LINE
  5
16E
  8
0
  6
SLD-実線
 62
     7
 10
80.74
 20
150.6477777778
 30
0.0
 11
80.7262511942
 21
150.6458682214
 31
0.0
  0
LINE
  5
16F
  8
0
  6
SLD-実線
 62
     7
 10
80.86
 20
150.6477777778
 30
0.0
 11
80.8737488058
 21
150.6458682214
 31
0.0
  0
LINE
  5
170
  8
0
  6
SLD-実線
 62
     7
 10
80.8737488058
 20
150.6458682214
 30
0.0
 11
80.86
 21
150.6458682214
 31
0.0
  0
LINE
  5
171
  8
0
  6
SLD-実線
 62
     7
 10
80.74
 20
150.6458682214
 30
0.0
 11
80.7262511942
 21
150.6458682214
 31
0.0
  0
LINE
  5
172
  8
0
  6
SLD-実線
 62
     7
 10
78.8124515888
 20
150.365
 30
0.0
 11
78.7059306079
 21
150.365
 31
0.0
  0
LINE
  5
173
  8
0
  6
SLD-実線
 62
     7
 10
78.8124515888
 20
149.635
 30
0.0
 11
78.7059306079
 21
149.635
 31
0.0
  0
LINE
  5
174
  8
0
  6
SLD-実線
 62
     7
 10
81.1875484112
 20
149.635
 30
0.0
 11
81.2940693921
 21
149.635
 31
0.0
  0
LINE
  5
175
  8
0
  6
SLD-実線
 62
     7
 10
81.1875484112
 20
150.365
 30
0.0
 11
81.2940693921
 21
150.365
 31
0.0
  0
LINE
  5
176
  8
0
  6
SLD-実線
 62
     7
 10
78.7
 20
149.775
 30
0.0
 11
78.8
 21
149.775
 31
0.0
  0
LINE
  5
177
  8
0
  6
SLD-実線
 62
     7
 10
78.7
 20
150.225
 30
0.0
 11
78.8
 21
150.225
 31
0.0
  0
LINE
  5
178
  8
0
  6
SLD-実線
 62
     7
 10
81.3
 20
150.225
 30
0.0
 11
81.2
 21
150.225
 31
0.0
  0
LINE
  5
179
  8
0
  6
SLD-実線
 62
     7
 10
81.3
 20
149.775
 30
0.0
 11
81.2
 21
149.775
 31
0.0
  0
LINE
  5
17A
  8
0
  6
SLD-実線
 62
     7
 10
78.1763157895
 20
149.775
 30
0.0
 11
78.2441186649
 21
149.775
 31
0.0
  0
LINE
  5
17B
  8
0
  6
SLD-実線
 62
     7
 10
78.1704344544
 20
149.635
 30
0.0
 11
78.1026315789
 21
149.635
 31
0.0
  0
LINE
  5
17C
  8
0
  6
SLD-実線
 62
     7
 10
78.1763157895
 20
150.225
 30
0.0
 11
78.2441186649
 21
150.225
 31
0.0
  0
LINE
  5
17D
  8
0
  6
SLD-実線
 62
     7
 10
78.1704344544
 20
150.365
 30
0.0
 11
78.1026315789
 21
150.365
 31
0.0
  0
LINE
  5
17E
  8
0
  6
SLD-実線
 62
     7
 10
81.8236842105
 20
150.225
 30
0.0
 11
81.7558813351
 21
150.225
 31
0.0
  0
LINE
  5
17F
  8
0
  6
SLD-実線
 62
     7
 10
81.8295655456
 20
150.365
 30
0.0
 11
81.8973684211
 21
150.365
 31
0.0
  0
LINE
  5
180
  8
0
  6
SLD-実線
 62
     7
 10
81.8236842105
 20
149.775
 30
0.0
 11
81.7558813351
 21
149.775
 31
0.0
  0
LINE
  5
181
  8
0
  6
SLD-実線
 62
     7
 10
81.8295655456
 20
149.635
 30
0.0
 11
81.8973684211
 21
149.635
 31
0.0
  0
ARC
  5
182
  8
0
  6
SLD-実線
 62
     7
 10
78.9176551098
 20
149.8980102912
 30
0.0
 40
0.3522741057771528
 50
111.8401722785
 51
128.1598277215
  0
ARC
  5
183
  8
0
  6
SLD-実線
 62
     7
 10
78.9176551098
 20
150.1019897088
 30
0.0
 40
0.3522741057852988
 50
231.8401722787
 51
248.1598277213
  0
ARC
  5
184
  8
0
  6
SLD-実線
 62
     7
 10
81.0826180642
 20
150.1015165574
 30
0.0
 40
0.3517332974691983
 50
291.8275404022
 51
308.1724595978
  0
ARC
  5
185
  8
0
  6
SLD-実線
 62
     7
 10
81.0826180642
 20
149.8984834426
 30
0.0
 40
0.3517332974680346
 50
51.8275404022
 51
68.1724595978
  0
LINE
  5
186
  8
0
  6
SLD-実線
 62
     7
 10
78.77
 20
150.5619415628
 30
0.0
 11
78.77
 21
150.661922345
 31
0.0
  0
ARC
  5
187
  8
0
  6
SLD-実線
 62
     7
 10
78.6029738453
 20
150.5491880477
 30
0.0
 40
0.1675123532640372
 50
4.3664264731
 51
37.0002147883
  0
LINE
  5
188
  8
0
  6
SLD-実線
 62
     7
 10
78.73
 20
150.6609366302
 30
0.0
 11
78.7367547811
 21
150.65
 31
0.0
  0
LINE
  5
189
  8
0
  6
SLD-実線
 62
     7
 10
78.73
 20
150.7019146578
 30
0.0
 11
78.73
 21
150.6609366302
 31
0.0
  0
LINE
  5
18A
  8
0
  6
SLD-実線
 62
     7
 10
78.73
 20
149.3390633698
 30
0.0
 11
78.7367547811
 21
149.35
 31
0.0
  0
ARC
  5
18B
  8
0
  6
SLD-実線
 62
     7
 10
78.6029738453
 20
149.4508119523
 30
0.0
 40
0.1675123532635333
 50
322.9997852116
 51
355.633573527
  0
LINE
  5
18C
  8
0
  6
SLD-実線
 62
     7
 10
78.77
 20
149.4380584372
 30
0.0
 11
78.77
 21
149.338077655
 31
0.0
  0
LINE
  5
18D
  8
0
  6
SLD-実線
 62
     7
 10
78.73
 20
149.2980853422
 30
0.0
 11
78.73
 21
149.3390633698
 31
0.0
  0
ARC
  5
18E
  8
0
  6
SLD-実線
 62
     7
 10
80.8412541893
 20
150.6278289309
 30
0.0
 40
0.0371660611569308
 50
29.0367155431
 51
59.7098089627
  0
LINE
  5
18F
  8
0
  6
SLD-実線
 62
     7
 10
81.23
 20
150.5619415628
 30
0.0
 11
81.23
 21
150.661922345
 31
0.0
  0
ARC
  5
190
  8
0
  6
SLD-実線
 62
     7
 10
79.1587458107
 20
150.6278289309
 30
0.0
 40
0.0371660611573626
 50
120.2901910376
 51
150.9632844568
  0
ARC
  5
191
  8
0
  6
SLD-実線
 62
     7
 10
79.2412541893
 20
150.6278289309
 30
0.0
 40
0.0371660611572517
 50
29.0367155432
 51
59.7098089626
  0
ARC
  5
192
  8
0
  6
SLD-実線
 62
     7
 10
79.5587458107
 20
150.6278289309
 30
0.0
 40
0.0371660611571993
 50
120.2901910374
 51
150.9632844569
  0
ARC
  5
193
  8
0
  6
SLD-実線
 62
     7
 10
79.6412541893
 20
150.6278289309
 30
0.0
 40
0.037166061157249
 50
29.0367155432
 51
59.7098089626
  0
ARC
  5
194
  8
0
  6
SLD-実線
 62
     7
 10
79.9587458107
 20
150.6278289309
 30
0.0
 40
0.0371660611573414
 50
120.2901910375
 51
150.9632844568
  0
ARC
  5
195
  8
0
  6
SLD-実線
 62
     7
 10
80.0412541893
 20
150.6278289309
 30
0.0
 40
0.037166061157249
 50
29.0367155432
 51
59.7098089626
  0
ARC
  5
196
  8
0
  6
SLD-実線
 62
     7
 10
80.3587458107
 20
150.6278289309
 30
0.0
 40
0.0371660611573663
 50
120.2901910376
 51
150.9632844568
  0
ARC
  5
197
  8
0
  6
SLD-実線
 62
     7
 10
80.4412541893
 20
150.6278289309
 30
0.0
 40
0.037166061157289
 50
29.0367155431
 51
59.7098089625
  0
ARC
  5
198
  8
0
  6
SLD-実線
 62
     7
 10
80.7587458107
 20
150.6278289309
 30
0.0
 40
0.0371660611568391
 50
120.2901910373
 51
150.963284457
  0
ARC
  5
199
  8
0
  6
SLD-実線
 62
     7
 10
80.7587458107
 20
149.3721710691
 30
0.0
 40
0.0371660611579335
 50
209.0367155434
 51
239.7098089623
  0
ARC
  5
19A
  8
0
  6
SLD-実線
 62
     7
 10
80.4412541893
 20
149.3721710691
 30
0.0
 40
0.0371660611580163
 50
300.2901910378
 51
330.9632844565
  0
ARC
  5
19B
  8
0
  6
SLD-実線
 62
     7
 10
80.3587458107
 20
149.3721710691
 30
0.0
 40
0.0371660611579242
 50
209.0367155435
 51
239.7098089623
  0
ARC
  5
19C
  8
0
  6
SLD-実線
 62
     7
 10
80.0412541893
 20
149.3721710691
 30
0.0
 40
0.0371660611579242
 50
300.2901910377
 51
330.9632844565
  0
ARC
  5
19D
  8
0
  6
SLD-実線
 62
     7
 10
79.9587458107
 20
149.3721710691
 30
0.0
 40
0.0371660611579211
 50
209.0367155435
 51
239.7098089623
  0
ARC
  5
19E
  8
0
  6
SLD-実線
 62
     7
 10
79.6412541893
 20
149.3721710691
 30
0.0
 40
0.0371660611580623
 50
300.2901910379
 51
330.9632844565
  0
ARC
  5
19F
  8
0
  6
SLD-実線
 62
     7
 10
79.5587458107
 20
149.3721710691
 30
0.0
 40
0.0371660611578949
 50
209.0367155434
 51
239.7098089623
  0
ARC
  5
1A0
  8
0
  6
SLD-実線
 62
     7
 10
79.2412541893
 20
149.3721710691
 30
0.0
 40
0.0371660611576382
 50
300.2901910376
 51
330.9632844567
  0
ARC
  5
1A1
  8
0
  6
SLD-実線
 62
     7
 10
79.1587458107
 20
149.3721710691
 30
0.0
 40
0.0371660611577974
 50
209.0367155434
 51
239.7098089622
  0
LINE
  5
1A2
  8
0
  6
SLD-実線
 62
     7
 10
81.23
 20
149.4380584372
 30
0.0
 11
81.23
 21
149.338077655
 31
0.0
  0
ARC
  5
1A3
  8
0
  6
SLD-実線
 62
     7
 10
80.8412541893
 20
149.3721710691
 30
0.0
 40
0.0371660611578949
 50
300.2901910378
 51
330.9632844566
  0
ARC
  5
1A4
  8
0
  6
SLD-実線
 62
     7
 10
79.2102115094
 20
149.8151175949
 30
0.0
 40
0.4552334005399495
 50
210.3641276754
 51
227.0441985666
  0
ARC
  5
1A5
  8
0
  6
SLD-実線
 62
     7
 10
78.8818537107
 20
149.6231615446
 30
0.0
 40
0.0748846220942511
 50
170.9039918765
 51
210.6374929951
  0
ARC
  5
1A6
  8
0
  6
SLD-実線
 62
     7
 10
78.8818537107
 20
150.3768384554
 30
0.0
 40
0.074884622093963
 50
149.3625070048
 51
189.0960081235
  0
ARC
  5
1A7
  8
0
  6
SLD-実線
 62
     7
 10
79.2102115095
 20
150.1848824051
 30
0.0
 40
0.4552334005578669
 50
132.9558014337
 51
149.6358723243
  0
LINE
  5
1A8
  8
0
  6
SLD-実線
 62
     7
 10
81.27
 20
150.6609366302
 30
0.0
 11
81.2632452189
 21
150.65
 31
0.0
  0
ARC
  5
1A9
  8
0
  6
SLD-実線
 62
     7
 10
81.3970261547
 20
150.5491880477
 30
0.0
 40
0.1675123532638157
 50
142.9997852117
 51
175.6335735269
  0
LINE
  5
1AA
  8
0
  6
SLD-実線
 62
     7
 10
81.27
 20
150.7019146578
 30
0.0
 11
81.27
 21
150.6609366302
 31
0.0
  0
ARC
  5
1AB
  8
0
  6
SLD-実線
 62
     7
 10
81.1181462893
 20
149.6231615446
 30
0.0
 40
0.0748846220940591
 50
329.3625070049
 51
9.0960081235
  0
ARC
  5
1AC
  8
0
  6
SLD-実線
 62
     7
 10
80.7897884906
 20
149.8151175949
 30
0.0
 40
0.4552334005391393
 50
312.9558014334
 51
329.6358723247
  0
ARC
  5
1AD
  8
0
  6
SLD-実線
 62
     7
 10
81.3970261547
 20
149.4508119523
 30
0.0
 40
0.1675123532637665
 50
184.3664264731
 51
217.0002147883
  0
LINE
  5
1AE
  8
0
  6
SLD-実線
 62
     7
 10
81.27
 20
149.3390633698
 30
0.0
 11
81.2632452189
 21
149.35
 31
0.0
  0
LINE
  5
1AF
  8
0
  6
SLD-実線
 62
     7
 10
81.27
 20
149.2980853422
 30
0.0
 11
81.27
 21
149.3390633698
 31
0.0
  0
ARC
  5
1B0
  8
0
  6
SLD-実線
 62
     7
 10
80.7897884905
 20
150.1848824051
 30
0.0
 40
0.4552334005573144
 50
30.3641276757
 51
47.0441985663
  0
ARC
  5
1B1
  8
0
  6
SLD-実線
 62
     7
 10
81.1181462893
 20
150.3768384554
 30
0.0
 40
0.0748846220941509
 50
350.9039918765
 51
30.6374929951
  0
LINE
  5
1B2
  8
0
  6
SLD-実線
 62
     7
 10
78.7
 20
150.225
 30
0.0
 11
78.2441186649
 21
150.225
 31
0.0
  0
LINE
  5
1B3
  8
0
  6
SLD-実線
 62
     7
 10
78.7059306079
 20
150.365
 30
0.0
 11
78.1704344544
 21
150.365
 31
0.0
  0
LINE
  5
1B4
  8
0
  6
SLD-実線
 62
     7
 10
78.7
 20
149.775
 30
0.0
 11
78.2441186649
 21
149.775
 31
0.0
  0
LINE
  5
1B5
  8
0
  6
SLD-実線
 62
     7
 10
78.7059306079
 20
149.635
 30
0.0
 11
78.1704344544
 21
149.635
 31
0.0
  0
LINE
  5
1B6
  8
0
  6
SLD-実線
 62
     7
 10
81.3
 20
149.775
 30
0.0
 11
81.7558813351
 21
149.775
 31
0.0
  0
LINE
  5
1B7
  8
0
  6
SLD-実線
 62
     7
 10
81.2940693921
 20
149.635
 30
0.0
 11
81.8295655456
 21
149.635
 31
0.0
  0
LINE
  5
1B8
  8
0
  6
SLD-実線
 62
     7
 10
81.3
 20
150.225
 30
0.0
 11
81.7558813351
 21
150.225
 31
0.0
  0
LINE
  5
1B9
  8
0
  6
SLD-実線
 62
     7
 10
81.2940693921
 20
150.365
 30
0.0
 11
81.8295655456
 21
150.365
 31
0.0
  0
LINE
  5
1BA
  8
0
  6
SLD-実線
 62
     7
 10
78.2428798927
 20
149.8094047621
 30
0.0
 11
78.2
 21
149.82
 31
0.0
  0
ARC
  5
1BB
  8
0
  6
SLD-実線
 62
     7
 10
77.9362802642
 20
150.3143700608
 30
0.0
 40
0.5907565362753835
 50
294.0745003351
 51
301.2648553933
  0
ARC
  5
1BC
  8
0
  6
SLD-実線
 62
     7
 10
77.6865049499
 20
150.9073591004
 30
0.0
 40
0.6830922677076388
 50
307.5047009614
 51
313.881101185
  0
ARC
  5
1BD
  8
0
  6
SLD-実線
 62
     7
 10
77.9362802642
 20
149.6856299392
 30
0.0
 40
0.5907565362731372
 50
58.7351446067
 51
65.9254996649
  0
LINE
  5
1BE
  8
0
  6
SLD-実線
 62
     7
 10
78.2428798927
 20
150.1905952379
 30
0.0
 11
78.2
 21
150.18
 31
0.0
  0
ARC
  5
1BF
  8
0
  6
SLD-実線
 62
     7
 10
77.6865049499
 20
149.0926408996
 30
0.0
 40
0.6830922677132523
 50
46.118898815
 51
52.4952990386
  0
POLYLINE
  5
1C0
  8
0
  6
SLD-実線
 62
     7
 66
     1
 10
0.0
 20
0.0
 30
0.0
  0
VERTEX
  5
2B3
  8
0
  6
SLD-実線
 62
     7
 10
78.2428798927
 20
150.1905952379
 30
0.0
  0
VERTEX
  5
2B4
  8
0
  6
SLD-実線
 62
     7
 10
78.2588558402
 20
150.1760444608
 30
0.0
  0
VERTEX
  5
2B5
  8
0
  6
SLD-実線
 62
     7
 10
78.26
 20
150.175
 30
0.0
  0
SEQEND
  5
303
  8
0
  6
SLD-実線
 62
     7
  0
POLYLINE
  5
1C1
  8
0
  6
SLD-実線
 62
     7
 66
     1
 10
0.0
 20
0.0
 30
0.0
  0
VERTEX
  5
2B6
  8
0
  6
SLD-実線
 62
     7
 10
78.2428798927
 20
149.8094047621
 30
0.0
  0
VERTEX
  5
2B7
  8
0
  6
SLD-実線
 62
     7
 10
78.2588558402
 20
149.8239555392
 30
0.0
  0
VERTEX
  5
2B8
  8
0
  6
SLD-実線
 62
     7
 10
78.26
 20
149.825
 30
0.0
  0
SEQEND
  5
302
  8
0
  6
SLD-実線
 62
     7
  0
ARC
  5
1C2
  8
0
  6
SLD-実線
 62
     7
 10
82.3134950501
 20
149.0926408996
 30
0.0
 40
0.6830922677076494
 50
127.5047009614
 51
133.881101185
  0
ARC
  5
1C3
  8
0
  6
SLD-実線
 62
     7
 10
82.0638262511
 20
150.3145732036
 30
0.0
 40
0.5909854592141218
 50
238.736539057
 51
245.9241052147
  0
LINE
  5
1C4
  8
0
  6
SLD-実線
 62
     7
 10
81.7571201073
 20
149.8094047621
 30
0.0
 11
81.8
 21
149.82
 31
0.0
  0
POLYLINE
  5
1C5
  8
0
  6
SLD-実線
 62
     7
 66
     1
 10
0.0
 20
0.0
 30
0.0
  0
VERTEX
  5
2B9
  8
0
  6
SLD-実線
 62
     7
 10
81.7571201073
 20
149.8094047621
 30
0.0
  0
VERTEX
  5
2BA
  8
0
  6
SLD-実線
 62
     7
 10
81.7411441598
 20
149.8239555392
 30
0.0
  0
VERTEX
  5
2BB
  8
0
  6
SLD-実線
 62
     7
 10
81.74
 20
149.825
 30
0.0
  0
SEQEND
  5
301
  8
0
  6
SLD-実線
 62
     7
  0
POLYLINE
  5
1C6
  8
0
  6
SLD-実線
 62
     7
 66
     1
 10
0.0
 20
0.0
 30
0.0
  0
VERTEX
  5
2BC
  8
0
  6
SLD-実線
 62
     7
 10
81.7571201073
 20
150.1905952379
 30
0.0
  0
VERTEX
  5
2BD
  8
0
  6
SLD-実線
 62
     7
 10
81.7411441598
 20
150.1760444608
 30
0.0
  0
VERTEX
  5
2BE
  8
0
  6
SLD-実線
 62
     7
 10
81.74
 20
150.175
 30
0.0
  0
SEQEND
  5
300
  8
0
  6
SLD-実線
 62
     7
  0
LINE
  5
1C7
  8
0
  6
SLD-実線
 62
     7
 10
81.7571201073
 20
150.1905952379
 30
0.0
 11
81.8
 21
150.18
 31
0.0
  0
ARC
  5
1C8
  8
0
  6
SLD-実線
 62
     7
 10
82.3134950501
 20
150.9073591004
 30
0.0
 40
0.6830922677132212
 50
226.118898815
 51
232.4952990386
  0
ARC
  5
1C9
  8
0
  6
SLD-実線
 62
     7
 10
82.0638262511
 20
149.6854267964
 30
0.0
 40
0.5909854591879786
 50
114.0758947852
 51
121.2634609432
  0
LINE
  5
1CA
  8
0
  6
SLD-実線
 62
     7
 10
78.45
 20
151.25
 30
0.0
 11
78.15
 21
151.25
 31
0.0
  0
LINE
  5
1CB
  8
0
  6
SLD-実線
 62
     7
 10
78.45
 20
151.04
 30
0.0
 11
78.45
 21
151.25
 31
0.0
  0
LINE
  5
1CC
  8
0
  6
SLD-実線
 62
     7
 10
78.15
 20
151.25
 30
0.0
 11
78.15
 21
151.04
 31
0.0
  0
LINE
  5
1CD
  8
0
  6
SLD-実線
 62
     7
 10
78.15
 20
148.75
 30
0.0
 11
78.15
 21
148.96
 31
0.0
  0
LINE
  5
1CE
  8
0
  6
SLD-実線
 62
     7
 10
78.45
 20
148.96
 30
0.0
 11
78.45
 21
148.75
 31
0.0
  0
LINE
  5
1CF
  8
0
  6
SLD-実線
 62
     7
 10
78.45
 20
148.75
 30
0.0
 11
78.15
 21
148.75
 31
0.0
  0
LINE
  5
1D0
  8
0
  6
SLD-実線
 62
     7
 10
79.275
 20
148.75
 30
0.0
 11
79.125
 21
148.75
 31
0.0
  0
LINE
  5
1D1
  8
0
  6
SLD-実線
 62
     7
 10
79.275
 20
148.75
 30
0.0
 11
79.275
 21
148.9
 31
0.0
  0
LINE
  5
1D2
  8
0
  6
SLD-実線
 62
     7
 10
79.125
 20
148.75
 30
0.0
 11
79.125
 21
148.9
 31
0.0
  0
LINE
  5
1D3
  8
0
  6
SLD-実線
 62
     7
 10
79.125
 20
151.25
 30
0.0
 11
79.275
 21
151.25
 31
0.0
  0
LINE
  5
1D4
  8
0
  6
SLD-実線
 62
     7
 10
79.275
 20
151.25
 30
0.0
 11
79.275
 21
151.1
 31
0.0
  0
LINE
  5
1D5
  8
0
  6
SLD-実線
 62
     7
 10
79.125
 20
151.25
 30
0.0
 11
79.125
 21
151.1
 31
0.0
  0
LINE
  5
1D6
  8
0
  6
SLD-実線
 62
     7
 10
79.675
 20
148.75
 30
0.0
 11
79.525
 21
148.75
 31
0.0
  0
LINE
  5
1D7
  8
0
  6
SLD-実線
 62
     7
 10
79.525
 20
148.75
 30
0.0
 11
79.525
 21
148.9
 31
0.0
  0
LINE
  5
1D8
  8
0
  6
SLD-実線
 62
     7
 10
79.675
 20
148.75
 30
0.0
 11
79.675
 21
148.9
 31
0.0
  0
LINE
  5
1D9
  8
0
  6
SLD-実線
 62
     7
 10
79.525
 20
151.25
 30
0.0
 11
79.675
 21
151.25
 31
0.0
  0
LINE
  5
1DA
  8
0
  6
SLD-実線
 62
     7
 10
79.525
 20
151.25
 30
0.0
 11
79.525
 21
151.1
 31
0.0
  0
LINE
  5
1DB
  8
0
  6
SLD-実線
 62
     7
 10
79.675
 20
151.25
 30
0.0
 11
79.675
 21
151.1
 31
0.0
  0
LINE
  5
1DC
  8
0
  6
SLD-実線
 62
     7
 10
80.075
 20
148.75
 30
0.0
 11
79.925
 21
148.75
 31
0.0
  0
LINE
  5
1DD
  8
0
  6
SLD-実線
 62
     7
 10
79.925
 20
148.75
 30
0.0
 11
79.925
 21
148.9
 31
0.0
  0
LINE
  5
1DE
  8
0
  6
SLD-実線
 62
     7
 10
80.075
 20
148.75
 30
0.0
 11
80.075
 21
148.9
 31
0.0
  0
LINE
  5
1DF
  8
0
  6
SLD-実線
 62
     7
 10
79.925
 20
151.25
 30
0.0
 11
80.075
 21
151.25
 31
0.0
  0
LINE
  5
1E0
  8
0
  6
SLD-実線
 62
     7
 10
80.075
 20
151.25
 30
0.0
 11
80.075
 21
151.1
 31
0.0
  0
LINE
  5
1E1
  8
0
  6
SLD-実線
 62
     7
 10
79.925
 20
151.25
 30
0.0
 11
79.925
 21
151.1
 31
0.0
  0
LINE
  5
1E2
  8
0
  6
SLD-実線
 62
     7
 10
80.475
 20
148.75
 30
0.0
 11
80.325
 21
148.75
 31
0.0
  0
LINE
  5
1E3
  8
0
  6
SLD-実線
 62
     7
 10
80.325
 20
148.75
 30
0.0
 11
80.325
 21
148.9
 31
0.0
  0
LINE
  5
1E4
  8
0
  6
SLD-実線
 62
     7
 10
80.475
 20
148.75
 30
0.0
 11
80.475
 21
148.9
 31
0.0
  0
LINE
  5
1E5
  8
0
  6
SLD-実線
 62
     7
 10
80.325
 20
151.25
 30
0.0
 11
80.475
 21
151.25
 31
0.0
  0
LINE
  5
1E6
  8
0
  6
SLD-実線
 62
     7
 10
80.325
 20
151.25
 30
0.0
 11
80.325
 21
151.1
 31
0.0
  0
LINE
  5
1E7
  8
0
  6
SLD-実線
 62
     7
 10
80.475
 20
151.25
 30
0.0
 11
80.475
 21
151.1
 31
0.0
  0
LINE
  5
1E8
  8
0
  6
SLD-実線
 62
     7
 10
80.875
 20
148.75
 30
0.0
 11
80.725
 21
148.75
 31
0.0
  0
LINE
  5
1E9
  8
0
  6
SLD-実線
 62
     7
 10
80.875
 20
148.75
 30
0.0
 11
80.875
 21
148.9
 31
0.0
  0
LINE
  5
1EA
  8
0
  6
SLD-実線
 62
     7
 10
80.725
 20
148.75
 30
0.0
 11
80.725
 21
148.9
 31
0.0
  0
LINE
  5
1EB
  8
0
  6
SLD-実線
 62
     7
 10
80.725
 20
151.25
 30
0.0
 11
80.875
 21
151.25
 31
0.0
  0
LINE
  5
1EC
  8
0
  6
SLD-実線
 62
     7
 10
80.875
 20
151.25
 30
0.0
 11
80.875
 21
151.1
 31
0.0
  0
LINE
  5
1ED
  8
0
  6
SLD-実線
 62
     7
 10
80.725
 20
151.25
 30
0.0
 11
80.725
 21
151.1
 31
0.0
  0
LINE
  5
1EE
  8
0
  6
SLD-実線
 62
     7
 10
81.55
 20
148.75
 30
0.0
 11
81.85
 21
148.75
 31
0.0
  0
LINE
  5
1EF
  8
0
  6
SLD-実線
 62
     7
 10
81.85
 20
148.75
 30
0.0
 11
81.85
 21
148.96
 31
0.0
  0
LINE
  5
1F0
  8
0
  6
SLD-実線
 62
     7
 10
81.55
 20
148.96
 30
0.0
 11
81.55
 21
148.75
 31
0.0
  0
LINE
  5
1F1
  8
0
  6
SLD-実線
 62
     7
 10
81.55
 20
151.25
 30
0.0
 11
81.85
 21
151.25
 31
0.0
  0
LINE
  5
1F2
  8
0
  6
SLD-実線
 62
     7
 10
81.85
 20
151.25
 30
0.0
 11
81.85
 21
151.04
 31
0.0
  0
LINE
  5
1F3
  8
0
  6
SLD-実線
 62
     7
 10
81.55
 20
151.04
 30
0.0
 11
81.55
 21
151.25
 31
0.0
  0
LINE
  5
1F4
  8
0
  6
SLD-実線
 62
     7
 10
139.615
 20
151.04
 30
0.0
 11
140.3116025404
 21
151.04
 31
0.0
  0
POLYLINE
  5
1F5
  8
0
  6
SLD-実線
 62
     7
 66
     1
 10
0.0
 20
0.0
 30
0.0
  0
VERTEX
  5
2BF
  8
0
  6
SLD-実線
 62
     7
 10
140.3116025404
 20
151.04
 30
0.0
  0
VERTEX
  5
2C0
  8
0
  6
SLD-実線
 62
     7
 10
140.2961448719
 20
151.0388688312
 30
0.0
  0
VERTEX
  5
2C1
  8
0
  6
SLD-実線
 62
     7
 10
140.2790941338
 20
151.0361968783
 30
0.0
  0
VERTEX
  5
2C2
  8
0
  6
SLD-実線
 62
     7
 10
140.2603283115
 20
151.0330269529
 30
0.0
  0
VERTEX
  5
2C3
  8
0
  6
SLD-実線
 62
     7
 10
140.2403197051
 20
151.0306169434
 30
0.0
  0
VERTEX
  5
2C4
  8
0
  6
SLD-実線
 62
     7
 10
140.225
 20
151.03
 30
0.0
  0
SEQEND
  5
2FF
  8
0
  6
SLD-実線
 62
     7
  0
LINE
  5
1F6
  8
0
  6
SLD-実線
 62
     7
 10
140.225
 20
151.03
 30
0.0
 11
140.145
 21
151.03
 31
0.0
  0
LINE
  5
1F7
  8
0
  6
SLD-実線
 62
     7
 10
139.615
 20
150.99
 30
0.0
 11
139.615
 21
151.04
 31
0.0
  0
LINE
  5
1F8
  8
0
  6
SLD-実線
 62
     7
 10
140.145
 20
151.03
 30
0.0
 11
140.145
 21
150.99
 31
0.0
  0
LINE
  5
1F9
  8
0
  6
SLD-実線
 62
     7
 10
140.225
 20
148.97
 30
0.0
 11
140.145
 21
148.97
 31
0.0
  0
POLYLINE
  5
1FA
  8
0
  6
SLD-実線
 62
     7
 66
     1
 10
0.0
 20
0.0
 30
0.0
  0
VERTEX
  5
2C5
  8
0
  6
SLD-実線
 62
     7
 10
140.3116025404
 20
148.96
 30
0.0
  0
VERTEX
  5
2C6
  8
0
  6
SLD-実線
 62
     7
 10
140.2961448719
 20
148.9611311688
 30
0.0
  0
VERTEX
  5
2C7
  8
0
  6
SLD-実線
 62
     7
 10
140.2790941338
 20
148.9638031217
 30
0.0
  0
VERTEX
  5
2C8
  8
0
  6
SLD-実線
 62
     7
 10
140.2603283115
 20
148.9669730471
 30
0.0
  0
VERTEX
  5
2C9
  8
0
  6
SLD-実線
 62
     7
 10
140.2403197051
 20
148.9693830566
 30
0.0
  0
VERTEX
  5
2CA
  8
0
  6
SLD-実線
 62
     7
 10
140.225
 20
148.97
 30
0.0
  0
SEQEND
  5
2FE
  8
0
  6
SLD-実線
 62
     7
  0
LINE
  5
1FB
  8
0
  6
SLD-実線
 62
     7
 10
139.615
 20
148.96
 30
0.0
 11
140.3116025404
 21
148.96
 31
0.0
  0
LINE
  5
1FC
  8
0
  6
SLD-実線
 62
     7
 10
139.615
 20
149.01
 30
0.0
 11
139.615
 21
148.96
 31
0.0
  0
LINE
  5
1FD
  8
0
  6
SLD-実線
 62
     7
 10
140.145
 20
148.97
 30
0.0
 11
140.145
 21
149.01
 31
0.0
  0
LINE
  5
1FE
  8
0
  6
SLD-実線
 62
     7
 10
140.385
 20
150.53
 30
0.0
 11
140.385
 21
150.73
 31
0.0
  0
LINE
  5
1FF
  8
0
  6
SLD-実線
 62
     7
 10
140.385
 20
150.53
 30
0.0
 11
140.225
 21
150.53
 31
0.0
  0
LINE
  5
200
  8
0
  6
SLD-実線
 62
     7
 10
140.225
 20
150.73
 30
0.0
 11
140.385
 21
150.73
 31
0.0
  0
LINE
  5
201
  8
0
  6
SLD-実線
 62
     7
 10
139.645
 20
149.63
 30
0.0
 11
139.645
 21
150.37
 31
0.0
  0
LINE
  5
202
  8
0
  6
SLD-実線
 62
     7
 10
139.645
 20
150.37
 30
0.0
 11
139.615
 21
150.37
 31
0.0
  0
LINE
  5
203
  8
0
  6
SLD-実線
 62
     7
 10
140.225
 20
150.53
 30
0.0
 11
140.145
 21
150.45
 31
0.0
  0
LINE
  5
204
  8
0
  6
SLD-実線
 62
     7
 10
140.145
 20
150.45
 30
0.0
 11
140.145
 21
149.55
 31
0.0
  0
LINE
  5
205
  8
0
  6
SLD-実線
 62
     7
 10
140.225
 20
149.47
 30
0.0
 11
140.145
 21
149.55
 31
0.0
  0
LINE
  5
206
  8
0
  6
SLD-実線
 62
     7
 10
139.645
 20
149.63
 30
0.0
 11
139.615
 21
149.63
 31
0.0
  0
LINE
  5
207
  8
0
  6
SLD-実線
 62
     7
 10
140.145
 20
149.19
 30
0.0
 11
140.225
 21
149.27
 31
0.0
  0
LINE
  5
208
  8
0
  6
SLD-実線
 62
     7
 10
140.145
 20
150.81
 30
0.0
 11
140.225
 21
150.73
 31
0.0
  0
LINE
  5
209
  8
0
  6
SLD-実線
 62
     7
 10
139.615
 20
150.37
 30
0.0
 11
139.615
 21
150.99
 31
0.0
  0
LINE
  5
20A
  8
0
  6
SLD-実線
 62
     7
 10
140.145
 20
150.99
 30
0.0
 11
140.145
 21
150.81
 31
0.0
  0
LINE
  5
20B
  8
0
  6
SLD-実線
 62
     7
 10
139.615
 20
149.63
 30
0.0
 11
139.615
 21
149.01
 31
0.0
  0
LINE
  5
20C
  8
0
  6
SLD-実線
 62
     7
 10
140.145
 20
149.01
 30
0.0
 11
140.145
 21
149.19
 31
0.0
  0
LINE
  5
20D
  8
0
  6
SLD-実線
 62
     7
 10
140.385
 20
149.47
 30
0.0
 11
140.225
 21
149.47
 31
0.0
  0
LINE
  5
20E
  8
0
  6
SLD-実線
 62
     7
 10
140.385
 20
149.47
 30
0.0
 11
140.385
 21
149.27
 31
0.0
  0
LINE
  5
20F
  8
0
  6
SLD-実線
 62
     7
 10
140.225
 20
149.27
 30
0.0
 11
140.385
 21
149.27
 31
0.0
  0
LINE
  5
210
  8
0
  6
SLD-実線
 62
     7
 10
140.3116025404
 20
151.04
 30
0.0
 11
140.315
 21
151.04
 31
0.0
  0
ARC
  5
211
  8
0
  6
SLD-実線
 62
     7
 10
140.3150000001
 20
150.9900000001
 30
0.0
 40
0.0499999998861824
 50
359.9999998695
 51
90.0000001304
  0
LINE
  5
212
  8
0
  6
SLD-実線
 62
     7
 10
140.365
 20
150.99
 30
0.0
 11
140.365
 21
150.73
 31
0.0
  0
LINE
  5
213
  8
0
  6
SLD-実線
 62
     7
 10
140.365
 20
149.01
 30
0.0
 11
140.365
 21
149.27
 31
0.0
  0
ARC
  5
214
  8
0
  6
SLD-実線
 62
     7
 10
140.3150000001
 20
149.0099999999
 30
0.0
 40
0.0499999998862108
 50
269.9999998696
 51
0.0000001304
  0
LINE
  5
215
  8
0
  6
SLD-実線
 62
     7
 10
140.3116025404
 20
148.96
 30
0.0
 11
140.315
 21
148.96
 31
0.0
  0
LINE
  5
216
  8
0
  6
SLD-実線
 62
     7
 10
140.365
 20
149.47
 30
0.0
 11
140.365
 21
150.53
 31
0.0
  0
LINE
  5
217
  8
0
  6
SLD-実線
 62
     7
 10
140.385
 20
149.2465685425
 30
0.0
 11
140.385
 21
149.27
 31
0.0
  0
LINE
  5
218
  8
0
  6
SLD-実線
 62
     7
 10
140.385
 20
150.7534314575
 30
0.0
 11
140.385
 21
150.73
 31
0.0
  0
LINE
  5
219
  8
0
  6
SLD-実線
 62
     7
 10
140.385
 20
149.1234314575
 30
0.0
 11
140.385
 21
149.2465685425
 31
0.0
  0
LINE
  5
21A
  8
0
  6
SLD-実線
 62
     7
 10
140.385
 20
150.8765685425
 30
0.0
 11
140.385
 21
150.7534314575
 31
0.0
  0
LINE
  5
21B
  8
0
  6
SLD-実線
 62
     7
 10
140.385
 20
149.066862915
 30
0.0
 11
140.385
 21
149.1234314575
 31
0.0
  0
LINE
  5
21C
  8
0
  6
SLD-実線
 62
     7
 10
140.385
 20
150.933137085
 30
0.0
 11
140.385
 21
150.8765685425
 31
0.0
  0
LINE
  5
21D
  8
0
  6
SLD-実線
 62
     7
 10
140.305
 20
148.75
 30
0.0
 11
140.385
 21
148.75
 31
0.0
  0
LINE
  5
21E
  8
0
  6
SLD-実線
 62
     7
 10
140.305
 20
148.75
 30
0.0
 11
140.305
 21
148.96
 31
0.0
  0
LINE
  5
21F
  8
0
  6
SLD-実線
 62
     7
 10
140.385
 20
148.75
 30
0.0
 11
140.385
 21
149.066862915
 31
0.0
  0
LINE
  5
220
  8
0
  6
SLD-実線
 62
     7
 10
140.305
 20
151.25
 30
0.0
 11
140.305
 21
151.04
 31
0.0
  0
LINE
  5
221
  8
0
  6
SLD-実線
 62
     7
 10
140.305
 20
151.25
 30
0.0
 11
140.385
 21
151.25
 31
0.0
  0
LINE
  5
222
  8
0
  6
SLD-実線
 62
     7
 10
140.385
 20
151.25
 30
0.0
 11
140.385
 21
150.933137085
 31
0.0
  0
LINE
  5
223
  8
0
  6
SLD-実線
 62
     7
 10
140.365
 20
149.51
 30
0.0
 11
140.385
 21
149.51
 31
0.0
  0
LINE
  5
224
  8
0
  6
SLD-実線
 62
     7
 10
140.385
 20
149.51
 30
0.0
 11
140.385
 21
149.47
 31
0.0
  0
LINE
  5
225
  8
0
  6
SLD-実線
 62
     7
 10
140.385
 20
150.49
 30
0.0
 11
140.385
 21
150.53
 31
0.0
  0
LINE
  5
226
  8
0
  6
SLD-実線
 62
     7
 10
140.365
 20
150.49
 30
0.0
 11
140.385
 21
150.49
 31
0.0
  0
LINE
  5
227
  8
0
  6
SLD-実線
 62
     7
 10
140.385
 20
150.49
 30
0.0
 11
140.385
 21
149.51
 31
0.0
  0
LINE
  5
228
  8
0
  6
SLD-実線
 62
     7
 10
139.725
 20
148.9
 30
0.0
 11
140.305
 21
148.9
 31
0.0
  0
LINE
  5
229
  8
0
  6
SLD-実線
 62
     7
 10
139.725
 20
148.96
 30
0.0
 11
139.725
 21
148.9
 31
0.0
  0
LINE
  5
22A
  8
0
  6
SLD-実線
 62
     7
 10
139.725
 20
151.04
 30
0.0
 11
139.725
 21
151.1
 31
0.0
  0
LINE
  5
22B
  8
0
  6
SLD-実線
 62
     7
 10
139.725
 20
151.1
 30
0.0
 11
140.305
 21
151.1
 31
0.0
  0
LINE
  5
22C
  8
0
  6
SLD-実線
 62
     7
 10
80.325
 20
99.615
 30
0.0
 11
80.325
 21
99.695
 31
0.0
  0
LINE
  5
22D
  8
0
  6
SLD-実線
 62
     7
 10
80.475
 20
99.695
 30
0.0
 11
80.325
 21
99.695
 31
0.0
  0
LINE
  5
22E
  8
0
  6
SLD-実線
 62
     7
 10
80.475
 20
99.615
 30
0.0
 11
80.325
 21
99.615
 31
0.0
  0
LINE
  5
22F
  8
0
  6
SLD-実線
 62
     7
 10
80.475
 20
99.615
 30
0.0
 11
80.475
 21
99.695
 31
0.0
  0
LINE
  5
230
  8
0
  6
SLD-実線
 62
     7
 10
80.875
 20
99.615
 30
0.0
 11
80.875
 21
99.695
 31
0.0
  0
LINE
  5
231
  8
0
  6
SLD-実線
 62
     7
 10
80.875
 20
99.615
 30
0.0
 11
80.725
 21
99.615
 31
0.0
  0
LINE
  5
232
  8
0
  6
SLD-実線
 62
     7
 10
80.875
 20
99.695
 30
0.0
 11
80.725
 21
99.695
 31
0.0
  0
LINE
  5
233
  8
0
  6
SLD-実線
 62
     7
 10
80.725
 20
99.615
 30
0.0
 11
80.725
 21
99.695
 31
0.0
  0
LINE
  5
234
  8
0
  6
SLD-実線
 62
     7
 10
78.45
 20
99.695
 30
0.0
 11
78.15
 21
99.695
 31
0.0
  0
LINE
  5
235
  8
0
  6
SLD-実線
 62
     7
 10
78.45
 20
99.615
 30
0.0
 11
78.15
 21
99.615
 31
0.0
  0
LINE
  5
236
  8
0
  6
SLD-実線
 62
     7
 10
78.45
 20
99.695
 30
0.0
 11
78.45
 21
99.615
 31
0.0
  0
LINE
  5
237
  8
0
  6
SLD-実線
 62
     7
 10
78.15
 20
99.695
 30
0.0
 11
78.15
 21
99.615
 31
0.0
  0
LINE
  5
238
  8
0
  6
SLD-実線
 62
     7
 10
79.275
 20
99.615
 30
0.0
 11
79.125
 21
99.615
 31
0.0
  0
LINE
  5
239
  8
0
  6
SLD-実線
 62
     7
 10
79.125
 20
99.615
 30
0.0
 11
79.125
 21
99.695
 31
0.0
  0
LINE
  5
23A
  8
0
  6
SLD-実線
 62
     7
 10
79.275
 20
99.695
 30
0.0
 11
79.125
 21
99.695
 31
0.0
  0
LINE
  5
23B
  8
0
  6
SLD-実線
 62
     7
 10
79.275
 20
99.615
 30
0.0
 11
79.275
 21
99.695
 31
0.0
  0
LINE
  5
23C
  8
0
  6
SLD-実線
 62
     7
 10
80.075
 20
99.615
 30
0.0
 11
79.925
 21
99.615
 31
0.0
  0
LINE
  5
23D
  8
0
  6
SLD-実線
 62
     7
 10
80.075
 20
99.695
 30
0.0
 11
79.925
 21
99.695
 31
0.0
  0
LINE
  5
23E
  8
0
  6
SLD-実線
 62
     7
 10
80.075
 20
99.615
 30
0.0
 11
80.075
 21
99.695
 31
0.0
  0
LINE
  5
23F
  8
0
  6
SLD-実線
 62
     7
 10
79.925
 20
99.615
 30
0.0
 11
79.925
 21
99.695
 31
0.0
  0
LINE
  5
240
  8
0
  6
SLD-実線
 62
     7
 10
79.675
 20
99.695
 30
0.0
 11
79.525
 21
99.695
 31
0.0
  0
LINE
  5
241
  8
0
  6
SLD-実線
 62
     7
 10
79.675
 20
99.615
 30
0.0
 11
79.675
 21
99.695
 31
0.0
  0
LINE
  5
242
  8
0
  6
SLD-実線
 62
     7
 10
79.675
 20
99.615
 30
0.0
 11
79.525
 21
99.615
 31
0.0
  0
LINE
  5
243
  8
0
  6
SLD-実線
 62
     7
 10
79.525
 20
99.615
 30
0.0
 11
79.525
 21
99.695
 31
0.0
  0
LINE
  5
244
  8
0
  6
SLD-実線
 62
     7
 10
81.55
 20
99.615
 30
0.0
 11
81.85
 21
99.615
 31
0.0
  0
LINE
  5
245
  8
0
  6
SLD-実線
 62
     7
 10
81.55
 20
99.695
 30
0.0
 11
81.85
 21
99.695
 31
0.0
  0
LINE
  5
246
  8
0
  6
SLD-実線
 62
     7
 10
81.85
 20
99.695
 30
0.0
 11
81.85
 21
99.615
 31
0.0
  0
LINE
  5
247
  8
0
  6
SLD-実線
 62
     7
 10
81.55
 20
99.695
 30
0.0
 11
81.55
 21
99.615
 31
0.0
  0
LINE
  5
248
  8
0
  6
SLD-実線
 62
     7
 10
78.73
 20
100.275
 30
0.0
 11
78.79
 21
100.275
 31
0.0
  0
LINE
  5
249
  8
0
  6
SLD-実線
 62
     7
 10
78.79
 20
100.275
 30
0.0
 11
78.79
 21
99.685
 31
0.0
  0
LINE
  5
24A
  8
0
  6
SLD-実線
 62
     7
 10
78.73
 20
99.685
 30
0.0
 11
78.73
 21
100.275
 31
0.0
  0
POLYLINE
  5
24B
  8
0
  6
SLD-実線
 62
     7
 66
     1
 10
0.0
 20
0.0
 30
0.0
  0
VERTEX
  5
2CB
  8
0
  6
SLD-実線
 62
     7
 10
78.79
 20
99.685
 30
0.0
  0
VERTEX
  5
2CC
  8
0
  6
SLD-実線
 62
     7
 10
78.7903979499
 20
99.6752454839
 30
0.0
  0
VERTEX
  5
2CD
  8
0
  6
SLD-実線
 62
     7
 10
78.7915765065
 20
99.6658658284
 30
0.0
  0
VERTEX
  5
2CE
  8
0
  6
SLD-実線
 62
     7
 10
78.7934903786
 20
99.6572214883
 30
0.0
  0
VERTEX
  5
2CF
  8
0
  6
SLD-実線
 62
     7
 10
78.7960660172
 20
99.6496446609
 30
0.0
  0
VERTEX
  5
2D0
  8
0
  6
SLD-実線
 62
     7
 10
78.7992044419
 20
99.6434265194
 30
0.0
  0
VERTEX
  5
2D1
  8
0
  6
SLD-実線
 62
     7
 10
78.8027850447
 20
99.6388060234
 30
0.0
  0
VERTEX
  5
2D2
  8
0
  6
SLD-実線
 62
     7
 10
78.8066702253
 20
99.635960736
 30
0.0
  0
VERTEX
  5
2D3
  8
0
  6
SLD-実線
 62
     7
 10
78.8107106781
 20
99.635
 30
0.0
  0
SEQEND
  5
2FD
  8
0
  6
SLD-実線
 62
     7
  0
LINE
  5
24C
  8
0
  6
SLD-実線
 62
     7
 10
78.8107106781
 20
99.635
 30
0.0
 11
78.7507106781
 21
99.635
 31
0.0
  0
POLYLINE
  5
24D
  8
0
  6
SLD-実線
 62
     7
 66
     1
 10
0.0
 20
0.0
 30
0.0
  0
VERTEX
  5
2D4
  8
0
  6
SLD-実線
 62
     7
 10
78.73
 20
99.685
 30
0.0
  0
VERTEX
  5
2D5
  8
0
  6
SLD-実線
 62
     7
 10
78.7303979499
 20
99.6752454839
 30
0.0
  0
VERTEX
  5
2D6
  8
0
  6
SLD-実線
 62
     7
 10
78.7315765065
 20
99.6658658284
 30
0.0
  0
VERTEX
  5
2D7
  8
0
  6
SLD-実線
 62
     7
 10
78.7334903786
 20
99.6572214883
 30
0.0
  0
VERTEX
  5
2D8
  8
0
  6
SLD-実線
 62
     7
 10
78.7360660172
 20
99.6496446609
 30
0.0
  0
VERTEX
  5
2D9
  8
0
  6
SLD-実線
 62
     7
 10
78.7392044419
 20
99.6434265194
 30
0.0
  0
VERTEX
  5
2DA
  8
0
  6
SLD-実線
 62
     7
 10
78.7427850447
 20
99.6388060234
 30
0.0
  0
VERTEX
  5
2DB
  8
0
  6
SLD-実線
 62
     7
 10
78.7466702253
 20
99.635960736
 30
0.0
  0
VERTEX
  5
2DC
  8
0
  6
SLD-実線
 62
     7
 10
78.7507106781
 20
99.635
 30
0.0
  0
SEQEND
  5
2FC
  8
0
  6
SLD-実線
 62
     7
  0
LINE
  5
24E
  8
0
  6
SLD-実線
 62
     7
 10
81.1892893219
 20
99.635
 30
0.0
 11
81.2492893219
 21
99.635
 31
0.0
  0
POLYLINE
  5
24F
  8
0
  6
SLD-実線
 62
     7
 66
     1
 10
0.0
 20
0.0
 30
0.0
  0
VERTEX
  5
2DD
  8
0
  6
SLD-実線
 62
     7
 10
81.21
 20
99.685
 30
0.0
  0
VERTEX
  5
2DE
  8
0
  6
SLD-実線
 62
     7
 10
81.2096853583
 20
99.6763175911
 30
0.0
  0
VERTEX
  5
2DF
  8
0
  6
SLD-実線
 62
     7
 10
81.2087509933
 20
99.6678989928
 30
0.0
  0
VERTEX
  5
2E0
  8
0
  6
SLD-実線
 62
     7
 10
81.2072252953
 20
99.66
 30
0.0
  0
VERTEX
  5
2E1
  8
0
  6
SLD-実線
 62
     7
 10
81.2051546218
 20
99.6528606195
 30
0.0
  0
VERTEX
  5
2E2
  8
0
  6
SLD-実線
 62
     7
 10
81.2026018892
 20
99.6466977778
 30
0.0
  0
VERTEX
  5
2E3
  8
0
  6
SLD-実線
 62
     7
 10
81.1996446609
 20
99.6416987298
 30
0.0
  0
VERTEX
  5
2E4
  8
0
  6
SLD-実線
 62
     7
 10
81.196372791
 20
99.638015369
 30
0.0
  0
VERTEX
  5
2E5
  8
0
  6
SLD-実線
 62
     7
 10
81.1928856934
 20
99.6357596123
 30
0.0
  0
VERTEX
  5
2E6
  8
0
  6
SLD-実線
 62
     7
 10
81.1892893219
 20
99.635
 30
0.0
  0
SEQEND
  5
2FB
  8
0
  6
SLD-実線
 62
     7
  0
POLYLINE
  5
250
  8
0
  6
SLD-実線
 62
     7
 66
     1
 10
0.0
 20
0.0
 30
0.0
  0
VERTEX
  5
2E7
  8
0
  6
SLD-実線
 62
     7
 10
81.27
 20
99.685
 30
0.0
  0
VERTEX
  5
2E8
  8
0
  6
SLD-実線
 62
     7
 10
81.2696020501
 20
99.6752454839
 30
0.0
  0
VERTEX
  5
2E9
  8
0
  6
SLD-実線
 62
     7
 10
81.2684234935
 20
99.6658658284
 30
0.0
  0
VERTEX
  5
2EA
  8
0
  6
SLD-実線
 62
     7
 10
81.2665096214
 20
99.6572214883
 30
0.0
  0
VERTEX
  5
2EB
  8
0
  6
SLD-実線
 62
     7
 10
81.2639339828
 20
99.6496446609
 30
0.0
  0
VERTEX
  5
2EC
  8
0
  6
SLD-実線
 62
     7
 10
81.2607955581
 20
99.6434265194
 30
0.0
  0
VERTEX
  5
2ED
  8
0
  6
SLD-実線
 62
     7
 10
81.2572149553
 20
99.6388060234
 30
0.0
  0
VERTEX
  5
2EE
  8
0
  6
SLD-実線
 62
     7
 10
81.2533297747
 20
99.635960736
 30
0.0
  0
VERTEX
  5
2EF
  8
0
  6
SLD-実線
 62
     7
 10
81.2492893219
 20
99.635
 30
0.0
  0
SEQEND
  5
2FA
  8
0
  6
SLD-実線
 62
     7
  0
LINE
  5
251
  8
0
  6
SLD-実線
 62
     7
 10
81.1
 20
99.635
 30
0.0
 11
81.1892893219
 21
99.635
 31
0.0
  0
LINE
  5
252
  8
0
  6
SLD-実線
 62
     7
 10
81.1
 20
99.685
 30
0.0
 11
81.1
 21
99.635
 31
0.0
  0
LINE
  5
253
  8
0
  6
SLD-実線
 62
     7
 10
78.9
 20
99.635
 30
0.0
 11
78.8107106781
 21
99.635
 31
0.0
  0
LINE
  5
254
  8
0
  6
SLD-実線
 62
     7
 10
78.9
 20
99.685
 30
0.0
 11
78.9
 21
99.635
 31
0.0
  0
LINE
  5
255
  8
0
  6
SLD-実線
 62
     7
 10
81.21
 20
100.275
 30
0.0
 11
81.21
 21
99.685
 31
0.0
  0
LINE
  5
256
  8
0
  6
SLD-実線
 62
     7
 10
81.27
 20
99.685
 30
0.0
 11
81.27
 21
100.275
 31
0.0
  0
LINE
  5
257
  8
0
  6
SLD-実線
 62
     7
 10
81.27
 20
100.275
 30
0.0
 11
81.21
 21
100.275
 31
0.0
  0
LINE
  5
258
  8
0
  6
SLD-実線
 62
     7
 10
78.79
 20
100.275
 30
0.0
 11
81.21
 21
100.275
 31
0.0
  0
LINE
  5
259
  8
0
  6
SLD-実線
 62
     7
 10
78.9
 20
99.785
 30
0.0
 11
81.1
 21
99.785
 31
0.0
  0
LINE
  5
25A
  8
0
  6
SLD-実線
 62
     7
 10
81.1
 20
99.685
 30
0.0
 11
81.1
 21
99.785
 31
0.0
  0
LINE
  5
25B
  8
0
  6
SLD-実線
 62
     7
 10
78.9
 20
99.685
 30
0.0
 11
78.9
 21
99.785
 31
0.0
  0
POLYLINE
  5
25C
  8
0
  6
SLD-実線
 62
     7
 66
     1
 10
0.0
 20
0.0
 30
0.0
  0
VERTEX
  5
2F0
  8
0
  6
SLD-実線
 62
     7
 10
78.4558380151
 20
99.635
 30
0.0
  0
VERTEX
  5
2F1
  8
0
  6
SLD-実線
 62
     7
 10
78.4515901922
 20
99.6370376889
 30
0.0
  0
VERTEX
  5
2F2
  8
0
  6
SLD-実線
 62
     7
 10
78.4500368229
 20
99.6432899362
 30
0.0
  0
VERTEX
  5
2F3
  8
0
  6
SLD-実線
 62
     7
 10
78.45
 20
99.645
 30
0.0
  0
SEQEND
  5
2F9
  8
0
  6
SLD-実線
 62
     7
  0
LINE
  5
25D
  8
0
  6
SLD-実線
 62
     7
 10
78.7507106781
 20
99.635
 30
0.0
 11
78.4558380151
 21
99.635
 31
0.0
  0
ARC
  5
25E
  8
0
  6
SLD-実線
 62
     7
 10
82.09
 20
99.775
 30
0.0
 40
0.1399999999634929
 50
269.999999993
 51
319.9947991221
  0
LINE
  5
25F
  8
0
  6
SLD-実線
 62
     7
 10
81.85
 20
99.635
 30
0.0
 11
82.09
 21
99.635
 31
0.0
  0
ARC
  5
260
  8
0
  6
SLD-実線
 62
     7
 10
77.91
 20
99.775
 30
0.0
 40
0.140000000000004
 50
218.2132107017
 51
220.0052008849
  0
LINE
  5
261
  8
0
  6
SLD-実線
 62
     7
 10
78.73
 20
100.385
 30
0.0
 11
78.73
 21
100.275
 31
0.0
  0
LINE
  5
262
  8
0
  6
SLD-実線
 62
     7
 10
78.73
 20
100.385
 30
0.0
 11
77.8
 21
100.385
 31
0.0
  0
LINE
  5
263
  8
0
  6
SLD-実線
 62
     7
 10
81.27
 20
100.385
 30
0.0
 11
82.2
 21
100.385
 31
0.0
  0
ARC
  5
264
  8
0
  6
SLD-実線
 62
     7
 10
82.09
 20
99.775
 30
0.0
 40
0.1400000000000023
 50
319.9947991151
 51
321.7867892983
  0
LINE
  5
265
  8
0
  6
SLD-実線
 62
     7
 10
81.27
 20
100.385
 30
0.0
 11
81.27
 21
100.275
 31
0.0
  0
LINE
  5
266
  8
0
  6
SLD-実線
 62
     7
 10
78.15
 20
99.635
 30
0.0
 11
77.91
 21
99.635
 31
0.0
  0
ARC
  5
267
  8
0
  6
SLD-実線
 62
     7
 10
77.91
 20
99.775
 30
0.0
 40
0.139999999963436
 50
220.0052008779
 51
270.000000007
  0
POLYLINE
  5
268
  8
0
  6
SLD-実線
 62
     7
 66
     1
 10
0.0
 20
0.0
 30
0.0
  0
VERTEX
  5
2F4
  8
0
  6
SLD-実線
 62
     7
 10
81.5441619849
 20
99.635
 30
0.0
  0
VERTEX
  5
2F5
  8
0
  6
SLD-実線
 62
     7
 10
81.5484098078
 20
99.6370376889
 30
0.0
  0
VERTEX
  5
2F6
  8
0
  6
SLD-実線
 62
     7
 10
81.5499631771
 20
99.6432899362
 30
0.0
  0
VERTEX
  5
2F7
  8
0
  6
SLD-実線
 62
     7
 10
81.55
 20
99.645
 30
0.0
  0
SEQEND
  5
2F8
  8
0
  6
SLD-実線
 62
     7
  0
LINE
  5
269
  8
0
  6
SLD-実線
 62
     7
 10
81.2492893219
 20
99.635
 30
0.0
 11
81.5441619849
 21
99.635
 31
0.0
  0
LINE
  5
26A
  8
0
  6
SLD-実線
 62
     7
 10
82.25
 20
99.855
 30
0.0
 11
82.25
 21
100.385
 31
0.0
  0
LINE
  5
26B
  8
0
  6
SLD-実線
 62
     7
 10
82.23
 20
99.855
 30
0.0
 11
82.25
 21
99.855
 31
0.0
  0
LINE
  5
26C
  8
0
  6
SLD-実線
 62
     7
 10
82.23
 20
99.775
 30
0.0
 11
82.23
 21
99.855
 31
0.0
  0
LINE
  5
26D
  8
0
  6
SLD-実線
 62
     7
 10
82.25
 20
100.385
 30
0.0
 11
82.2
 21
100.385
 31
0.0
  0
ARC
  5
26E
  8
0
  6
SLD-実線
 62
     7
 10
82.09
 20
99.775
 30
0.0
 40
0.1399999999997448
 50
321.7867892982
 51
0.0
  0
ARC
  5
26F
  8
0
  6
SLD-実線
 62
     7
 10
77.91
 20
99.775
 30
0.0
 40
0.1399999999999191
 50
180.0
 51
218.2132107018
  0
LINE
  5
270
  8
0
  6
SLD-実線
 62
     7
 10
77.77
 20
99.775
 30
0.0
 11
77.77
 21
99.855
 31
0.0
  0
LINE
  5
271
  8
0
  6
SLD-実線
 62
     7
 10
77.77
 20
99.855
 30
0.0
 11
77.75
 21
99.855
 31
0.0
  0
LINE
  5
272
  8
0
  6
SLD-実線
 62
     7
 10
77.75
 20
99.855
 30
0.0
 11
77.75
 21
100.385
 31
0.0
  0
LINE
  5
273
  8
0
  6
SLD-実線
 62
     7
 10
77.75
 20
100.385
 30
0.0
 11
77.8
 21
100.385
 31
0.0
  0
LINE
  5
274
  8
0
  6
SLD-実線
 62
     7
 10
81.47
 20
99.615
 30
0.0
 11
81.55
 21
99.615
 31
0.0
  0
LINE
  5
275
  8
0
  6
SLD-実線
 62
     7
 10
80.075
 20
99.695
 30
0.0
 11
80.075
 21
99.775
 31
0.0
  0
LINE
  5
276
  8
0
  6
SLD-実線
 62
     7
 10
79.925
 20
99.695
 30
0.0
 11
79.925
 21
99.775
 31
0.0
  0
LINE
  5
277
  8
0
  6
SLD-実線
 62
     7
 10
80.875
 20
99.695
 30
0.0
 11
80.875
 21
99.775
 31
0.0
  0
LINE
  5
278
  8
0
  6
SLD-実線
 62
     7
 10
80.725
 20
99.695
 30
0.0
 11
80.725
 21
99.775
 31
0.0
  0
LINE
  5
279
  8
0
  6
SLD-実線
 62
     7
 10
79.675
 20
99.695
 30
0.0
 11
79.675
 21
99.775
 31
0.0
  0
LINE
  5
27A
  8
0
  6
SLD-実線
 62
     7
 10
79.525
 20
99.695
 30
0.0
 11
79.525
 21
99.775
 31
0.0
  0
LINE
  5
27B
  8
0
  6
SLD-実線
 62
     7
 10
78.53
 20
99.615
 30
0.0
 11
78.45
 21
99.615
 31
0.0
  0
LINE
  5
27C
  8
0
  6
SLD-実線
 62
     7
 10
80.325
 20
99.695
 30
0.0
 11
80.325
 21
99.775
 31
0.0
  0
LINE
  5
27D
  8
0
  6
SLD-実線
 62
     7
 10
80.475
 20
99.695
 30
0.0
 11
80.475
 21
99.775
 31
0.0
  0
LINE
  5
27E
  8
0
  6
SLD-実線
 62
     7
 10
79.125
 20
99.695
 30
0.0
 11
79.125
 21
99.775
 31
0.0
  0
LINE
  5
27F
  8
0
  6
SLD-実線
 62
     7
 10
79.275
 20
99.695
 30
0.0
 11
79.275
 21
99.775
 31
0.0
  0
ARC
  5
280
  8
0
  6
SLD-実線
 62
     7
 10
81.431777165
 20
99.775
 30
0.0
 40
0.1600000000000042
 50
241.0449756281
 51
270.0
  0
LINE
  5
281
  8
0
  6
SLD-実線
 62
     7
 10
81.431777165
 20
99.615
 30
0.0
 11
81.47
 21
99.615
 31
0.0
  0
LINE
  5
282
  8
0
  6
SLD-実線
 62
     7
 10
79.275
 20
99.775
 30
0.0
 11
79.285
 21
99.785
 31
0.0
  0
LINE
  5
283
  8
0
  6
SLD-実線
 62
     7
 10
79.125
 20
99.775
 30
0.0
 11
79.115
 21
99.785
 31
0.0
  0
LINE
  5
284
  8
0
  6
SLD-実線
 62
     7
 10
80.075
 20
99.775
 30
0.0
 11
80.085
 21
99.785
 31
0.0
  0
LINE
  5
285
  8
0
  6
SLD-実線
 62
     7
 10
79.925
 20
99.775
 30
0.0
 11
79.915
 21
99.785
 31
0.0
  0
LINE
  5
286
  8
0
  6
SLD-実線
 62
     7
 10
79.675
 20
99.775
 30
0.0
 11
79.685
 21
99.785
 31
0.0
  0
LINE
  5
287
  8
0
  6
SLD-実線
 62
     7
 10
79.525
 20
99.775
 30
0.0
 11
79.515
 21
99.785
 31
0.0
  0
LINE
  5
288
  8
0
  6
SLD-実線
 62
     7
 10
80.325
 20
99.775
 30
0.0
 11
80.315
 21
99.785
 31
0.0
  0
LINE
  5
289
  8
0
  6
SLD-実線
 62
     7
 10
80.475
 20
99.775
 30
0.0
 11
80.485
 21
99.785
 31
0.0
  0
ARC
  5
28A
  8
0
  6
SLD-実線
 62
     7
 10
78.568222835
 20
99.775
 30
0.0
 40
0.1600000000000108
 50
270.0
 51
298.9550243719
  0
LINE
  5
28B
  8
0
  6
SLD-実線
 62
     7
 10
78.568222835
 20
99.615
 30
0.0
 11
78.53
 21
99.615
 31
0.0
  0
LINE
  5
28C
  8
0
  6
SLD-実線
 62
     7
 10
80.875
 20
99.775
 30
0.0
 11
80.885
 21
99.785
 31
0.0
  0
LINE
  5
28D
  8
0
  6
SLD-実線
 62
     7
 10
80.725
 20
99.775
 30
0.0
 11
80.715
 21
99.785
 31
0.0
  0
LINE
  5
28E
  8
0
  6
SLD-実線
 62
     7
 10
78.15
 20
99.615
 30
0.0
 11
78.1265685425
 21
99.615
 31
0.0
  0
LINE
  5
28F
  8
0
  6
SLD-実線
 62
     7
 10
81.85
 20
99.615
 30
0.0
 11
81.8734314575
 21
99.615
 31
0.0
  0
LINE
  5
290
  8
0
  6
SLD-実線
 62
     7
 10
78.1265685425
 20
99.615
 30
0.0
 11
78.0034314575
 21
99.615
 31
0.0
  0
LINE
  5
291
  8
0
  6
SLD-実線
 62
     7
 10
81.8734314575
 20
99.615
 30
0.0
 11
81.9965685425
 21
99.615
 31
0.0
  0
LINE
  5
292
  8
0
  6
SLD-実線
 62
     7
 10
81.1
 20
99.615
 30
0.0
 11
81.1
 21
99.635
 31
0.0
  0
LINE
  5
293
  8
0
  6
SLD-実線
 62
     7
 10
78.9
 20
99.615
 30
0.0
 11
79.125
 21
99.615
 31
0.0
  0
LINE
  5
294
  8
0
  6
SLD-実線
 62
     7
 10
79.275
 20
99.615
 30
0.0
 11
79.525
 21
99.615
 31
0.0
  0
LINE
  5
295
  8
0
  6
SLD-実線
 62
     7
 10
79.675
 20
99.615
 30
0.0
 11
79.925
 21
99.615
 31
0.0
  0
LINE
  5
296
  8
0
  6
SLD-実線
 62
     7
 10
80.075
 20
99.615
 30
0.0
 11
80.325
 21
99.615
 31
0.0
  0
LINE
  5
297
  8
0
  6
SLD-実線
 62
     7
 10
80.475
 20
99.615
 30
0.0
 11
80.725
 21
99.615
 31
0.0
  0
LINE
  5
298
  8
0
  6
SLD-実線
 62
     7
 10
80.875
 20
99.615
 30
0.0
 11
81.1
 21
99.615
 31
0.0
  0
LINE
  5
299
  8
0
  6
SLD-実線
 62
     7
 10
78.9
 20
99.615
 30
0.0
 11
78.9
 21
99.635
 31
0.0
  0
LINE
  5
29A
  8
0
  6
SLD-実線
 62
     7
 10
77.77
 20
99.775
 30
0.0
 11
77.75
 21
99.775
 31
0.0
  0
LINE
  5
29B
  8
0
  6
SLD-実線
 62
     7
 10
77.75
 20
99.855
 30
0.0
 11
77.75
 21
99.775
 31
0.0
  0
LINE
  5
29C
  8
0
  6
SLD-実線
 62
     7
 10
82.23
 20
99.775
 30
0.0
 11
82.25
 21
99.775
 31
0.0
  0
LINE
  5
29D
  8
0
  6
SLD-実線
 62
     7
 10
82.25
 20
99.855
 30
0.0
 11
82.25
 21
99.775
 31
0.0
  0
LINE
  5
29E
  8
0
  6
SLD-実線
 62
     7
 10
78.0034314575
 20
99.615
 30
0.0
 11
77.946862915
 21
99.615
 31
0.0
  0
LINE
  5
29F
  8
0
  6
SLD-実線
 62
     7
 10
81.9965685425
 20
99.615
 30
0.0
 11
82.053137085
 21
99.615
 31
0.0
  0
ARC
  5
2A0
  8
0
  6
SLD-実線
 62
     7
 10
77.91
 20
99.775
 30
0.0
 40
0.1600000000000108
 50
180.0
 51
270.0
  0
LINE
  5
2A1
  8
0
  6
SLD-実線
 62
     7
 10
77.946862915
 20
99.615
 30
0.0
 11
77.91
 21
99.615
 31
0.0
  0
ARC
  5
2A2
  8
0
  6
SLD-実線
 62
     7
 10
82.09
 20
99.775
 30
0.0
 40
0.1600000000000108
 50
270.0
 51
0.0
  0
LINE
  5
2A3
  8
0
  6
SLD-実線
 62
     7
 10
82.053137085
 20
99.615
 30
0.0
 11
82.09
 21
99.615
 31
0.0
  0
LINE
  5
2A4
  8
0
  6
SLD-実線
 62
     7
 10
78.568222835
 20
99.615
 30
0.0
 11
78.9
 21
99.615
 31
0.0
  0
LINE
  5
2A5
  8
0
  6
SLD-実線
 62
     7
 10
81.431777165
 20
99.615
 30
0.0
 11
81.1
 21
99.615
 31
0.0
  0
TEXT
  5
2A6
  8
0
  6
CONTINUOUS
 62
     7
 10
80.0
 20
67.2599874698
 30
0.0
 40
2.38125
  1
Panasonic Corporation 2014  Nov.,2014  axe510127d.dxf
 41
0.6603773585
 11
80.0
 21
66.8250000675
 31
0.0
 73
     1
  0
ENDSEC
  0
EOF
