  0
SECTION
  2
HEADER
  9
$ACADVER
  1
AC1009
  9
$DWGCODEPAGE
  3
dos932
  9
$INSBASE
 10
0.0
 20
0.0
 30
0.0
  9
$EXTMIN
 10
-16.5
 20
-12.703824
 30
0.0
  9
$EXTMAX
 10
16.5
 20
15.995917
 30
0.0
  9
$LIMMIN
 10
-29.7
 20
-21.0
  9
$LIMMAX
 10
29.7
 20
21.0
  9
$ORTHOMODE
 70
     0
  9
$REGENMODE
 70
     1
  9
$FILLMODE
 70
     1
  9
$QTEXTMODE
 70
     0
  9
$MIRRTEXT
 70
     1
  9
$DRAGMODE
 70
     2
  9
$LTSCALE
 40
1.0
  9
$OSMODE
 70
     0
  9
$ATTMODE
 70
     1
  9
$TEXTSIZE
 40
4.16718
  9
$TRACEWID
 40
0.05
  9
$TEXTSTYLE
  7
MX_NOTE_STANDARD
  9
$CLAYER
  8
LY_1
  9
$CELTYPE
  6
CONTINUOUS
  9
$CECOLOR
 62
   256
  9
$DIMSCALE
 40
1.0
  9
$DIMASZ
 40
2.5
  9
$DIMEXO
 40
0.0
  9
$DIMDLI
 40
3.75
  9
$DIMRND
 40
0.0
  9
$DIMDLE
 40
0.0
  9
$DIMEXE
 40
1.2
  9
$DIMTP
 40
0.0
  9
$DIMTM
 40
0.0
  9
$DIMTXT
 40
2.54
  9
$DIMCEN
 40
2.5
  9
$DIMTSZ
 40
0.0
  9
$DIMTOL
 70
     0
  9
$DIMLIM
 70
     0
  9
$DIMTIH
 70
     0
  9
$DIMTOH
 70
     0
  9
$DIMSE1
 70
     0
  9
$DIMSE2
 70
     0
  9
$DIMTAD
 70
     1
  9
$DIMZIN
 70
     8
  9
$DIMBLK
  1

  9
$DIMASO
 70
     1
  9
$DIMSHO
 70
     1
  9
$DIMPOST
  1

  9
$DIMAPOST
  1

  9
$DIMALT
 70
     0
  9
$DIMALTD
 70
     4
  9
$DIMALTF
 40
0.03937
  9
$DIMLFAC
 40
1.0
  9
$DIMTOFL
 70
     1
  9
$DIMTVP
 40
0.0
  9
$DIMTIX
 70
     0
  9
$DIMSOXD
 70
     0
  9
$DIMSAH
 70
     1
  9
$DIMBLK1
  1
_OPEN30
  9
$DIMBLK2
  1
_OPEN30
  9
$DIMSTYLE
  2
MXDIMSTYLE
  9
$DIMCLRD
 70
     0
  9
$DIMCLRE
 70
     0
  9
$DIMCLRT
 70
     0
  9
$DIMTFAC
 40
1.0
  9
$DIMGAP
 40
0.2
  9
$LUNITS
 70
     2
  9
$LUPREC
 70
     4
  9
$AXISMODE
 70
     0
  9
$AXISUNIT
 10
0.0
 20
0.0
  9
$SKETCHINC
 40
0.1
  9
$FILLETRAD
 40
0.0
  9
$AUNITS
 70
     0
  9
$AUPREC
 70
     0
  9
$MENU
  1
acad
  9
$ELEVATION
 40
0.0
  9
$PELEVATION
 40
0.0
  9
$THICKNESS
 40
0.0
  9
$LIMCHECK
 70
     0
  9
$BLIPMODE
 70
     1
  9
$CHAMFERA
 40
0.0
  9
$CHAMFERB
 40
0.0
  9
$SKPOLY
 70
     0
  9
$TDCREATE
 40
2456925.432384259
  9
$TDUPDATE
 40
2456925.432384259
  9
$TDINDWG
 40
0.0000000000
  9
$TDUSRTIMER
 40
0.0000000000
  9
$USRTIMER
 70
     1
  9
$ANGBASE
 50
0.0
  9
$ANGDIR
 70
     0
  9
$PDMODE
 70
     0
  9
$PDSIZE
 40
0.0
  9
$PLINEWID
 40
0.0
  9
$COORDS
 70
     1
  9
$SPLFRAME
 70
     0
  9
$SPLINETYPE
 70
     6
  9
$SPLINESEGS
 70
     8
  9
$ATTDIA
 70
     0
  9
$ATTREQ
 70
     1
  9
$HANDLING
 70
     1
  9
$HANDSEED
  5
155
  9
$SURFTAB1
 70
     6
  9
$SURFTAB2
 70
     6
  9
$SURFTYPE
 70
     6
  9
$SURFU
 70
     6
  9
$SURFV
 70
     6
  9
$UCSNAME
  2

  9
$UCSORG
 10
0.0
 20
0.0
 30
0.0
  9
$UCSXDIR
 10
1.0
 20
0.0
 30
0.0
  9
$UCSYDIR
 10
0.0
 20
1.0
 30
0.0
  9
$PUCSNAME
  2

  9
$PUCSORG
 10
0.0
 20
0.0
 30
0.0
  9
$PUCSXDIR
 10
1.0
 20
0.0
 30
0.0
  9
$PUCSYDIR
 10
0.0
 20
1.0
 30
0.0
  9
$USERI1
 70
     0
  9
$USERI2
 70
     0
  9
$USERI3
 70
     0
  9
$USERI4
 70
     0
  9
$USERI5
 70
     0
  9
$USERR1
 40
0.0
  9
$USERR2
 40
0.0
  9
$USERR3
 40
0.0
  9
$USERR4
 40
0.0
  9
$USERR5
 40
0.0
  9
$WORLDVIEW
 70
     1
  9
$SHADEDGE
 70
     3
  9
$SHADEDIF
 70
    70
  9
$TILEMODE
 70
     1
  9
$MAXACTVP
 70
    16
  9
$PINSBASE
 10
0.0
 20
0.0
 30
0.0
  9
$PLIMCHECK
 70
     0
  9
$PEXTMIN
 10
1.000000E+20
 20
1.000000E+20
 30
1.000000E+20
  9
$PEXTMAX
 10
-1.000000E+20
 20
-1.000000E+20
 30
-1.000000E+20
  9
$PLIMMIN
 10
0.0
 20
0.0
  9
$PLIMMAX
 10
12.0
 20
9.0
  9
$UNITMODE
 70
     0
  9
$VISRETAIN
 70
     0
  9
$PLINEGEN
 70
     1
  9
$PSLTSCALE
 70
     0
  9
$TREEDEPTH
 70
  3020
  0
ENDSEC
  0
SECTION
  2
TABLES
  0
TABLE
  2
VPORT
 70
     1
  0
VPORT
  2
*ACTIVE
 70
     0
 10
0.0
 20
0.0
 11
1.0
 21
1.0
 12
0.0
 22
0.0
 13
0.0
 23
0.0
 14
1.0
 24
1.0
 15
0.0
 25
0.0
 16
0.0
 26
0.0
 36
1.0
 17
0.0
 27
0.0
 37
0.0
 40
42.42
 41
1.732051
 42
50.0
 43
0.0
 44
0.0
 50
0.0
 51
0.0
 71
     0
 72
   100
 73
     1
 74
     1
 75
     0
 76
     0
 77
     0
 78
     0
  0
ENDTAB
  0
TABLE
  2
LTYPE
 70
     2
  0
LTYPE
  2
CONTINUOUS
 70
    64
  3
Solid line
 72
    65
 73
     0
 40
0.0
  0
LTYPE
  2
CENTER
 70
    64
  3
Center ____ _ ____ _ ____ _ ____ _ ____ _ ____
 72
    65
 73
     4
 40
50.8
 49
31.75
 49
-6.35
 49
6.35
 49
-6.35
  0
ENDTAB
  0
TABLE
  2
LAYER
 70
     3
  0
LAYER
  2
0
 70
     0
 62
     7
  6
CONTINUOUS
  0
LAYER
  2
LY_1
 70
     0
 62
     7
  6
CONTINUOUS
  0
LAYER
  2
DEFPOINTS
 70
     0
 62
     7
  6
CONTINUOUS
  0
ENDTAB
  0
TABLE
  2
STYLE
 70
     3
  0
STYLE
  2
MX_NOTE_STANDARD
 70
     0
 40
0.0
 41
1.0
 50
0.0
 71
     0
 42
4.16718
  3
txt.shx
  4
extfont.shx
  0
STYLE
  2
MX_DIMTXSTY_2
 70
     0
 40
0.0
 41
1.25
 50
0.0
 71
     0
 42
4.16718
  3
txt.shx
  4
extfont.shx
  0
STYLE
  2
MX_DIMTXSTY_3
 70
     0
 40
0.0
 41
1.4
 50
0.0
 71
     0
 42
4.16718
  3
txt.shx
  4
extfont.shx
  0
ENDTAB
  0
TABLE
  2
VIEW
 70
     0
  0
ENDTAB
  0
TABLE
  2
UCS
 70
     0
  0
ENDTAB
  0
TABLE
  2
APPID
 70
     1
  0
APPID
  2
ACAD
 70
     0
  0
ENDTAB
  0
TABLE
  2
DIMSTYLE
 70
     1
  0
DIMSTYLE
  2
MXDIMSTYLE
 70
     0
  3

  4

  5

  6
_OPEN30
  7
_OPEN30
 40
1.0
 41
2.5
 42
0.0
 43
3.75
 44
1.2
 45
0.0
 46
0.0
 47
0.0
 48
0.0
 71
     0
 72
     0
 73
     0
 74
     0
 75
     0
 76
     0
 77
     1
 78
     8
140
2.54
141
2.5
142
0.0
143
0.03937
144
1.0
145
0.0
146
1.0
147
0.2
170
     0
171
     4
172
     1
173
     1
174
     0
175
     0
176
     0
177
     0
178
     0
  0
ENDTAB
  0
ENDSEC
  0
SECTION
  2
BLOCKS
  0
BLOCK
  8
0
  5
29
  2
MS_1
 70
     0
 10
0.0
 20
0.0
 30
0.0
  3
MS_1
  0
INSERT
  8
0
  6
BYBLOCK
 62
    52
  5
33
  2
*X5
 10
0.0
 20
0.0
 30
0.0
  0
INSERT
  8
0
  6
BYBLOCK
 62
    52
  5
3D
  2
*X6
 10
0.0
 20
0.0
 30
0.0
  0
LINE
  8
0
  6
CONTINUOUS
 62
   110
  5
3E
 10
0.0
 20
-1.05
 30
0.0
 11
0.0
 21
-1.9
 31
0.0
  0
LINE
  8
0
  6
CONTINUOUS
 62
   110
  5
3F
 10
1.83
 20
-1.05
 30
0.0
 11
1.83
 21
-1.9
 31
0.0
  0
LINE
  8
0
  6
CONTINUOUS
 62
   110
  5
40
 10
0.0
 20
-1.05
 30
0.0
 11
1.83
 21
-1.05
 31
0.0
  0
LINE
  8
0
  6
CONTINUOUS
 62
   110
  5
41
 10
0.0
 20
-0.85
 30
0.0
 11
1.83
 21
-0.85
 31
0.0
  0
LINE
  8
0
  6
CONTINUOUS
 62
   110
  5
42
 10
0.0
 20
-1.9
 30
0.0
 11
1.83
 21
-1.9
 31
0.0
  0
LINE
  8
0
  6
CONTINUOUS
 62
   110
  5
43
 10
0.0
 20
0.0
 30
0.0
 11
1.83
 21
0.0
 31
0.0
  0
LINE
  8
0
  6
CONTINUOUS
 62
   110
  5
44
 10
1.83
 20
0.0
 30
0.0
 11
1.83
 21
-0.85
 31
0.0
  0
LINE
  8
0
  6
CONTINUOUS
 62
   110
  5
45
 10
0.0
 20
0.0
 30
0.0
 11
0.0
 21
-0.85
 31
0.0
  0
ENDBLK
  8
0
  5
46
  0
BLOCK
  8
0
  5
47
  2
MS_2
 70
     0
 10
0.0
 20
0.0
 30
0.0
  3
MS_2
  0
INSERT
  8
0
  6
BYBLOCK
 62
    52
  5
4F
  2
*X7
 10
0.0
 20
0.0
 30
0.0
  0
LINE
  8
0
  6
CONTINUOUS
 62
   110
  5
50
 10
0.0
 20
0.0
 30
0.0
 11
0.0
 21
0.5
 31
0.0
  0
LINE
  8
0
  6
CONTINUOUS
 62
   110
  5
51
 10
1.0
 20
0.0
 30
0.0
 11
1.0
 21
0.5
 31
0.0
  0
LINE
  8
0
  6
CONTINUOUS
 62
   110
  5
52
 10
0.0
 20
0.5
 30
0.0
 11
1.0
 21
0.5
 31
0.0
  0
LINE
  8
0
  6
CONTINUOUS
 62
   110
  5
53
 10
0.0
 20
0.0
 30
0.0
 11
1.0
 21
0.0
 31
0.0
  0
POINT
  8
0
  6
CONTINUOUS
 62
   170
  5
54
 10
1.0
 20
0.5
 30
0.0
  0
POINT
  8
0
  6
CONTINUOUS
 62
   170
  5
55
 10
0.0
 20
0.5
 30
0.0
  0
POINT
  8
0
  6
CONTINUOUS
 62
   170
  5
56
 10
1.0
 20
0.0
 30
0.0
  0
POINT
  8
0
  6
CONTINUOUS
 62
   170
  5
57
 10
0.5
 20
-1.1
 30
0.0
  0
ENDBLK
  8
0
  5
58
  0
BLOCK
  8
0
  5
59
  2
MS_3
 70
     0
 10
0.0
 20
0.0
 30
0.0
  3
MS_3
  0
LINE
  8
0
  6
CONTINUOUS
 62
     3
  5
5A
 10
-0.5
 20
-0.53
 30
0.0
 11
0.4
 21
-0.53
 31
0.0
  0
LINE
  8
0
  6
CONTINUOUS
 62
     3
  5
5B
 10
-0.5
 20
0.53
 30
0.0
 11
0.4
 21
0.53
 31
0.0
  0
LINE
  8
0
  6
CONTINUOUS
 62
     3
  5
5C
 10
-0.2
 20
1.45
 30
0.0
 11
-0.5
 21
1.15
 31
0.0
  0
LINE
  8
0
  6
CONTINUOUS
 62
     3
  5
5D
 10
-0.5
 20
-1.15
 30
0.0
 11
-0.2
 21
-1.45
 31
0.0
  0
LINE
  8
0
  6
CONTINUOUS
 62
     3
  5
5E
 10
-0.5
 20
-1.15
 30
0.0
 11
-0.5
 21
-0.53
 31
0.0
  0
LINE
  8
0
  6
CONTINUOUS
 62
     3
  5
5F
 10
-0.5
 20
1.15
 30
0.0
 11
-0.5
 21
0.53
 31
0.0
  0
LINE
  8
0
  6
CONTINUOUS
 62
     3
  5
60
 10
0.4
 20
-1.45
 30
0.0
 11
-0.2
 21
-1.45
 31
0.0
  0
LINE
  8
0
  6
CONTINUOUS
 62
     3
  5
61
 10
0.4
 20
1.45
 30
0.0
 11
-0.2
 21
1.45
 31
0.0
  0
LINE
  8
0
  6
CONTINUOUS
 62
     3
  5
62
 10
0.4
 20
-1.45
 30
0.0
 11
0.4
 21
-0.53
 31
0.0
  0
LINE
  8
0
  6
CONTINUOUS
 62
     3
  5
63
 10
0.4
 20
1.45
 30
0.0
 11
0.4
 21
0.53
 31
0.0
  0
POINT
  8
0
  6
CONTINUOUS
 62
   170
  5
64
 10
-0.5
 20
0.53
 30
0.0
  0
POINT
  8
0
  6
CONTINUOUS
 62
   170
  5
65
 10
0.4
 20
0.53
 30
0.0
  0
POINT
  8
0
  6
CONTINUOUS
 62
   170
  5
66
 10
0.4
 20
1.45
 30
0.0
  0
POINT
  8
0
  6
CONTINUOUS
 62
   170
  5
67
 10
-0.5
 20
1.15
 30
0.0
  0
POINT
  8
0
  6
CONTINUOUS
 62
   170
  5
68
 10
-0.2
 20
1.45
 30
0.0
  0
POINT
  8
0
  6
CONTINUOUS
 62
   170
  5
69
 10
0.4
 20
-0.53
 30
0.0
  0
POINT
  8
0
  6
CONTINUOUS
 62
   170
  5
6A
 10
-0.2
 20
-1.45
 30
0.0
  0
POINT
  8
0
  6
CONTINUOUS
 62
   170
  5
6B
 10
0.4
 20
-1.45
 30
0.0
  0
POINT
  8
0
  6
CONTINUOUS
 62
   170
  5
6C
 10
-0.5
 20
-0.53
 30
0.0
  0
POINT
  8
0
  6
CONTINUOUS
 62
   170
  5
6D
 10
-0.5
 20
-1.15
 30
0.0
  0
ENDBLK
  8
0
  5
6E
  0
BLOCK
  8
0
  5
6F
  2
MS_4
 70
     0
 10
0.0
 20
0.0
 30
0.0
  3
MS_4
  0
LINE
  8
0
  6
CONTINUOUS
 62
     3
  5
70
 10
-0.115
 20
1.45
 30
0.0
 11
0.115
 21
1.45
 31
0.0
  0
LINE
  8
0
  6
CONTINUOUS
 62
     3
  5
71
 10
-0.115
 20
-1.45
 30
0.0
 11
0.115
 21
-1.45
 31
0.0
  0
LINE
  8
0
  6
CONTINUOUS
 62
     3
  5
72
 10
-0.115
 20
-0.95
 30
0.0
 11
0.115
 21
-0.95
 31
0.0
  0
LINE
  8
0
  6
CONTINUOUS
 62
     3
  5
73
 10
-0.115
 20
0.95
 30
0.0
 11
0.115
 21
0.95
 31
0.0
  0
LINE
  8
0
  6
CONTINUOUS
 62
     3
  5
74
 10
0.115
 20
0.95
 30
0.0
 11
0.115
 21
1.45
 31
0.0
  0
LINE
  8
0
  6
CONTINUOUS
 62
     3
  5
75
 10
-0.115
 20
0.95
 30
0.0
 11
-0.115
 21
1.45
 31
0.0
  0
LINE
  8
0
  6
CONTINUOUS
 62
     3
  5
76
 10
-0.115
 20
-0.95
 30
0.0
 11
-0.115
 21
-1.45
 31
0.0
  0
LINE
  8
0
  6
CONTINUOUS
 62
     3
  5
77
 10
0.115
 20
-0.95
 30
0.0
 11
0.115
 21
-1.45
 31
0.0
  0
POINT
  8
0
  6
CONTINUOUS
 62
   170
  5
78
 10
-0.115
 20
-0.95
 30
0.0
  0
POINT
  8
0
  6
CONTINUOUS
 62
   170
  5
79
 10
0.115
 20
-0.95
 30
0.0
  0
POINT
  8
0
  6
CONTINUOUS
 62
   170
  5
7A
 10
0.115
 20
-1.45
 30
0.0
  0
POINT
  8
0
  6
CONTINUOUS
 62
   170
  5
7B
 10
-0.115
 20
-1.45
 30
0.0
  0
POINT
  8
0
  6
CONTINUOUS
 62
   170
  5
7C
 10
0.115
 20
1.45
 30
0.0
  0
POINT
  8
0
  6
CONTINUOUS
 62
   170
  5
7D
 10
0.115
 20
0.95
 30
0.0
  0
POINT
  8
0
  6
CONTINUOUS
 62
   170
  5
7E
 10
-0.115
 20
0.95
 30
0.0
  0
POINT
  8
0
  6
CONTINUOUS
 62
   170
  5
7F
 10
-0.115
 20
1.45
 30
0.0
  0
ENDBLK
  8
0
  5
80
  0
BLOCK
  8
0
  6
BYBLOCK
 62
     0
  5
24
  2
_OPEN30
 70
     2
 10
0.0
 20
0.0
 30
0.0
  3
_OPEN30
  0
LINE
  8
0
  6
BYBLOCK
 62
     0
  5
25
 10
-1.0
 20
0.267949
 30
0.0
 11
0.0
 21
0.0
 31
0.0
  0
LINE
  8
0
  6
BYBLOCK
 62
     0
  5
26
 10
0.0
 20
0.0
 30
0.0
 11
-1.0
 21
-0.267949
 31
0.0
  0
LINE
  8
0
  6
BYBLOCK
 62
     0
  5
27
 10
0.0
 20
0.0
 30
0.0
 11
-1.0
 21
0.0
 31
0.0
  0
ENDBLK
  8
0
  6
BYBLOCK
 62
     0
  5
28
  0
BLOCK
  8
0
  6
BYBLOCK
 62
     0
  5
2B
  2
*X5
 70
     1
 10
0.0
 20
0.0
 30
0.0
  3
*X5
  0
LINE
  8
0
  6
CONTINUOUS
 62
     0
  5
2C
 10
1.494113
 20
-1.9
 30
0.0
 11
1.83
 21
-1.564113
 31
0.0
  0
LINE
  8
0
  6
CONTINUOUS
 62
     0
  5
2D
 10
1.069848
 20
-1.9
 30
0.0
 11
1.83
 21
-1.139848
 31
0.0
  0
LINE
  8
0
  6
CONTINUOUS
 62
     0
  5
2E
 10
0.645584
 20
-1.9
 30
0.0
 11
1.495584
 21
-1.05
 31
0.0
  0
LINE
  8
0
  6
CONTINUOUS
 62
     0
  5
2F
 10
0.22132
 20
-1.9
 30
0.0
 11
1.07132
 21
-1.05
 31
0.0
  0
LINE
  8
0
  6
CONTINUOUS
 62
     0
  5
30
 10
0.0
 20
-1.697056
 30
0.0
 11
0.647056
 21
-1.05
 31
0.0
  0
LINE
  8
0
  6
CONTINUOUS
 62
     0
  5
31
 10
0.0
 20
-1.272792
 30
0.0
 11
0.222792
 21
-1.05
 31
0.0
  0
ENDBLK
  8
0
  6
BYBLOCK
 62
     0
  5
32
  0
BLOCK
  8
0
  6
BYBLOCK
 62
     0
  5
35
  2
*X6
 70
     1
 10
0.0
 20
0.0
 30
0.0
  3
*X6
  0
LINE
  8
0
  6
CONTINUOUS
 62
     0
  5
36
 10
1.695584
 20
-0.85
 30
0.0
 11
1.83
 21
-0.715584
 31
0.0
  0
LINE
  8
0
  6
CONTINUOUS
 62
     0
  5
37
 10
1.27132
 20
-0.85
 30
0.0
 11
1.83
 21
-0.29132
 31
0.0
  0
LINE
  8
0
  6
CONTINUOUS
 62
     0
  5
38
 10
0.847056
 20
-0.85
 30
0.0
 11
1.697056
 21
0.0
 31
0.0
  0
LINE
  8
0
  6
CONTINUOUS
 62
     0
  5
39
 10
0.422792
 20
-0.85
 30
0.0
 11
1.272792
 21
0.0
 31
0.0
  0
LINE
  8
0
  6
CONTINUOUS
 62
     0
  5
3A
 10
0.0
 20
-0.848528
 30
0.0
 11
0.848528
 21
0.0
 31
0.0
  0
LINE
  8
0
  6
CONTINUOUS
 62
     0
  5
3B
 10
0.0
 20
-0.424264
 30
0.0
 11
0.424264
 21
0.0
 31
0.0
  0
ENDBLK
  8
0
  6
BYBLOCK
 62
     0
  5
3C
  0
BLOCK
  8
0
  6
BYBLOCK
 62
     0
  5
49
  2
*X7
 70
     1
 10
0.0
 20
0.0
 30
0.0
  3
*X7
  0
LINE
  8
0
  6
CONTINUOUS
 62
     0
  5
4A
 10
0.848528
 20
0.0
 30
0.0
 11
1.0
 21
0.151472
 31
0.0
  0
LINE
  8
0
  6
CONTINUOUS
 62
     0
  5
4B
 10
0.424264
 20
0.0
 30
0.0
 11
0.924264
 21
0.5
 31
0.0
  0
LINE
  8
0
  6
CONTINUOUS
 62
     0
  5
4C
 10
0.0
 20
0.0
 30
0.0
 11
0.5
 21
0.5
 31
0.0
  0
LINE
  8
0
  6
CONTINUOUS
 62
     0
  5
4D
 10
0.0
 20
0.424264
 30
0.0
 11
0.075736
 21
0.5
 31
0.0
  0
ENDBLK
  8
0
  6
BYBLOCK
 62
     0
  5
4E
  0
BLOCK
  8
0
  6
BYBLOCK
 62
     0
  5
85
  2
_OPEN
 70
     2
 10
0.0
 20
0.0
 30
0.0
  3
_OPEN
  0
LINE
  8
0
  6
BYBLOCK
 62
     0
  5
86
 10
-1.0
 20
0.166667
 30
0.0
 11
0.0
 21
0.0
 31
0.0
  0
LINE
  8
0
  6
BYBLOCK
 62
     0
  5
87
 10
0.0
 20
0.0
 30
0.0
 11
-1.0
 21
-0.166667
 31
0.0
  0
LINE
  8
0
  6
BYBLOCK
 62
     0
  5
88
 10
0.0
 20
0.0
 30
0.0
 11
-1.0
 21
0.0
 31
0.0
  0
ENDBLK
  8
0
  6
BYBLOCK
 62
     0
  5
89
  0
BLOCK
  8
0
  6
BYBLOCK
 62
     0
  5
94
  2
*D9
 70
     1
 10
0.0
 20
0.0
 30
0.0
  3
*D9
  0
LINE
  8
0
  6
CONTINUOUS
 62
    51
  5
95
 10
13.125927
 20
0.95
 30
0.0
 11
13.125927
 21
-0.95
 31
0.0
  0
LINE
  8
0
  6
CONTINUOUS
 62
    51
  5
96
 10
13.125927
 20
9.591836
 30
0.0
 11
13.125927
 21
0.95
 31
0.0
  0
LINE
  8
0
  6
CONTINUOUS
 62
    51
  5
97
 10
0.915
 20
0.95
 30
0.0
 11
13.625927
 21
0.95
 31
0.0
  0
LINE
  8
0
  6
CONTINUOUS
 62
    51
  5
98
 10
0.915
 20
-0.95
 30
0.0
 11
13.625927
 21
-0.95
 31
0.0
  0
LINE
  8
0
  6
CONTINUOUS
 62
    51
  5
99
 10
13.125927
 20
0.95
 30
0.0
 11
13.125927
 21
2.22
 31
0.0
  0
LINE
  8
0
  6
CONTINUOUS
 62
    51
  5
9A
 10
13.125927
 20
-0.95
 30
0.0
 11
13.125927
 21
-2.22
 31
0.0
  0
INSERT
  8
0
  6
CONTINUOUS
 62
    51
  5
9B
  2
_OPEN
 10
13.125927
 20
0.95
 30
0.0
 41
0.45
 42
0.45
 50
270.0
 43
0.45
  0
INSERT
  8
0
  6
CONTINUOUS
 62
    51
  5
9C
  2
_OPEN
 10
13.125927
 20
-0.95
 30
0.0
 41
0.45
 42
0.45
 50
90.0
 43
0.45
  0
TEXT
  8
0
  6
CONTINUOUS
 62
    51
  5
9E
 10
12.925927
 20
2.008061
 30
0.0
 40
0.7
  1
1.90+/-0.03
 50
90.0
 41
0.996226
  7
MX_DIMTXSTY_2
 11
12.575927
 21
2.008061
 31
0.0
 73
     2
  0
POINT
  8
DEFPOINTS
  6
CONTINUOUS
 62
     0
  5
9F
 10
0.915
 20
0.95
 30
0.0
  0
POINT
  8
DEFPOINTS
  6
CONTINUOUS
 62
     0
  5
A0
 10
0.915
 20
-0.95
 30
0.0
  0
POINT
  8
DEFPOINTS
  6
CONTINUOUS
 62
     0
  5
A1
 10
13.125927
 20
-0.95
 30
0.0
  0
ENDBLK
  8
0
  6
BYBLOCK
 62
     0
  5
A2
  0
BLOCK
  8
0
  6
BYBLOCK
 62
     0
  5
A5
  2
*D10
 70
     1
 10
0.0
 20
0.0
 30
0.0
  3
*D10
  0
LINE
  8
0
  6
CONTINUOUS
 62
    51
  5
A6
 10
11.625927
 20
0.1
 30
0.0
 11
11.625927
 21
-0.1
 31
0.0
  0
LINE
  8
0
  6
CONTINUOUS
 62
    51
  5
A7
 10
11.625927
 20
9.591835
 30
0.0
 11
11.625927
 21
0.1
 31
0.0
  0
LINE
  8
0
  6
CONTINUOUS
 62
    51
  5
A8
 10
0.915
 20
0.1
 30
0.0
 11
12.125927
 21
0.1
 31
0.0
  0
LINE
  8
0
  6
CONTINUOUS
 62
    51
  5
A9
 10
0.915
 20
-0.1
 30
0.0
 11
12.125927
 21
-0.1
 31
0.0
  0
LINE
  8
0
  6
CONTINUOUS
 62
    51
  5
AA
 10
11.625927
 20
0.1
 30
0.0
 11
11.625927
 21
1.37
 31
0.0
  0
LINE
  8
0
  6
CONTINUOUS
 62
    51
  5
AB
 10
11.625927
 20
-0.1
 30
0.0
 11
11.625927
 21
-1.37
 31
0.0
  0
INSERT
  8
0
  6
CONTINUOUS
 62
    51
  5
AC
  2
_OPEN
 10
11.625927
 20
0.1
 30
0.0
 41
0.45
 42
0.45
 50
270.0
 43
0.45
  0
INSERT
  8
0
  6
CONTINUOUS
 62
    51
  5
AD
  2
_OPEN
 10
11.625927
 20
-0.1
 30
0.0
 41
0.45
 42
0.45
 50
90.0
 43
0.45
  0
TEXT
  8
0
  6
CONTINUOUS
 62
    51
  5
AE
 10
11.425927
 20
2.005909
 30
0.0
 40
0.7
  1
0.20+/-0.03
 50
90.0
 41
0.977778
  7
MX_DIMTXSTY_2
 11
11.075927
 21
2.005909
 31
0.0
 73
     2
  0
POINT
  8
DEFPOINTS
  6
CONTINUOUS
 62
     0
  5
AF
 10
0.915
 20
0.1
 30
0.0
  0
POINT
  8
DEFPOINTS
  6
CONTINUOUS
 62
     0
  5
B0
 10
0.915
 20
-0.1
 30
0.0
  0
POINT
  8
DEFPOINTS
  6
CONTINUOUS
 62
     0
  5
B1
 10
11.625927
 20
-0.1
 30
0.0
  0
ENDBLK
  8
0
  6
BYBLOCK
 62
     0
  5
B2
  0
BLOCK
  8
0
  6
BYBLOCK
 62
     0
  5
B5
  2
*D11
 70
     1
 10
0.0
 20
0.0
 30
0.0
  3
*D11
  0
LINE
  8
0
  6
CONTINUOUS
 62
    51
  5
B6
 10
10.125927
 20
1.45
 30
0.0
 11
10.125927
 21
0.95
 31
0.0
  0
LINE
  8
0
  6
CONTINUOUS
 62
    51
  5
B7
 10
10.125927
 20
6.091835
 30
0.0
 11
10.125927
 21
1.45
 31
0.0
  0
LINE
  8
0
  6
CONTINUOUS
 62
    51
  5
B8
 10
0.915
 20
1.45
 30
0.0
 11
10.625927
 21
1.45
 31
0.0
  0
LINE
  8
0
  6
CONTINUOUS
 62
    51
  5
B9
 10
0.915
 20
0.95
 30
0.0
 11
10.625927
 21
0.95
 31
0.0
  0
LINE
  8
0
  6
CONTINUOUS
 62
    51
  5
BA
 10
10.125927
 20
1.45
 30
0.0
 11
10.125927
 21
2.72
 31
0.0
  0
LINE
  8
0
  6
CONTINUOUS
 62
    51
  5
BB
 10
10.125927
 20
0.95
 30
0.0
 11
10.125927
 21
-0.32
 31
0.0
  0
INSERT
  8
0
  6
CONTINUOUS
 62
    51
  5
BC
  2
_OPEN
 10
10.125927
 20
1.45
 30
0.0
 41
0.45
 42
0.45
 50
270.0
 43
0.45
  0
INSERT
  8
0
  6
CONTINUOUS
 62
    51
  5
BD
  2
_OPEN
 10
10.125927
 20
0.95
 30
0.0
 41
0.45
 42
0.45
 50
90.0
 43
0.45
  0
TEXT
  8
0
  6
CONTINUOUS
 62
    51
  5
BF
 10
9.925927
 20
2.284143
 30
0.0
 40
0.7
  1
(0.50)
 50
90.0
 41
0.989011
  7
MX_DIMTXSTY_3
 11
9.575927
 21
2.284143
 31
0.0
 73
     2
  0
POINT
  8
DEFPOINTS
  6
CONTINUOUS
 62
     0
  5
C0
 10
0.915
 20
1.45
 30
0.0
  0
POINT
  8
DEFPOINTS
  6
CONTINUOUS
 62
     0
  5
C1
 10
0.915
 20
0.95
 30
0.0
  0
POINT
  8
DEFPOINTS
  6
CONTINUOUS
 62
     0
  5
C2
 10
10.125927
 20
0.95
 30
0.0
  0
ENDBLK
  8
0
  6
BYBLOCK
 62
     0
  5
C3
  0
BLOCK
  8
0
  6
BYBLOCK
 62
     0
  5
C6
  2
*D12
 70
     1
 10
0.0
 20
0.0
 30
0.0
  3
*D12
  0
LINE
  8
0
  6
CONTINUOUS
 62
    51
  5
C7
 10
-8.25
 20
-1.45
 30
0.0
 11
-8.25
 21
1.45
 31
0.0
  0
LINE
  8
0
  6
CONTINUOUS
 62
    51
  5
C8
 10
-8.25
 20
1.45
 30
0.0
 11
-8.25
 21
9.709175
 31
0.0
  0
LINE
  8
0
  6
CONTINUOUS
 62
    51
  5
C9
 10
-1.95
 20
-1.45
 30
0.0
 11
-8.75
 21
-1.45
 31
0.0
  0
LINE
  8
0
  6
CONTINUOUS
 62
    51
  5
CA
 10
-1.95
 20
1.45
 30
0.0
 11
-8.75
 21
1.45
 31
0.0
  0
LINE
  8
0
  6
CONTINUOUS
 62
    51
  5
CB
 10
-8.25
 20
-1.45
 30
0.0
 11
-8.25
 21
-2.72
 31
0.0
  0
LINE
  8
0
  6
CONTINUOUS
 62
    51
  5
CC
 10
-8.25
 20
1.45
 30
0.0
 11
-8.25
 21
2.72
 31
0.0
  0
INSERT
  8
0
  6
CONTINUOUS
 62
    51
  5
CD
  2
_OPEN
 10
-8.25
 20
-1.45
 30
0.0
 41
0.45
 42
0.45
 50
90.0
 43
0.45
  0
INSERT
  8
0
  6
CONTINUOUS
 62
    51
  5
CE
  2
_OPEN
 10
-8.25
 20
1.45
 30
0.0
 41
0.45
 42
0.45
 50
270.0
 43
0.45
  0
TEXT
  8
0
  6
CONTINUOUS
 62
    51
  5
CF
 10
-8.45
 20
2.121175
 30
0.0
 40
0.7
  1
2.90+/-0.03
 50
90.0
 41
0.96
  7
MX_DIMTXSTY_2
 11
-8.8
 21
2.121175
 31
0.0
 73
     2
  0
POINT
  8
DEFPOINTS
  6
CONTINUOUS
 62
     0
  5
D0
 10
-1.95
 20
-1.45
 30
0.0
  0
POINT
  8
DEFPOINTS
  6
CONTINUOUS
 62
     0
  5
D1
 10
-1.95
 20
1.45
 30
0.0
  0
POINT
  8
DEFPOINTS
  6
CONTINUOUS
 62
     0
  5
D2
 10
-8.25
 20
1.45
 30
0.0
  0
ENDBLK
  8
0
  6
BYBLOCK
 62
     0
  5
D3
  0
BLOCK
  8
0
  6
BYBLOCK
 62
     0
  5
D6
  2
*D13
 70
     1
 10
0.0
 20
0.0
 30
0.0
  3
*D13
  0
LINE
  8
0
  6
CONTINUOUS
 62
    51
  5
D7
 10
-6.75
 20
-0.53
 30
0.0
 11
-6.75
 21
0.53
 31
0.0
  0
LINE
  8
0
  6
CONTINUOUS
 62
    51
  5
D8
 10
-6.75
 20
0.53
 30
0.0
 11
-6.75
 21
9.709175
 31
0.0
  0
LINE
  8
0
  6
CONTINUOUS
 62
    51
  5
D9
 10
-2.25
 20
-0.53
 30
0.0
 11
-7.25
 21
-0.53
 31
0.0
  0
LINE
  8
0
  6
CONTINUOUS
 62
    51
  5
DA
 10
-2.25
 20
0.53
 30
0.0
 11
-7.25
 21
0.53
 31
0.0
  0
LINE
  8
0
  6
CONTINUOUS
 62
    51
  5
DB
 10
-6.75
 20
-0.53
 30
0.0
 11
-6.75
 21
-1.8
 31
0.0
  0
LINE
  8
0
  6
CONTINUOUS
 62
    51
  5
DC
 10
-6.75
 20
0.53
 30
0.0
 11
-6.75
 21
1.8
 31
0.0
  0
INSERT
  8
0
  6
CONTINUOUS
 62
    51
  5
DD
  2
_OPEN
 10
-6.75
 20
-0.53
 30
0.0
 41
0.45
 42
0.45
 50
90.0
 43
0.45
  0
INSERT
  8
0
  6
CONTINUOUS
 62
    51
  5
DE
  2
_OPEN
 10
-6.75
 20
0.53
 30
0.0
 41
0.45
 42
0.45
 50
270.0
 43
0.45
  0
TEXT
  8
0
  6
CONTINUOUS
 62
    51
  5
DF
 10
-6.95
 20
2.125401
 30
0.0
 40
0.7
  1
1.06+/-0.03
 50
90.0
 41
0.996226
  7
MX_DIMTXSTY_2
 11
-7.3
 21
2.125401
 31
0.0
 73
     2
  0
POINT
  8
DEFPOINTS
  6
CONTINUOUS
 62
     0
  5
E0
 10
-2.25
 20
-0.53
 30
0.0
  0
POINT
  8
DEFPOINTS
  6
CONTINUOUS
 62
     0
  5
E1
 10
-2.25
 20
0.53
 30
0.0
  0
POINT
  8
DEFPOINTS
  6
CONTINUOUS
 62
     0
  5
E2
 10
-6.75
 20
0.53
 30
0.0
  0
ENDBLK
  8
0
  6
BYBLOCK
 62
     0
  5
E3
  0
BLOCK
  8
0
  6
BYBLOCK
 62
     0
  5
E6
  2
*D14
 70
     1
 10
0.0
 20
0.0
 30
0.0
  3
*D14
  0
LINE
  8
0
  6
CONTINUOUS
 62
    51
  5
E7
 10
-1.35
 20
-5.945764
 30
0.0
 11
-2.25
 21
-5.945764
 31
0.0
  0
LINE
  8
0
  6
CONTINUOUS
 62
    51
  5
E8
 10
10.44341
 20
-5.945764
 30
0.0
 11
-1.35
 21
-5.945764
 31
0.0
  0
LINE
  8
0
  6
CONTINUOUS
 62
    51
  5
E9
 10
-1.35
 20
-1.45
 30
0.0
 11
-1.35
 21
-6.445764
 31
0.0
  0
LINE
  8
0
  6
CONTINUOUS
 62
    51
  5
EA
 10
-2.25
 20
-1.15
 30
0.0
 11
-2.25
 21
-6.445764
 31
0.0
  0
LINE
  8
0
  6
CONTINUOUS
 62
    51
  5
EB
 10
-1.35
 20
-5.945764
 30
0.0
 11
-0.08
 21
-5.945764
 31
0.0
  0
LINE
  8
0
  6
CONTINUOUS
 62
    51
  5
EC
 10
-2.25
 20
-5.945764
 30
0.0
 11
-3.52
 21
-5.945764
 31
0.0
  0
INSERT
  8
0
  6
CONTINUOUS
 62
    51
  5
ED
  2
_OPEN
 10
-1.35
 20
-5.945764
 30
0.0
 41
0.45
 42
0.45
 50
180.0
 43
0.45
  0
INSERT
  8
0
  6
CONTINUOUS
 62
    51
  5
EE
  2
_OPEN
 10
-2.25
 20
-5.945764
 30
0.0
 41
0.45
 42
0.45
 43
0.45
  0
TEXT
  8
0
  6
CONTINUOUS
 62
    51
  5
EF
 10
2.857484
 20
-5.745764
 30
0.0
 40
0.7
  1
0.90+/-0.03
 41
0.977778
  7
MX_DIMTXSTY_2
 11
2.857484
 21
-5.395764
 31
0.0
 73
     2
  0
POINT
  8
DEFPOINTS
  6
CONTINUOUS
 62
     0
  5
F0
 10
-1.35
 20
-1.45
 30
0.0
  0
POINT
  8
DEFPOINTS
  6
CONTINUOUS
 62
     0
  5
F1
 10
-2.25
 20
-1.15
 30
0.0
  0
POINT
  8
DEFPOINTS
  6
CONTINUOUS
 62
     0
  5
F2
 10
-2.25
 20
-5.945764
 30
0.0
  0
ENDBLK
  8
0
  6
BYBLOCK
 62
     0
  5
F3
  0
BLOCK
  8
0
  6
BYBLOCK
 62
     0
  5
F6
  2
*D15
 70
     1
 10
0.0
 20
0.0
 30
0.0
  3
*D15
  0
LINE
  8
0
  6
CONTINUOUS
 62
    51
  5
F7
 10
2.25
 20
-7.445764
 30
0.0
 11
-2.25
 21
-7.445764
 31
0.0
  0
LINE
  8
0
  6
CONTINUOUS
 62
    51
  5
F8
 10
10.44341
 20
-7.445764
 30
0.0
 11
2.25
 21
-7.445764
 31
0.0
  0
LINE
  8
0
  6
CONTINUOUS
 62
    51
  5
F9
 10
2.25
 20
-1.15
 30
0.0
 11
2.25
 21
-7.945764
 31
0.0
  0
LINE
  8
0
  6
CONTINUOUS
 62
    51
  5
FA
 10
-2.25
 20
-1.15
 30
0.0
 11
-2.25
 21
-7.945764
 31
0.0
  0
LINE
  8
0
  6
CONTINUOUS
 62
    51
  5
FB
 10
2.25
 20
-7.445764
 30
0.0
 11
3.52
 21
-7.445764
 31
0.0
  0
LINE
  8
0
  6
CONTINUOUS
 62
    51
  5
FC
 10
-2.25
 20
-7.445764
 30
0.0
 11
-3.52
 21
-7.445764
 31
0.0
  0
INSERT
  8
0
  6
CONTINUOUS
 62
    51
  5
FD
  2
_OPEN
 10
2.25
 20
-7.445764
 30
0.0
 41
0.45
 42
0.45
 50
180.0
 43
0.45
  0
INSERT
  8
0
  6
CONTINUOUS
 62
    51
  5
FE
  2
_OPEN
 10
-2.25
 20
-7.445764
 30
0.0
 41
0.45
 42
0.45
 43
0.45
  0
TEXT
  8
0
  6
CONTINUOUS
 62
    51
  5
FF
 10
2.85541
 20
-7.245764
 30
0.0
 40
0.7
  1
4.50+/-0.05
 41
0.96
  7
MX_DIMTXSTY_2
 11
2.85541
 21
-6.895764
 31
0.0
 73
     2
  0
POINT
  8
DEFPOINTS
  6
CONTINUOUS
 62
     0
  5
100
 10
2.25
 20
-1.15
 30
0.0
  0
POINT
  8
DEFPOINTS
  6
CONTINUOUS
 62
     0
  5
101
 10
-2.25
 20
-1.15
 30
0.0
  0
POINT
  8
DEFPOINTS
  6
CONTINUOUS
 62
     0
  5
102
 10
-2.25
 20
-7.445764
 30
0.0
  0
ENDBLK
  8
0
  6
BYBLOCK
 62
     0
  5
103
  0
BLOCK
  8
0
  6
BYBLOCK
 62
     0
  5
106
  2
*D16
 70
     1
 10
0.0
 20
0.0
 30
0.0
  3
*D16
  0
LINE
  8
0
  6
CONTINUOUS
 62
    51
  5
107
 10
-0.8
 20
7.322047
 30
0.0
 11
0.8
 21
7.322047
 31
0.0
  0
LINE
  8
0
  6
CONTINUOUS
 62
    51
  5
108
 10
0.8
 20
7.322047
 30
0.0
 11
8.804494
 21
7.322047
 31
0.0
  0
LINE
  8
0
  6
CONTINUOUS
 62
    51
  5
109
 10
-0.8
 20
1.7
 30
0.0
 11
-0.8
 21
7.822047
 31
0.0
  0
LINE
  8
0
  6
CONTINUOUS
 62
    51
  5
10A
 10
0.8
 20
1.7
 30
0.0
 11
0.8
 21
7.822047
 31
0.0
  0
LINE
  8
0
  6
CONTINUOUS
 62
    51
  5
10B
 10
-0.8
 20
7.322047
 30
0.0
 11
-2.07
 21
7.322047
 31
0.0
  0
LINE
  8
0
  6
CONTINUOUS
 62
    51
  5
10C
 10
0.8
 20
7.322047
 30
0.0
 11
2.07
 21
7.322047
 31
0.0
  0
INSERT
  8
0
  6
CONTINUOUS
 62
    51
  5
10D
  2
_OPEN
 10
-0.8
 20
7.322047
 30
0.0
 41
0.45
 42
0.45
 43
0.45
  0
INSERT
  8
0
  6
CONTINUOUS
 62
    51
  5
10E
  2
_OPEN
 10
0.8
 20
7.322047
 30
0.0
 41
0.45
 42
0.45
 50
180.0
 43
0.45
  0
TEXT
  8
0
  6
CONTINUOUS
 62
    51
  5
10F
 10
1.22072
 20
7.522047
 30
0.0
 40
0.7
  1
1.60+/-0.05
 41
0.996226
  7
MX_DIMTXSTY_2
 11
1.22072
 21
7.872047
 31
0.0
 73
     2
  0
POINT
  8
DEFPOINTS
  6
CONTINUOUS
 62
     0
  5
110
 10
-0.8
 20
1.7
 30
0.0
  0
POINT
  8
DEFPOINTS
  6
CONTINUOUS
 62
     0
  5
111
 10
0.8
 20
1.7
 30
0.0
  0
POINT
  8
DEFPOINTS
  6
CONTINUOUS
 62
     0
  5
112
 10
0.8
 20
7.322047
 30
0.0
  0
ENDBLK
  8
0
  6
BYBLOCK
 62
     0
  5
113
  0
BLOCK
  8
0
  6
BYBLOCK
 62
     0
  5
116
  2
*D17
 70
     1
 10
0.0
 20
0.0
 30
0.0
  3
*D17
  0
LINE
  8
0
  6
CONTINUOUS
 62
    51
  5
117
 10
-0.8
 20
5.822047
 30
0.0
 11
-0.4
 21
5.822047
 31
0.0
  0
LINE
  8
0
  6
CONTINUOUS
 62
    51
  5
118
 10
-0.4
 20
5.822047
 30
0.0
 11
8.804494
 21
5.822047
 31
0.0
  0
LINE
  8
0
  6
CONTINUOUS
 62
    51
  5
119
 10
-0.8
 20
1.7
 30
0.0
 11
-0.8
 21
6.322047
 31
0.0
  0
LINE
  8
0
  6
CONTINUOUS
 62
    51
  5
11A
 10
-0.4
 20
1.7
 30
0.0
 11
-0.4
 21
6.322047
 31
0.0
  0
LINE
  8
0
  6
CONTINUOUS
 62
    51
  5
11B
 10
-0.8
 20
5.822047
 30
0.0
 11
-2.07
 21
5.822047
 31
0.0
  0
LINE
  8
0
  6
CONTINUOUS
 62
    51
  5
11C
 10
-0.4
 20
5.822047
 30
0.0
 11
0.87
 21
5.822047
 31
0.0
  0
INSERT
  8
0
  6
CONTINUOUS
 62
    51
  5
11D
  2
_OPEN
 10
-0.8
 20
5.822047
 30
0.0
 41
0.45
 42
0.45
 43
0.45
  0
INSERT
  8
0
  6
CONTINUOUS
 62
    51
  5
11E
  2
_OPEN
 10
-0.4
 20
5.822047
 30
0.0
 41
0.45
 42
0.45
 50
180.0
 43
0.45
  0
TEXT
  8
0
  6
CONTINUOUS
 62
    51
  5
11F
 10
1.218568
 20
6.022047
 30
0.0
 40
0.7
  1
0.40+/-0.03
 41
0.977778
  7
MX_DIMTXSTY_2
 11
1.218568
 21
6.372047
 31
0.0
 73
     2
  0
POINT
  8
DEFPOINTS
  6
CONTINUOUS
 62
     0
  5
120
 10
-0.8
 20
1.7
 30
0.0
  0
POINT
  8
DEFPOINTS
  6
CONTINUOUS
 62
     0
  5
121
 10
-0.4
 20
1.7
 30
0.0
  0
POINT
  8
DEFPOINTS
  6
CONTINUOUS
 62
     0
  5
122
 10
-0.4
 20
5.822047
 30
0.0
  0
ENDBLK
  8
0
  6
BYBLOCK
 62
     0
  5
123
  0
BLOCK
  8
0
  6
BYBLOCK
 62
     0
  5
127
  2
*D18
 70
     1
 10
0.0
 20
0.0
 30
0.0
  3
*D18
  0
LINE
  8
0
  6
CONTINUOUS
 62
    51
  5
128
 10
-0.915
 20
4.322047
 30
0.0
 11
-0.685
 21
4.322047
 31
0.0
  0
LINE
  8
0
  6
CONTINUOUS
 62
    51
  5
129
 10
-0.685
 20
4.322047
 30
0.0
 11
8.804494
 21
4.322047
 31
0.0
  0
LINE
  8
0
  6
CONTINUOUS
 62
    51
  5
12A
 10
-0.915
 20
1.45
 30
0.0
 11
-0.915
 21
4.822047
 31
0.0
  0
LINE
  8
0
  6
CONTINUOUS
 62
    51
  5
12B
 10
-0.685
 20
1.45
 30
0.0
 11
-0.685
 21
4.822047
 31
0.0
  0
LINE
  8
0
  6
CONTINUOUS
 62
    51
  5
12C
 10
-0.915
 20
4.322047
 30
0.0
 11
-2.185
 21
4.322047
 31
0.0
  0
LINE
  8
0
  6
CONTINUOUS
 62
    51
  5
12D
 10
-0.685
 20
4.322047
 30
0.0
 11
0.585
 21
4.322047
 31
0.0
  0
INSERT
  8
0
  6
CONTINUOUS
 62
    51
  5
12E
  2
_OPEN
 10
-0.915
 20
4.322047
 30
0.0
 41
0.45
 42
0.45
 43
0.45
  0
INSERT
  8
0
  6
CONTINUOUS
 62
    51
  5
12F
  2
_OPEN
 10
-0.685
 20
4.322047
 30
0.0
 41
0.45
 42
0.45
 50
180.0
 43
0.45
  0
TEXT
  8
0
  6
CONTINUOUS
 62
    51
  5
130
 10
1.216494
 20
4.522047
 30
0.0
 40
0.7
  1
0.23+/-0.03
 41
0.96
  7
MX_DIMTXSTY_2
 11
1.216494
 21
4.872047
 31
0.0
 73
     2
  0
POINT
  8
DEFPOINTS
  6
CONTINUOUS
 62
     0
  5
131
 10
-0.915
 20
1.45
 30
0.0
  0
POINT
  8
DEFPOINTS
  6
CONTINUOUS
 62
     0
  5
132
 10
-0.685
 20
1.45
 30
0.0
  0
POINT
  8
DEFPOINTS
  6
CONTINUOUS
 62
     0
  5
133
 10
-0.685
 20
4.322047
 30
0.0
  0
ENDBLK
  8
0
  6
BYBLOCK
 62
     0
  5
134
  0
ENDSEC
  0
SECTION
  2
ENTITIES
  0
TEXT
  8
LY_1
  6
CONTINUOUS
 62
   230
  5
81
 10
-14.655019
 20
-12.578824
 30
0.0
 40
0.5
  1
Nov. 2014  axe510127d-pad.dxf  (C)Panasonic Corporation 2014
 41
1.153107
  7
MX_NOTE_STANDARD
 11
-14.655019
 21
-12.328824
 31
0.0
 73
     2
  0
TEXT
  8
LY_1
  6
CONTINUOUS
 62
   230
  5
82
 10
-14.655752
 20
-11.578824
 30
0.0
 40
0.5
  1
Panasonic Corporation  Automation Controls Business Division
 41
1.14431
  7
MX_NOTE_STANDARD
 11
-14.655752
 21
-11.328824
 31
0.0
 73
     2
  0
TEXT
  8
LY_1
  6
CONTINUOUS
 62
   230
  5
83
 10
-5.643141
 20
-4.557948
 30
0.0
 40
0.7
  1
C0.30
 50
45.0
 41
1.25
  7
MX_NOTE_STANDARD
 11
-5.890629
 21
-4.31046
 31
0.0
 73
     2
  0
POLYLINE
  8
LY_1
  6
CONTINUOUS
 62
    52
  5
8A
 66
     1
 10
0.0
 20
0.0
 30
0.0
  0
VERTEX
  8
LY_1
  6
CONTINUOUS
 62
    52
  5
14B
 10
-2.1
 20
-1.3
 30
0.0
  0
VERTEX
  8
LY_1
  6
CONTINUOUS
 62
    52
  5
14C
 10
-5.614746
 20
-4.814746
 30
0.0
  0
SEQEND
  8
LY_1
  6
CONTINUOUS
 62
    52
  5
14D
  0
INSERT
  8
LY_1
  6
CONTINUOUS
 62
    52
  5
8B
  2
_OPEN
 10
-2.1
 20
-1.3
 30
0.0
 41
0.45
 42
0.45
 50
45.0
 43
0.45
  0
POLYLINE
  8
LY_1
  6
CONTINUOUS
 62
    52
  5
8C
 66
     1
 10
0.0
 20
0.0
 30
0.0
  0
VERTEX
  8
LY_1
  6
CONTINUOUS
 62
    52
  5
14E
 10
0.42258
 20
-0.454408
 30
0.0
  0
VERTEX
  8
LY_1
  6
CONTINUOUS
 62
    52
  5
14F
 10
3.1682
 20
-4.445764
 30
0.0
  0
SEQEND
  8
LY_1
  6
CONTINUOUS
 62
    52
  5
150
  0
INSERT
  8
LY_1
  6
CONTINUOUS
 62
    52
  5
8D
  2
_OPEN
 10
0.42258
 20
-0.454408
 30
0.0
 41
0.45
 42
0.45
 50
124.523747
 43
0.45
  0
LINE
  8
LY_1
  6
CONTINUOUS
 62
    52
  5
8E
 10
3.1682
 20
-4.445764
 30
0.0
 11
12.805469
 21
-4.445764
 31
0.0
  0
POLYLINE
  8
LY_1
  6
CONTINUOUS
 62
    52
  5
8F
 66
     1
 10
0.0
 20
0.0
 30
0.0
  0
VERTEX
  8
LY_1
  6
CONTINUOUS
 62
    52
  5
151
 10
0.398067
 20
0.658461
 30
0.0
  0
VERTEX
  8
LY_1
  6
CONTINUOUS
 62
    52
  5
152
 10
3.1682
 20
-4.445764
 30
0.0
  0
SEQEND
  8
LY_1
  6
CONTINUOUS
 62
    52
  5
153
  0
INSERT
  8
LY_1
  6
CONTINUOUS
 62
    52
  5
90
  2
_OPEN
 10
0.398067
 20
0.658461
 30
0.0
 41
0.45
 42
0.45
 50
118.489282
 43
0.45
  0
INSERT
  8
LY_1
  6
BYBLOCK
 62
    52
  5
91
  2
MS_2
 10
3.440133
 20
-4.244676
 30
0.0
  0
TEXT
  8
LY_1
  6
CONTINUOUS
 62
   230
  5
92
 10
4.781688
 20
-4.243144
 30
0.0
 40
0.7
  1
:Insulation area
 41
0.850762
  7
MX_NOTE_STANDARD
 11
4.781688
 21
-3.893144
 31
0.0
 73
     2
  0
DIMENSION
  8
LY_1
  6
CONTINUOUS
 62
    51
  5
A3
  2
*D9
 10
13.125927
 20
-0.95
 30
0.0
 11
13.125927
 21
5.741835
 31
0.0
 70
   128
  1
<>+/-0.03
 13
0.915
 23
0.95
 33
0.0
 14
0.915
 24
-0.95
 34
0.0
 50
90.0
  3
MXDIMSTYLE
1001
ACAD
1000
DSTYLE
1002
{
1070
     6
1000
_OPEN
1070
     7
1000
_OPEN
1070
    41
1040
0.45
1070
    44
1040
0.5
1070
    78
1070
     0
1070
   140
1040
0.7
1070
   340
1005
9D
1070
   343
1005
84
1070
   344
1005
84
1002
}
  0
DIMENSION
  8
LY_1
  6
CONTINUOUS
 62
    51
  5
B3
  2
*D10
 10
11.625927
 20
-0.1
 30
0.0
 11
11.625927
 21
5.741835
 31
0.0
 70
   128
  1
<>+/-0.03
 13
0.915
 23
0.1
 33
0.0
 14
0.915
 24
-0.1
 34
0.0
 50
90.0
  3
MXDIMSTYLE
1001
ACAD
1000
DSTYLE
1002
{
1070
     6
1000
_OPEN
1070
     7
1000
_OPEN
1070
    41
1040
0.45
1070
    44
1040
0.5
1070
    78
1070
     0
1070
   140
1040
0.7
1070
   340
1005
9D
1070
   343
1005
84
1070
   344
1005
84
1002
}
  0
DIMENSION
  8
LY_1
  6
CONTINUOUS
 62
    51
  5
C4
  2
*D11
 10
10.125927
 20
0.95
 30
0.0
 11
10.125927
 21
3.991835
 31
0.0
 70
   128
  1
(<>)
 13
0.915
 23
1.45
 33
0.0
 14
0.915
 24
0.95
 34
0.0
 50
90.0
  3
MXDIMSTYLE
1001
ACAD
1000
DSTYLE
1002
{
1070
     6
1000
_OPEN
1070
     7
1000
_OPEN
1070
    41
1040
0.45
1070
    44
1040
0.5
1070
    78
1070
     0
1070
   140
1040
0.7
1070
   340
1005
BE
1070
   343
1005
84
1070
   344
1005
84
1002
}
  0
DIMENSION
  8
LY_1
  6
CONTINUOUS
 62
    51
  5
D4
  2
*D12
 10
-8.25
 20
1.45
 30
0.0
 11
-8.25
 21
5.859175
 31
0.0
 70
   128
  1
<>+/-0.03
 13
-1.95
 23
-1.45
 33
0.0
 14
-1.95
 24
1.45
 34
0.0
 50
90.0
  3
MXDIMSTYLE
1001
ACAD
1000
DSTYLE
1002
{
1070
     6
1000
_OPEN
1070
     7
1000
_OPEN
1070
    41
1040
0.45
1070
    44
1040
0.5
1070
    78
1070
     0
1070
   140
1040
0.7
1070
   340
1005
9D
1070
   343
1005
84
1070
   344
1005
84
1002
}
  0
DIMENSION
  8
LY_1
  6
CONTINUOUS
 62
    51
  5
E4
  2
*D13
 10
-6.75
 20
0.53
 30
0.0
 11
-6.75
 21
5.859175
 31
0.0
 70
   128
  1
<>+/-0.03
 13
-2.25
 23
-0.53
 33
0.0
 14
-2.25
 24
0.53
 34
0.0
 50
90.0
  3
MXDIMSTYLE
1001
ACAD
1000
DSTYLE
1002
{
1070
     6
1000
_OPEN
1070
     7
1000
_OPEN
1070
    41
1040
0.45
1070
    44
1040
0.5
1070
   140
1040
0.7
1070
   284
1070
     8
1070
   340
1005
9D
1070
   343
1005
84
1070
   344
1005
84
1002
}
  0
DIMENSION
  8
LY_1
  6
CONTINUOUS
 62
    51
  5
F4
  2
*D14
 10
-2.25
 20
-5.945764
 30
0.0
 11
6.59341
 21
-5.945764
 31
0.0
 70
   128
  1
<>+/-0.03
 13
-1.35
 23
-1.45
 33
0.0
 14
-2.25
 24
-1.15
 34
0.0
  3
MXDIMSTYLE
1001
ACAD
1000
DSTYLE
1002
{
1070
     6
1000
_OPEN
1070
     7
1000
_OPEN
1070
    41
1040
0.45
1070
    44
1040
0.5
1070
    78
1070
     0
1070
   140
1040
0.7
1070
   340
1005
9D
1070
   343
1005
84
1070
   344
1005
84
1002
}
  0
DIMENSION
  8
LY_1
  6
CONTINUOUS
 62
    51
  5
104
  2
*D15
 10
-2.25
 20
-7.445764
 30
0.0
 11
6.59341
 21
-7.445764
 31
0.0
 70
   128
  1
<>+/-0.05
 13
2.25
 23
-1.15
 33
0.0
 14
-2.25
 24
-1.15
 34
0.0
  3
MXDIMSTYLE
1001
ACAD
1000
DSTYLE
1002
{
1070
     6
1000
_OPEN
1070
     7
1000
_OPEN
1070
    41
1040
0.45
1070
    44
1040
0.5
1070
    78
1070
     0
1070
   140
1040
0.7
1070
   340
1005
9D
1070
   343
1005
84
1070
   344
1005
84
1002
}
  0
DIMENSION
  8
LY_1
  6
CONTINUOUS
 62
    51
  5
114
  2
*D16
 10
0.8
 20
7.322047
 30
0.0
 11
4.954494
 21
7.322047
 31
0.0
 70
   128
  1
<>+/-0.05
 13
-0.8
 23
1.7
 33
0.0
 14
0.8
 24
1.7
 34
0.0
  3
MXDIMSTYLE
1001
ACAD
1000
DSTYLE
1002
{
1070
     6
1000
_OPEN
1070
     7
1000
_OPEN
1070
    41
1040
0.45
1070
    44
1040
0.5
1070
    78
1070
     0
1070
   140
1040
0.7
1070
   340
1005
9D
1070
   343
1005
84
1070
   344
1005
84
1002
}
  0
DIMENSION
  8
LY_1
  6
CONTINUOUS
 62
    51
  5
124
  2
*D17
 10
-0.4
 20
5.822047
 30
0.0
 11
4.954494
 21
5.822047
 31
0.0
 70
   128
  1
<>+/-0.03
 13
-0.8
 23
1.7
 33
0.0
 14
-0.4
 24
1.7
 34
0.0
  3
MXDIMSTYLE
1001
ACAD
1000
DSTYLE
1002
{
1070
     6
1000
_OPEN
1070
     7
1000
_OPEN
1070
    41
1040
0.45
1070
    44
1040
0.5
1070
    78
1070
     0
1070
   140
1040
0.7
1070
   340
1005
9D
1070
   343
1005
84
1070
   344
1005
84
1002
}
  0
INSERT
  8
LY_1
  6
BYBLOCK
 62
    52
  5
125
  2
MS_1
 10
-0.915
 20
0.95
 30
0.0
  0
DIMENSION
  8
LY_1
  6
CONTINUOUS
 62
    51
  5
135
  2
*D18
 10
-0.685
 20
4.322047
 30
0.0
 11
4.954494
 21
4.322047
 31
0.0
 70
   128
  1
<>+/-0.03
 13
-0.915
 23
1.45
 33
0.0
 14
-0.685
 24
1.45
 34
0.0
  3
MXDIMSTYLE
1001
ACAD
1000
DSTYLE
1002
{
1070
     6
1000
_OPEN
1070
     7
1000
_OPEN
1070
    41
1040
0.45
1070
    44
1040
0.5
1070
   140
1040
0.7
1070
   284
1070
     8
1070
   340
1005
9D
1070
   343
1005
84
1070
   344
1005
84
1002
}
  0
INSERT
  8
LY_1
  6
BYBLOCK
 62
    52
  5
136
  2
MS_3
 10
1.75
 20
0.0
 30
0.0
 42
-1.0
 50
180.0
  0
INSERT
  8
LY_1
  6
BYBLOCK
 62
    52
  5
137
  2
MS_4
 10
0.8
 20
0.0
 30
0.0
  0
INSERT
  8
LY_1
  6
BYBLOCK
 62
    52
  5
138
  2
MS_4
 10
0.4
 20
0.0
 30
0.0
  0
INSERT
  8
LY_1
  6
BYBLOCK
 62
    52
  5
139
  2
MS_4
 10
0.0
 20
0.0
 30
0.0
  0
INSERT
  8
LY_1
  6
BYBLOCK
 62
    52
  5
13A
  2
MS_4
 10
-0.4
 20
0.0
 30
0.0
  0
INSERT
  8
LY_1
  6
BYBLOCK
 62
    52
  5
13B
  2
MS_4
 10
-0.8
 20
0.0
 30
0.0
  0
INSERT
  8
LY_1
  6
BYBLOCK
 62
    52
  5
13C
  2
MS_3
 10
-1.75
 20
0.0
 30
0.0
  0
LINE
  8
LY_1
  6
CONTINUOUS
 62
    42
  5
13D
 10
2.25
 20
-1.15
 30
0.0
 11
1.95
 21
-1.45
 31
0.0
  0
LINE
  8
LY_1
  6
CENTER
 62
    52
  5
13F
 10
0.8
 20
-0.780507
 30
0.0
 11
0.8
 21
-1.7
 31
0.0
  0
LINE
  8
LY_1
  6
CENTER
 62
    52
  5
140
 10
0.8
 20
0.780507
 30
0.0
 11
0.8
 21
1.7
 31
0.0
  0
LINE
  8
LY_1
  6
CENTER
 62
    52
  5
141
 10
-0.8
 20
-0.780507
 30
0.0
 11
-0.8
 21
-1.7
 31
0.0
  0
LINE
  8
LY_1
  6
CENTER
 62
    52
  5
142
 10
-0.4
 20
-0.780507
 30
0.0
 11
-0.4
 21
-1.7
 31
0.0
  0
LINE
  8
LY_1
  6
CENTER
 62
    52
  5
143
 10
-0.4
 20
0.780507
 30
0.0
 11
-0.4
 21
1.7
 31
0.0
  0
LINE
  8
LY_1
  6
CENTER
 62
    52
  5
144
 10
0.0
 20
-1.7
 30
0.0
 11
0.0
 21
1.7
 31
0.0
  0
LINE
  8
LY_1
  6
CENTER
 62
    52
  5
145
 10
-2.25
 20
0.0
 30
0.0
 11
2.25
 21
0.0
 31
0.0
  0
LINE
  8
LY_1
  6
CENTER
 62
    52
  5
146
 10
-0.8
 20
0.780507
 30
0.0
 11
-0.8
 21
1.7
 31
0.0
  0
LINE
  8
LY_1
  6
CONTINUOUS
 62
    52
  5
147
 10
-16.5
 20
13.448653
 30
0.0
 11
16.5
 21
13.448653
 31
0.0
  0
TEXT
  8
LY_1
  6
CONTINUOUS
 62
   230
  5
148
 10
-4.258379
 20
13.802992
 30
0.0
 40
0.8
  1
(Top view)
 41
1.209677
  7
MX_NOTE_STANDARD
 11
-4.258379
 21
14.202992
 31
0.0
 73
     2
  0
TEXT
  8
LY_1
  6
CONTINUOUS
 62
   230
  5
149
 10
-15.817749
 20
14.995917
 30
0.0
 40
0.8
  1
Recommended mounting pattern on PC board
 41
1.071429
  7
MX_NOTE_STANDARD
 11
-15.817749
 21
15.395917
 31
0.0
 73
     2
  0
ENDSEC
  0
EOF
